<svg width="18" height="18" viewBox="0 0 18 18" fill="none" xmlns="http://www.w3.org/2000/svg">
<path d="M5.43372 11.0867L7.67847 8.1692L10.239 10.1807L12.4357 7.3457" stroke="#828282" stroke-width="1.5" stroke-linecap="round" stroke-linejoin="round"/>
<path d="M14.9962 4.59198C15.7924 4.59198 16.4377 3.9466 16.4377 3.15048C16.4377 2.35437 15.7924 1.70898 14.9962 1.70898C14.2001 1.70898 13.5547 2.35437 13.5547 3.15048C13.5547 3.9466 14.2001 4.59198 14.9962 4.59198Z" stroke="#828282" stroke-width="1.5" stroke-linecap="round" stroke-linejoin="round"/>
<path d="M11.1933 2.33984H5.74253C3.48395 2.33984 2.0835 3.93939 2.0835 6.19797V12.2598C2.0835 14.5183 3.45649 16.111 5.74253 16.111H12.1956C14.4542 16.111 15.8547 14.5183 15.8547 12.2598V6.98058" stroke="#828282" stroke-width="1.5" stroke-linecap="round" stroke-linejoin="round"/>
</svg>
