<svg width="18" height="18" viewBox="0 0 18 18" fill="none" xmlns="http://www.w3.org/2000/svg">
<path d="M15.7148 8.12021C16.258 8.12021 16.4848 7.42236 16.0435 7.10068L9.33046 2.21748C9.23459 2.14724 9.11883 2.10938 8.99999 2.10938C8.88114 2.10938 8.76539 2.14724 8.66952 2.21748L1.95643 7.10068C1.51522 7.42061 1.74198 8.12021 2.2869 8.12021H3.37499V14.6944H2.10936C2.03202 14.6944 1.96874 14.7577 1.96874 14.8351V15.7491C1.96874 15.8265 2.03202 15.8897 2.10936 15.8897H15.8906C15.968 15.8897 16.0312 15.8265 16.0312 15.7491V14.8351C16.0312 14.7577 15.968 14.6944 15.8906 14.6944H14.625V8.12021H15.7148ZM8.99999 3.45674L13.7654 6.92314H4.23456L8.99999 3.45674ZM4.64061 8.12021H6.69725V14.6944H4.64061V8.12021ZM7.96288 8.12021H10.0195V14.6944H7.96288V8.12021ZM13.3594 14.6944H11.2851V8.12021H13.3594V14.6944Z" fill="#828282"/>
</svg>
