<svg width="18" height="18" viewBox="0 0 18 18" fill="none" xmlns="http://www.w3.org/2000/svg">
<path d="M7.98255 9.5H10.9825C11.1815 9.5 11.3722 9.42098 11.5129 9.28033C11.6535 9.13968 11.7325 8.94891 11.7325 8.75C11.7325 8.55109 11.6535 8.36032 11.5129 8.21967C11.3722 8.07902 11.1815 8 10.9825 8H7.98255C7.78364 8 7.59287 8.07902 7.45222 8.21967C7.31157 8.36032 7.23255 8.55109 7.23255 8.75C7.23255 8.94891 7.31157 9.13968 7.45222 9.28033C7.59287 9.42098 7.78364 9.5 7.98255 9.5ZM14.7325 2H4.23255C3.70489 2.00409 3.19546 2.19351 2.7933 2.53514C2.39115 2.87676 2.12186 3.34887 2.0325 3.86892C1.94314 4.38897 2.03941 4.92388 2.30447 5.38015C2.56953 5.83642 2.98652 6.18502 3.48255 6.365V13.25C3.48255 13.8467 3.7196 14.419 4.14156 14.841C4.56352 15.2629 5.13581 15.5 5.73255 15.5H13.2325C13.8293 15.5 14.4016 15.2629 14.8235 14.841C15.2455 14.419 15.4825 13.8467 15.4825 13.25V6.365C15.9786 6.18502 16.3956 5.83642 16.6606 5.38015C16.9257 4.92388 17.022 4.38897 16.9326 3.86892C16.8432 3.34887 16.5739 2.87676 16.1718 2.53514C15.7696 2.19351 15.2602 2.00409 14.7325 2ZM13.9825 13.25C13.9825 13.4489 13.9035 13.6397 13.7629 13.7803C13.6222 13.921 13.4315 14 13.2325 14H5.73255C5.53364 14 5.34287 13.921 5.20222 13.7803C5.06157 13.6397 4.98255 13.4489 4.98255 13.25V6.5H13.9825V13.25ZM14.7325 5H4.23255C4.03364 5 3.84287 4.92098 3.70222 4.78033C3.56157 4.63968 3.48255 4.44891 3.48255 4.25C3.48255 4.05109 3.56157 3.86032 3.70222 3.71967C3.84287 3.57902 4.03364 3.5 4.23255 3.5H14.7325C14.9315 3.5 15.1222 3.57902 15.2629 3.71967C15.4035 3.86032 15.4825 4.05109 15.4825 4.25C15.4825 4.44891 15.4035 4.63968 15.2629 4.78033C15.1222 4.92098 14.9315 5 14.7325 5Z" fill="#828282"/>
</svg>
