<svg width="18" height="18" viewBox="0 0 18 18" fill="none" xmlns="http://www.w3.org/2000/svg">
<g clip-path="url(#clip0_1078_80)">
<path d="M16.35 8.34751C15.4 7.49751 14.15 7.04751 12.85 7.09751H12.45C12.35 7.49751 12.2 7.84751 12 8.14751C12.3 8.09751 12.55 8.09751 12.85 8.09751C13.8 8.04751 14.75 8.34751 15.5 8.89751V12.4975H16.5V8.49751L16.35 8.34751Z" fill="#828282" stroke="#828282" stroke-width="0.2"/>
<path d="M11.7 3.89844C11.95 3.29844 12.65 2.99844 13.3 3.24844C13.9 3.49844 14.2 4.19844 13.95 4.84844C13.75 5.29844 13.3 5.59844 12.85 5.59844C12.75 5.59844 12.6 5.59844 12.5 5.54844C12.55 5.79844 12.55 6.04844 12.55 6.24844V6.54844C12.65 6.54844 12.75 6.59844 12.85 6.59844C14.1 6.59844 15.1 5.59844 15.1 4.39844C15.1 3.14844 14.1 2.14844 12.9 2.14844C12.1 2.14844 11.4 2.54844 11 3.24844C11.25 3.39844 11.5 3.59844 11.7 3.89844Z" fill="#828282" stroke="#828282" stroke-width="0.2"/>
<path d="M6 8.1983C5.8 7.8983 5.65 7.5483 5.55 7.1483H5.15C3.85 7.0983 2.6 7.5483 1.65 8.3483L1.5 8.4983V12.4983H2.5V8.8983C3.3 8.3483 4.2 8.0483 5.15 8.0983C5.45 8.0983 5.75 8.1483 6 8.1983Z" fill="#828282" stroke="#828282" stroke-width="0.2"/>
<path d="M5.15001 6.5491C5.25001 6.5491 5.35001 6.5491 5.45001 6.4991V6.1991C5.45001 5.9491 5.45001 5.6991 5.50001 5.4991C5.40001 5.5491 5.25001 5.5491 5.15001 5.5491C4.50001 5.5491 3.95001 4.9991 3.95001 4.3491C3.95001 3.6991 4.50001 3.1491 5.15001 3.1491C5.65001 3.1491 6.10001 3.4491 6.30001 3.8991C6.50001 3.6491 6.80001 3.3991 7.05001 3.1991C6.40001 2.1491 5.05001 1.7991 4.00001 2.4491C2.95001 3.0991 2.60001 4.4491 3.25001 5.4991C3.65001 6.1491 4.35001 6.5491 5.15001 6.5491Z" fill="#828282" stroke="#828282" stroke-width="0.2"/>
<path d="M8.95 8.64883C10.3 8.64883 11.35 7.54883 11.35 6.19883C11.35 4.84883 10.25 3.79883 8.9 3.79883C7.55 3.79883 6.5 4.89883 6.5 6.19883C6.5 7.54883 7.6 8.64883 8.95 8.64883ZM8.9 4.79883C8.95 4.79883 8.95 4.79883 8.9 4.79883C9.7 4.79883 10.35 5.44883 10.35 6.24883C10.35 7.04883 9.7 7.64883 8.9 7.64883C8.1 7.64883 7.5 6.99883 7.5 6.24883C7.5 5.44883 8.15 4.79883 8.9 4.79883Z" fill="#828282"/>
<path d="M8.9 4.79883C8.95 4.79883 8.95 4.79883 8.9 4.79883ZM8.9 4.79883C9.7 4.79883 10.35 5.44883 10.35 6.24883C10.35 7.04883 9.7 7.64883 8.9 7.64883C8.1 7.64883 7.5 6.99883 7.5 6.24883C7.5 5.44883 8.15 4.79883 8.9 4.79883ZM8.95 8.64883C10.3 8.64883 11.35 7.54883 11.35 6.19883C11.35 4.84883 10.25 3.79883 8.9 3.79883C7.55 3.79883 6.5 4.89883 6.5 6.19883C6.5 7.54883 7.6 8.64883 8.95 8.64883Z" stroke="#828282" stroke-width="0.2"/>
<path d="M13.05 11.3488L12.95 11.1988C11.95 10.0988 10.55 9.44878 9.05 9.49878C7.55 9.44878 6.1 10.0988 5.1 11.1988L5 11.3488V15.1488C5 15.5988 5.35 15.9988 5.85 15.9988H12.25C12.7 15.9988 13.1 15.5988 13.1 15.1488V11.3488H13.05ZM12.05 14.9988H6V11.6988C6.8 10.8988 7.9 10.4988 9.05 10.4988C10.15 10.4488 11.25 10.8988 12.05 11.6988V14.9988Z" fill="#828282" stroke="#828282" stroke-width="0.2"/>
</g>
<defs>
<clipPath id="clip0_1078_80">
<rect width="18" height="18" fill="white"/>
</clipPath>
</defs>
</svg>
