<svg width="18" height="18" viewBox="0 0 18 18" fill="none" xmlns="http://www.w3.org/2000/svg">
<g clip-path="url(#clip0_1078_53)">
<path fill-rule="evenodd" clip-rule="evenodd" d="M9.75 9.75C10.5456 9.75 11.3087 10.0661 11.8713 10.6287C12.4339 11.1913 12.75 11.9544 12.75 12.75V14.25C12.75 14.4489 12.671 14.6397 12.5303 14.7803C12.3897 14.921 12.1989 15 12 15C11.8011 15 11.6103 14.921 11.4697 14.7803C11.329 14.6397 11.25 14.4489 11.25 14.25V12.75C11.25 12.3522 11.092 11.9706 10.8107 11.6893C10.5294 11.408 10.1478 11.25 9.75 11.25H4.5C4.10218 11.25 3.72064 11.408 3.43934 11.6893C3.15804 11.9706 3 12.3522 3 12.75V14.25C3 14.4489 2.92098 14.6397 2.78033 14.7803C2.63968 14.921 2.44891 15 2.25 15C2.05109 15 1.86032 14.921 1.71967 14.7803C1.57902 14.6397 1.5 14.4489 1.5 14.25V12.75C1.5 11.9544 1.81607 11.1913 2.37868 10.6287C2.94129 10.0661 3.70435 9.75 4.5 9.75H9.75ZM14.25 9.75C14.8467 9.75 15.419 9.98705 15.841 10.409C16.2629 10.831 16.5 11.4033 16.5 12V13.5C16.5 13.6989 16.421 13.8897 16.2803 14.0303C16.1397 14.171 15.9489 14.25 15.75 14.25C15.5511 14.25 15.3603 14.171 15.2197 14.0303C15.079 13.8897 15 13.6989 15 13.5V12C15 11.8011 14.921 11.6103 14.7803 11.4697C14.6397 11.329 14.4489 11.25 14.25 11.25H13.188C12.928 10.6561 12.519 10.1394 12.0007 9.75H14.25ZM7.125 2.25C8.02011 2.25 8.87855 2.60558 9.51149 3.23851C10.1444 3.87145 10.5 4.72989 10.5 5.625C10.5 6.52011 10.1444 7.37855 9.51149 8.01149C8.87855 8.64442 8.02011 9 7.125 9C6.22989 9 5.37145 8.64442 4.73851 8.01149C4.10558 7.37855 3.75 6.52011 3.75 5.625C3.75 4.72989 4.10558 3.87145 4.73851 3.23851C5.37145 2.60558 6.22989 2.25 7.125 2.25ZM13.5 4.5C14.0967 4.5 14.669 4.73705 15.091 5.15901C15.5129 5.58097 15.75 6.15326 15.75 6.75C15.75 7.34674 15.5129 7.91903 15.091 8.34099C14.669 8.76295 14.0967 9 13.5 9C12.9033 9 12.331 8.76295 11.909 8.34099C11.4871 7.91903 11.25 7.34674 11.25 6.75C11.25 6.15326 11.4871 5.58097 11.909 5.15901C12.331 4.73705 12.9033 4.5 13.5 4.5ZM7.125 3.75C6.62772 3.75 6.15081 3.94754 5.79917 4.29917C5.44754 4.65081 5.25 5.12772 5.25 5.625C5.25 6.12228 5.44754 6.59919 5.79917 6.95083C6.15081 7.30246 6.62772 7.5 7.125 7.5C7.62228 7.5 8.09919 7.30246 8.45083 6.95083C8.80246 6.59919 9 6.12228 9 5.625C9 5.12772 8.80246 4.65081 8.45083 4.29917C8.09919 3.94754 7.62228 3.75 7.125 3.75ZM13.5 6C13.3011 6 13.1103 6.07902 12.9697 6.21967C12.829 6.36032 12.75 6.55109 12.75 6.75C12.75 6.94891 12.829 7.13968 12.9697 7.28033C13.1103 7.42098 13.3011 7.5 13.5 7.5C13.6989 7.5 13.8897 7.42098 14.0303 7.28033C14.171 7.13968 14.25 6.94891 14.25 6.75C14.25 6.55109 14.171 6.36032 14.0303 6.21967C13.8897 6.07902 13.6989 6 13.5 6Z" fill="#828282"/>
</g>
<defs>
<clipPath id="clip0_1078_53">
<rect width="18" height="18" fill="white"/>
</clipPath>
</defs>
</svg>
