<svg width="18" height="18" viewBox="0 0 18 18" fill="none" xmlns="http://www.w3.org/2000/svg">
<mask id="path-1-outside-1_1078_8" maskUnits="userSpaceOnUse" x="1.25" y="1.25" width="15" height="15" fill="black">
<rect fill="white" x="1.25" y="1.25" width="15" height="15"/>
<path fill-rule="evenodd" clip-rule="evenodd" d="M4.86169 2.25H5.82581C6.16399 2.25 6.43674 2.24999 6.65876 2.26514C6.88702 2.28072 7.08891 2.31355 7.28004 2.39273C7.73947 2.58303 8.10447 2.94803 8.29477 3.40746C8.37394 3.59859 8.40679 3.80048 8.42237 4.02874C8.4375 4.25076 8.4375 4.52351 8.4375 4.86169V5.82581C8.4375 6.16399 8.4375 6.43677 8.42237 6.65876C8.40679 6.88702 8.37394 7.08891 8.29477 7.28004C8.10447 7.73947 7.73947 8.10447 7.28004 8.29477C7.08891 8.37394 6.88702 8.40679 6.65876 8.42237C6.43674 8.4375 6.16399 8.4375 5.82581 8.4375H4.86169C4.52351 8.4375 4.25076 8.4375 4.02874 8.42237C3.80048 8.40679 3.59859 8.37394 3.40746 8.29477C2.94803 8.10447 2.58303 7.73947 2.39273 7.28004C2.31355 7.08891 2.28072 6.88702 2.26514 6.65876C2.24999 6.43674 2.25 6.16399 2.25 5.82581V4.86169C2.25 4.52351 2.24999 4.25076 2.26514 4.02874C2.28072 3.80048 2.31355 3.59859 2.39273 3.40746C2.58303 2.94803 2.94803 2.58303 3.40746 2.39273C3.59859 2.31355 3.80048 2.28072 4.02874 2.26514C4.25076 2.24999 4.52351 2.25 4.86169 2.25ZM4.07978 3.0134C3.88969 3.02636 3.77899 3.05063 3.69447 3.08562C3.41882 3.19981 3.19981 3.41882 3.08562 3.69447C3.05063 3.77899 3.02636 3.88969 3.0134 4.07978C3.00021 4.27326 3.00001 4.52042 3.00001 4.87499V5.81251C3.00001 6.16708 3.00021 6.41424 3.0134 6.60772C3.02636 6.79781 3.05063 6.90851 3.08562 6.99303C3.19981 7.26868 3.41882 7.48769 3.69447 7.60188C3.77899 7.63687 3.88969 7.66114 4.07978 7.6741C4.27326 7.68729 4.52042 7.68749 4.87499 7.68749H5.81251C6.16708 7.68749 6.41424 7.68729 6.60772 7.6741C6.79781 7.66114 6.90851 7.63687 6.99303 7.60188C7.26868 7.48769 7.48769 7.26868 7.60188 6.99303C7.63687 6.90851 7.66114 6.79781 7.6741 6.60772C7.68729 6.41424 7.68749 6.16708 7.68749 5.81251V4.87499C7.68749 4.52042 7.68729 4.27326 7.6741 4.07978C7.66114 3.88969 7.63687 3.77899 7.60188 3.69447C7.48769 3.41882 7.26868 3.19981 6.99303 3.08562C6.90851 3.05063 6.79781 3.02636 6.60772 3.0134C6.41424 3.00021 6.16708 3.00001 5.81251 3.00001H4.87499C4.52042 3.00001 4.27326 3.00021 4.07978 3.0134ZM4.86169 9.5625H5.82581C6.16399 9.5625 6.43674 9.5625 6.65876 9.57763C6.88702 9.59321 7.08891 9.62606 7.28004 9.70523C7.73947 9.89553 8.10447 10.2605 8.29477 10.72C8.37394 10.9111 8.40679 11.113 8.42237 11.3412C8.4375 11.5633 8.4375 11.836 8.4375 12.1742V13.1383C8.4375 13.4765 8.4375 13.7493 8.42237 13.9713C8.40679 14.1995 8.37394 14.4014 8.29477 14.5925C8.10447 15.052 7.73947 15.417 7.28004 15.6073C7.08891 15.6864 6.88702 15.7193 6.65876 15.7349C6.43674 15.75 6.16399 15.75 5.82581 15.75H4.86169C4.52351 15.75 4.25076 15.75 4.02874 15.7349C3.80048 15.7193 3.59859 15.6864 3.40746 15.6073C2.94803 15.417 2.58303 15.052 2.39273 14.5925C2.31355 14.4014 2.28072 14.1995 2.26514 13.9713C2.24999 13.7492 2.25 13.4765 2.25 13.1383V12.1742C2.25 11.836 2.24999 11.5633 2.26514 11.3412C2.28072 11.113 2.31355 10.9111 2.39273 10.72C2.58303 10.2605 2.94803 9.89553 3.40746 9.70523C3.59859 9.62606 3.80048 9.59321 4.02874 9.57763C4.25076 9.5625 4.52351 9.5625 4.86169 9.5625ZM4.07978 10.3259C3.88969 10.3389 3.77899 10.3631 3.69447 10.3981C3.41882 10.5123 3.19981 10.7313 3.08562 11.007C3.05063 11.0915 3.02636 11.2022 3.0134 11.3923C3.00021 11.5858 3.00001 11.8329 3.00001 12.1875V13.125C3.00001 13.4796 3.00021 13.7267 3.0134 13.9202C3.02636 14.1103 3.05063 14.221 3.08562 14.3055C3.19981 14.5812 3.41882 14.8002 3.69447 14.9144C3.77899 14.9494 3.88969 14.9736 4.07978 14.9866C4.27326 14.9998 4.52042 15 4.87499 15H5.81251C6.16708 15 6.41424 14.9998 6.60772 14.9866C6.79781 14.9736 6.90851 14.9494 6.99303 14.9144C7.26868 14.8002 7.48769 14.5812 7.60188 14.3055C7.63687 14.221 7.66114 14.1103 7.6741 13.9202C7.68729 13.7267 7.68749 13.4796 7.68749 13.125V12.1875C7.68749 11.8329 7.68729 11.5858 7.6741 11.3923C7.66114 11.2022 7.63687 11.0915 7.60188 11.007C7.48769 10.7313 7.26868 10.5123 6.99303 10.3981C6.90851 10.3631 6.79781 10.3389 6.60772 10.3259C6.41424 10.3127 6.16708 10.3125 5.81251 10.3125H4.87499C4.52042 10.3125 4.27326 10.3127 4.07978 10.3259ZM12.1742 2.25H13.1383C13.4765 2.25 13.7492 2.24999 13.9713 2.26514C14.1995 2.28072 14.4014 2.31355 14.5925 2.39273C15.052 2.58303 15.417 2.94803 15.6073 3.40746C15.6864 3.59859 15.7193 3.80048 15.7349 4.02874C15.75 4.25076 15.75 4.52351 15.75 4.86169V5.82581C15.75 6.16399 15.75 6.43677 15.7349 6.65876C15.7193 6.88702 15.6864 7.08891 15.6073 7.28004C15.417 7.73947 15.052 8.10447 14.5925 8.29477C14.4014 8.37394 14.1995 8.40679 13.9713 8.42237C13.7492 8.4375 13.4765 8.4375 13.1383 8.4375H12.1742C11.836 8.4375 11.5633 8.4375 11.3412 8.42237C11.113 8.40679 10.9111 8.37394 10.72 8.29477C10.2605 8.10447 9.89553 7.73947 9.70523 7.28004C9.62606 7.08891 9.59321 6.88702 9.57763 6.65876C9.5625 6.43674 9.5625 6.16399 9.5625 5.82581V4.86169C9.5625 4.52351 9.5625 4.25076 9.57763 4.02874C9.59321 3.80048 9.62606 3.59859 9.70523 3.40746C9.89553 2.94803 10.2605 2.58303 10.72 2.39273C10.9111 2.31355 11.113 2.28072 11.3412 2.26514C11.5633 2.24999 11.836 2.25 12.1742 2.25ZM11.3923 3.0134C11.2022 3.02636 11.0915 3.05063 11.007 3.08562C10.7313 3.19981 10.5123 3.41882 10.3981 3.69447C10.3631 3.77899 10.3389 3.88969 10.3259 4.07978C10.3127 4.27326 10.3125 4.52042 10.3125 4.87499V5.81251C10.3125 6.16708 10.3127 6.41424 10.3259 6.60772C10.3389 6.79781 10.3631 6.90851 10.3981 6.99303C10.5123 7.26868 10.7313 7.48769 11.007 7.60188C11.0915 7.63687 11.2022 7.66114 11.3923 7.6741C11.5858 7.68729 11.8329 7.68749 12.1875 7.68749H13.125C13.4796 7.68749 13.7267 7.68729 13.9202 7.6741C14.1103 7.66114 14.221 7.63687 14.3055 7.60188C14.5812 7.48769 14.8002 7.26868 14.9144 6.99303C14.9494 6.90851 14.9736 6.79781 14.9866 6.60772C14.9998 6.41424 15 6.16708 15 5.81251V4.87499C15 4.52042 14.9998 4.27326 14.9866 4.07978C14.9736 3.88969 14.9494 3.77899 14.9144 3.69447C14.8002 3.41882 14.5812 3.19981 14.3055 3.08562C14.221 3.05063 14.1103 3.02636 13.9202 3.0134C13.7267 3.00021 13.4796 3.00001 13.125 3.00001H12.1875C11.8329 3.00001 11.5858 3.00021 11.3923 3.0134ZM12.1742 9.5625H13.1383C13.4765 9.5625 13.7492 9.5625 13.9713 9.57763C14.1995 9.59321 14.4014 9.62606 14.5925 9.70523C15.052 9.89553 15.417 10.2605 15.6073 10.72C15.6864 10.9111 15.7193 11.113 15.7349 11.3412C15.75 11.5633 15.75 11.836 15.75 12.1742V13.1383C15.75 13.4765 15.75 13.7493 15.7349 13.9713C15.7193 14.1995 15.6864 14.4014 15.6073 14.5925C15.417 15.052 15.052 15.417 14.5925 15.6073C14.4014 15.6864 14.1995 15.7193 13.9713 15.7349C13.7492 15.75 13.4765 15.75 13.1383 15.75H12.1742C11.836 15.75 11.5633 15.75 11.3412 15.7349C11.113 15.7193 10.9111 15.6864 10.72 15.6073C10.2605 15.417 9.89553 15.052 9.70523 14.5925C9.62606 14.4014 9.59321 14.1995 9.57763 13.9713C9.5625 13.7492 9.5625 13.4765 9.5625 13.1383V12.1742C9.5625 11.836 9.5625 11.5633 9.57763 11.3412C9.59321 11.113 9.62606 10.9111 9.70523 10.72C9.89553 10.2605 10.2605 9.89553 10.72 9.70523C10.9111 9.62606 11.113 9.59321 11.3412 9.57763C11.5633 9.5625 11.836 9.5625 12.1742 9.5625ZM11.3923 10.3259C11.2022 10.3389 11.0915 10.3631 11.007 10.3981C10.7313 10.5123 10.5123 10.7313 10.3981 11.007C10.3631 11.0915 10.3389 11.2022 10.3259 11.3923C10.3127 11.5858 10.3125 11.8329 10.3125 12.1875V13.125C10.3125 13.4796 10.3127 13.7267 10.3259 13.9202C10.3389 14.1103 10.3631 14.221 10.3981 14.3055C10.5123 14.5812 10.7313 14.8002 11.007 14.9144C11.0915 14.9494 11.2022 14.9736 11.3923 14.9866C11.5858 14.9998 11.8329 15 12.1875 15H13.125C13.4796 15 13.7267 14.9998 13.9202 14.9866C14.1103 14.9736 14.221 14.9494 14.3055 14.9144C14.5812 14.8002 14.8002 14.5812 14.9144 14.3055C14.9494 14.221 14.9736 14.1103 14.9866 13.9202C14.9998 13.7267 15 13.4796 15 13.125V12.1875C15 11.8329 14.9998 11.5858 14.9866 11.3923C14.9736 11.2022 14.9494 11.0915 14.9144 11.007C14.8002 10.7313 14.5812 10.5123 14.3055 10.3981C14.221 10.3631 14.1103 10.3389 13.9202 10.3259C13.7267 10.3127 13.4796 10.3125 13.125 10.3125H12.1875C11.8329 10.3125 11.5858 10.3127 11.3923 10.3259Z"/>
</mask>
<path fill-rule="evenodd" clip-rule="evenodd" d="M4.86169 2.25H5.82581C6.16399 2.25 6.43674 2.24999 6.65876 2.26514C6.88702 2.28072 7.08891 2.31355 7.28004 2.39273C7.73947 2.58303 8.10447 2.94803 8.29477 3.40746C8.37394 3.59859 8.40679 3.80048 8.42237 4.02874C8.4375 4.25076 8.4375 4.52351 8.4375 4.86169V5.82581C8.4375 6.16399 8.4375 6.43677 8.42237 6.65876C8.40679 6.88702 8.37394 7.08891 8.29477 7.28004C8.10447 7.73947 7.73947 8.10447 7.28004 8.29477C7.08891 8.37394 6.88702 8.40679 6.65876 8.42237C6.43674 8.4375 6.16399 8.4375 5.82581 8.4375H4.86169C4.52351 8.4375 4.25076 8.4375 4.02874 8.42237C3.80048 8.40679 3.59859 8.37394 3.40746 8.29477C2.94803 8.10447 2.58303 7.73947 2.39273 7.28004C2.31355 7.08891 2.28072 6.88702 2.26514 6.65876C2.24999 6.43674 2.25 6.16399 2.25 5.82581V4.86169C2.25 4.52351 2.24999 4.25076 2.26514 4.02874C2.28072 3.80048 2.31355 3.59859 2.39273 3.40746C2.58303 2.94803 2.94803 2.58303 3.40746 2.39273C3.59859 2.31355 3.80048 2.28072 4.02874 2.26514C4.25076 2.24999 4.52351 2.25 4.86169 2.25ZM4.07978 3.0134C3.88969 3.02636 3.77899 3.05063 3.69447 3.08562C3.41882 3.19981 3.19981 3.41882 3.08562 3.69447C3.05063 3.77899 3.02636 3.88969 3.0134 4.07978C3.00021 4.27326 3.00001 4.52042 3.00001 4.87499V5.81251C3.00001 6.16708 3.00021 6.41424 3.0134 6.60772C3.02636 6.79781 3.05063 6.90851 3.08562 6.99303C3.19981 7.26868 3.41882 7.48769 3.69447 7.60188C3.77899 7.63687 3.88969 7.66114 4.07978 7.6741C4.27326 7.68729 4.52042 7.68749 4.87499 7.68749H5.81251C6.16708 7.68749 6.41424 7.68729 6.60772 7.6741C6.79781 7.66114 6.90851 7.63687 6.99303 7.60188C7.26868 7.48769 7.48769 7.26868 7.60188 6.99303C7.63687 6.90851 7.66114 6.79781 7.6741 6.60772C7.68729 6.41424 7.68749 6.16708 7.68749 5.81251V4.87499C7.68749 4.52042 7.68729 4.27326 7.6741 4.07978C7.66114 3.88969 7.63687 3.77899 7.60188 3.69447C7.48769 3.41882 7.26868 3.19981 6.99303 3.08562C6.90851 3.05063 6.79781 3.02636 6.60772 3.0134C6.41424 3.00021 6.16708 3.00001 5.81251 3.00001H4.87499C4.52042 3.00001 4.27326 3.00021 4.07978 3.0134ZM4.86169 9.5625H5.82581C6.16399 9.5625 6.43674 9.5625 6.65876 9.57763C6.88702 9.59321 7.08891 9.62606 7.28004 9.70523C7.73947 9.89553 8.10447 10.2605 8.29477 10.72C8.37394 10.9111 8.40679 11.113 8.42237 11.3412C8.4375 11.5633 8.4375 11.836 8.4375 12.1742V13.1383C8.4375 13.4765 8.4375 13.7493 8.42237 13.9713C8.40679 14.1995 8.37394 14.4014 8.29477 14.5925C8.10447 15.052 7.73947 15.417 7.28004 15.6073C7.08891 15.6864 6.88702 15.7193 6.65876 15.7349C6.43674 15.75 6.16399 15.75 5.82581 15.75H4.86169C4.52351 15.75 4.25076 15.75 4.02874 15.7349C3.80048 15.7193 3.59859 15.6864 3.40746 15.6073C2.94803 15.417 2.58303 15.052 2.39273 14.5925C2.31355 14.4014 2.28072 14.1995 2.26514 13.9713C2.24999 13.7492 2.25 13.4765 2.25 13.1383V12.1742C2.25 11.836 2.24999 11.5633 2.26514 11.3412C2.28072 11.113 2.31355 10.9111 2.39273 10.72C2.58303 10.2605 2.94803 9.89553 3.40746 9.70523C3.59859 9.62606 3.80048 9.59321 4.02874 9.57763C4.25076 9.5625 4.52351 9.5625 4.86169 9.5625ZM4.07978 10.3259C3.88969 10.3389 3.77899 10.3631 3.69447 10.3981C3.41882 10.5123 3.19981 10.7313 3.08562 11.007C3.05063 11.0915 3.02636 11.2022 3.0134 11.3923C3.00021 11.5858 3.00001 11.8329 3.00001 12.1875V13.125C3.00001 13.4796 3.00021 13.7267 3.0134 13.9202C3.02636 14.1103 3.05063 14.221 3.08562 14.3055C3.19981 14.5812 3.41882 14.8002 3.69447 14.9144C3.77899 14.9494 3.88969 14.9736 4.07978 14.9866C4.27326 14.9998 4.52042 15 4.87499 15H5.81251C6.16708 15 6.41424 14.9998 6.60772 14.9866C6.79781 14.9736 6.90851 14.9494 6.99303 14.9144C7.26868 14.8002 7.48769 14.5812 7.60188 14.3055C7.63687 14.221 7.66114 14.1103 7.6741 13.9202C7.68729 13.7267 7.68749 13.4796 7.68749 13.125V12.1875C7.68749 11.8329 7.68729 11.5858 7.6741 11.3923C7.66114 11.2022 7.63687 11.0915 7.60188 11.007C7.48769 10.7313 7.26868 10.5123 6.99303 10.3981C6.90851 10.3631 6.79781 10.3389 6.60772 10.3259C6.41424 10.3127 6.16708 10.3125 5.81251 10.3125H4.87499C4.52042 10.3125 4.27326 10.3127 4.07978 10.3259ZM12.1742 2.25H13.1383C13.4765 2.25 13.7492 2.24999 13.9713 2.26514C14.1995 2.28072 14.4014 2.31355 14.5925 2.39273C15.052 2.58303 15.417 2.94803 15.6073 3.40746C15.6864 3.59859 15.7193 3.80048 15.7349 4.02874C15.75 4.25076 15.75 4.52351 15.75 4.86169V5.82581C15.75 6.16399 15.75 6.43677 15.7349 6.65876C15.7193 6.88702 15.6864 7.08891 15.6073 7.28004C15.417 7.73947 15.052 8.10447 14.5925 8.29477C14.4014 8.37394 14.1995 8.40679 13.9713 8.42237C13.7492 8.4375 13.4765 8.4375 13.1383 8.4375H12.1742C11.836 8.4375 11.5633 8.4375 11.3412 8.42237C11.113 8.40679 10.9111 8.37394 10.72 8.29477C10.2605 8.10447 9.89553 7.73947 9.70523 7.28004C9.62606 7.08891 9.59321 6.88702 9.57763 6.65876C9.5625 6.43674 9.5625 6.16399 9.5625 5.82581V4.86169C9.5625 4.52351 9.5625 4.25076 9.57763 4.02874C9.59321 3.80048 9.62606 3.59859 9.70523 3.40746C9.89553 2.94803 10.2605 2.58303 10.72 2.39273C10.9111 2.31355 11.113 2.28072 11.3412 2.26514C11.5633 2.24999 11.836 2.25 12.1742 2.25ZM11.3923 3.0134C11.2022 3.02636 11.0915 3.05063 11.007 3.08562C10.7313 3.19981 10.5123 3.41882 10.3981 3.69447C10.3631 3.77899 10.3389 3.88969 10.3259 4.07978C10.3127 4.27326 10.3125 4.52042 10.3125 4.87499V5.81251C10.3125 6.16708 10.3127 6.41424 10.3259 6.60772C10.3389 6.79781 10.3631 6.90851 10.3981 6.99303C10.5123 7.26868 10.7313 7.48769 11.007 7.60188C11.0915 7.63687 11.2022 7.66114 11.3923 7.6741C11.5858 7.68729 11.8329 7.68749 12.1875 7.68749H13.125C13.4796 7.68749 13.7267 7.68729 13.9202 7.6741C14.1103 7.66114 14.221 7.63687 14.3055 7.60188C14.5812 7.48769 14.8002 7.26868 14.9144 6.99303C14.9494 6.90851 14.9736 6.79781 14.9866 6.60772C14.9998 6.41424 15 6.16708 15 5.81251V4.87499C15 4.52042 14.9998 4.27326 14.9866 4.07978C14.9736 3.88969 14.9494 3.77899 14.9144 3.69447C14.8002 3.41882 14.5812 3.19981 14.3055 3.08562C14.221 3.05063 14.1103 3.02636 13.9202 3.0134C13.7267 3.00021 13.4796 3.00001 13.125 3.00001H12.1875C11.8329 3.00001 11.5858 3.00021 11.3923 3.0134ZM12.1742 9.5625H13.1383C13.4765 9.5625 13.7492 9.5625 13.9713 9.57763C14.1995 9.59321 14.4014 9.62606 14.5925 9.70523C15.052 9.89553 15.417 10.2605 15.6073 10.72C15.6864 10.9111 15.7193 11.113 15.7349 11.3412C15.75 11.5633 15.75 11.836 15.75 12.1742V13.1383C15.75 13.4765 15.75 13.7493 15.7349 13.9713C15.7193 14.1995 15.6864 14.4014 15.6073 14.5925C15.417 15.052 15.052 15.417 14.5925 15.6073C14.4014 15.6864 14.1995 15.7193 13.9713 15.7349C13.7492 15.75 13.4765 15.75 13.1383 15.75H12.1742C11.836 15.75 11.5633 15.75 11.3412 15.7349C11.113 15.7193 10.9111 15.6864 10.72 15.6073C10.2605 15.417 9.89553 15.052 9.70523 14.5925C9.62606 14.4014 9.59321 14.1995 9.57763 13.9713C9.5625 13.7492 9.5625 13.4765 9.5625 13.1383V12.1742C9.5625 11.836 9.5625 11.5633 9.57763 11.3412C9.59321 11.113 9.62606 10.9111 9.70523 10.72C9.89553 10.2605 10.2605 9.89553 10.72 9.70523C10.9111 9.62606 11.113 9.59321 11.3412 9.57763C11.5633 9.5625 11.836 9.5625 12.1742 9.5625ZM11.3923 10.3259C11.2022 10.3389 11.0915 10.3631 11.007 10.3981C10.7313 10.5123 10.5123 10.7313 10.3981 11.007C10.3631 11.0915 10.3389 11.2022 10.3259 11.3923C10.3127 11.5858 10.3125 11.8329 10.3125 12.1875V13.125C10.3125 13.4796 10.3127 13.7267 10.3259 13.9202C10.3389 14.1103 10.3631 14.221 10.3981 14.3055C10.5123 14.5812 10.7313 14.8002 11.007 14.9144C11.0915 14.9494 11.2022 14.9736 11.3923 14.9866C11.5858 14.9998 11.8329 15 12.1875 15H13.125C13.4796 15 13.7267 14.9998 13.9202 14.9866C14.1103 14.9736 14.221 14.9494 14.3055 14.9144C14.5812 14.8002 14.8002 14.5812 14.9144 14.3055C14.9494 14.221 14.9736 14.1103 14.9866 13.9202C14.9998 13.7267 15 13.4796 15 13.125V12.1875C15 11.8329 14.9998 11.5858 14.9866 11.3923C14.9736 11.2022 14.9494 11.0915 14.9144 11.007C14.8002 10.7313 14.5812 10.5123 14.3055 10.3981C14.221 10.3631 14.1103 10.3389 13.9202 10.3259C13.7267 10.3127 13.4796 10.3125 13.125 10.3125H12.1875C11.8329 10.3125 11.5858 10.3127 11.3923 10.3259Z" fill="#828282"/>
<path fill-rule="evenodd" clip-rule="evenodd" d="M4.86169 2.25H5.82581C6.16399 2.25 6.43674 2.24999 6.65876 2.26514C6.88702 2.28072 7.08891 2.31355 7.28004 2.39273C7.73947 2.58303 8.10447 2.94803 8.29477 3.40746C8.37394 3.59859 8.40679 3.80048 8.42237 4.02874C8.4375 4.25076 8.4375 4.52351 8.4375 4.86169V5.82581C8.4375 6.16399 8.4375 6.43677 8.42237 6.65876C8.40679 6.88702 8.37394 7.08891 8.29477 7.28004C8.10447 7.73947 7.73947 8.10447 7.28004 8.29477C7.08891 8.37394 6.88702 8.40679 6.65876 8.42237C6.43674 8.4375 6.16399 8.4375 5.82581 8.4375H4.86169C4.52351 8.4375 4.25076 8.4375 4.02874 8.42237C3.80048 8.40679 3.59859 8.37394 3.40746 8.29477C2.94803 8.10447 2.58303 7.73947 2.39273 7.28004C2.31355 7.08891 2.28072 6.88702 2.26514 6.65876C2.24999 6.43674 2.25 6.16399 2.25 5.82581V4.86169C2.25 4.52351 2.24999 4.25076 2.26514 4.02874C2.28072 3.80048 2.31355 3.59859 2.39273 3.40746C2.58303 2.94803 2.94803 2.58303 3.40746 2.39273C3.59859 2.31355 3.80048 2.28072 4.02874 2.26514C4.25076 2.24999 4.52351 2.25 4.86169 2.25ZM4.07978 3.0134C3.88969 3.02636 3.77899 3.05063 3.69447 3.08562C3.41882 3.19981 3.19981 3.41882 3.08562 3.69447C3.05063 3.77899 3.02636 3.88969 3.0134 4.07978C3.00021 4.27326 3.00001 4.52042 3.00001 4.87499V5.81251C3.00001 6.16708 3.00021 6.41424 3.0134 6.60772C3.02636 6.79781 3.05063 6.90851 3.08562 6.99303C3.19981 7.26868 3.41882 7.48769 3.69447 7.60188C3.77899 7.63687 3.88969 7.66114 4.07978 7.6741C4.27326 7.68729 4.52042 7.68749 4.87499 7.68749H5.81251C6.16708 7.68749 6.41424 7.68729 6.60772 7.6741C6.79781 7.66114 6.90851 7.63687 6.99303 7.60188C7.26868 7.48769 7.48769 7.26868 7.60188 6.99303C7.63687 6.90851 7.66114 6.79781 7.6741 6.60772C7.68729 6.41424 7.68749 6.16708 7.68749 5.81251V4.87499C7.68749 4.52042 7.68729 4.27326 7.6741 4.07978C7.66114 3.88969 7.63687 3.77899 7.60188 3.69447C7.48769 3.41882 7.26868 3.19981 6.99303 3.08562C6.90851 3.05063 6.79781 3.02636 6.60772 3.0134C6.41424 3.00021 6.16708 3.00001 5.81251 3.00001H4.87499C4.52042 3.00001 4.27326 3.00021 4.07978 3.0134ZM4.86169 9.5625H5.82581C6.16399 9.5625 6.43674 9.5625 6.65876 9.57763C6.88702 9.59321 7.08891 9.62606 7.28004 9.70523C7.73947 9.89553 8.10447 10.2605 8.29477 10.72C8.37394 10.9111 8.40679 11.113 8.42237 11.3412C8.4375 11.5633 8.4375 11.836 8.4375 12.1742V13.1383C8.4375 13.4765 8.4375 13.7493 8.42237 13.9713C8.40679 14.1995 8.37394 14.4014 8.29477 14.5925C8.10447 15.052 7.73947 15.417 7.28004 15.6073C7.08891 15.6864 6.88702 15.7193 6.65876 15.7349C6.43674 15.75 6.16399 15.75 5.82581 15.75H4.86169C4.52351 15.75 4.25076 15.75 4.02874 15.7349C3.80048 15.7193 3.59859 15.6864 3.40746 15.6073C2.94803 15.417 2.58303 15.052 2.39273 14.5925C2.31355 14.4014 2.28072 14.1995 2.26514 13.9713C2.24999 13.7492 2.25 13.4765 2.25 13.1383V12.1742C2.25 11.836 2.24999 11.5633 2.26514 11.3412C2.28072 11.113 2.31355 10.9111 2.39273 10.72C2.58303 10.2605 2.94803 9.89553 3.40746 9.70523C3.59859 9.62606 3.80048 9.59321 4.02874 9.57763C4.25076 9.5625 4.52351 9.5625 4.86169 9.5625ZM4.07978 10.3259C3.88969 10.3389 3.77899 10.3631 3.69447 10.3981C3.41882 10.5123 3.19981 10.7313 3.08562 11.007C3.05063 11.0915 3.02636 11.2022 3.0134 11.3923C3.00021 11.5858 3.00001 11.8329 3.00001 12.1875V13.125C3.00001 13.4796 3.00021 13.7267 3.0134 13.9202C3.02636 14.1103 3.05063 14.221 3.08562 14.3055C3.19981 14.5812 3.41882 14.8002 3.69447 14.9144C3.77899 14.9494 3.88969 14.9736 4.07978 14.9866C4.27326 14.9998 4.52042 15 4.87499 15H5.81251C6.16708 15 6.41424 14.9998 6.60772 14.9866C6.79781 14.9736 6.90851 14.9494 6.99303 14.9144C7.26868 14.8002 7.48769 14.5812 7.60188 14.3055C7.63687 14.221 7.66114 14.1103 7.6741 13.9202C7.68729 13.7267 7.68749 13.4796 7.68749 13.125V12.1875C7.68749 11.8329 7.68729 11.5858 7.6741 11.3923C7.66114 11.2022 7.63687 11.0915 7.60188 11.007C7.48769 10.7313 7.26868 10.5123 6.99303 10.3981C6.90851 10.3631 6.79781 10.3389 6.60772 10.3259C6.41424 10.3127 6.16708 10.3125 5.81251 10.3125H4.87499C4.52042 10.3125 4.27326 10.3127 4.07978 10.3259ZM12.1742 2.25H13.1383C13.4765 2.25 13.7492 2.24999 13.9713 2.26514C14.1995 2.28072 14.4014 2.31355 14.5925 2.39273C15.052 2.58303 15.417 2.94803 15.6073 3.40746C15.6864 3.59859 15.7193 3.80048 15.7349 4.02874C15.75 4.25076 15.75 4.52351 15.75 4.86169V5.82581C15.75 6.16399 15.75 6.43677 15.7349 6.65876C15.7193 6.88702 15.6864 7.08891 15.6073 7.28004C15.417 7.73947 15.052 8.10447 14.5925 8.29477C14.4014 8.37394 14.1995 8.40679 13.9713 8.42237C13.7492 8.4375 13.4765 8.4375 13.1383 8.4375H12.1742C11.836 8.4375 11.5633 8.4375 11.3412 8.42237C11.113 8.40679 10.9111 8.37394 10.72 8.29477C10.2605 8.10447 9.89553 7.73947 9.70523 7.28004C9.62606 7.08891 9.59321 6.88702 9.57763 6.65876C9.5625 6.43674 9.5625 6.16399 9.5625 5.82581V4.86169C9.5625 4.52351 9.5625 4.25076 9.57763 4.02874C9.59321 3.80048 9.62606 3.59859 9.70523 3.40746C9.89553 2.94803 10.2605 2.58303 10.72 2.39273C10.9111 2.31355 11.113 2.28072 11.3412 2.26514C11.5633 2.24999 11.836 2.25 12.1742 2.25ZM11.3923 3.0134C11.2022 3.02636 11.0915 3.05063 11.007 3.08562C10.7313 3.19981 10.5123 3.41882 10.3981 3.69447C10.3631 3.77899 10.3389 3.88969 10.3259 4.07978C10.3127 4.27326 10.3125 4.52042 10.3125 4.87499V5.81251C10.3125 6.16708 10.3127 6.41424 10.3259 6.60772C10.3389 6.79781 10.3631 6.90851 10.3981 6.99303C10.5123 7.26868 10.7313 7.48769 11.007 7.60188C11.0915 7.63687 11.2022 7.66114 11.3923 7.6741C11.5858 7.68729 11.8329 7.68749 12.1875 7.68749H13.125C13.4796 7.68749 13.7267 7.68729 13.9202 7.6741C14.1103 7.66114 14.221 7.63687 14.3055 7.60188C14.5812 7.48769 14.8002 7.26868 14.9144 6.99303C14.9494 6.90851 14.9736 6.79781 14.9866 6.60772C14.9998 6.41424 15 6.16708 15 5.81251V4.87499C15 4.52042 14.9998 4.27326 14.9866 4.07978C14.9736 3.88969 14.9494 3.77899 14.9144 3.69447C14.8002 3.41882 14.5812 3.19981 14.3055 3.08562C14.221 3.05063 14.1103 3.02636 13.9202 3.0134C13.7267 3.00021 13.4796 3.00001 13.125 3.00001H12.1875C11.8329 3.00001 11.5858 3.00021 11.3923 3.0134ZM12.1742 9.5625H13.1383C13.4765 9.5625 13.7492 9.5625 13.9713 9.57763C14.1995 9.59321 14.4014 9.62606 14.5925 9.70523C15.052 9.89553 15.417 10.2605 15.6073 10.72C15.6864 10.9111 15.7193 11.113 15.7349 11.3412C15.75 11.5633 15.75 11.836 15.75 12.1742V13.1383C15.75 13.4765 15.75 13.7493 15.7349 13.9713C15.7193 14.1995 15.6864 14.4014 15.6073 14.5925C15.417 15.052 15.052 15.417 14.5925 15.6073C14.4014 15.6864 14.1995 15.7193 13.9713 15.7349C13.7492 15.75 13.4765 15.75 13.1383 15.75H12.1742C11.836 15.75 11.5633 15.75 11.3412 15.7349C11.113 15.7193 10.9111 15.6864 10.72 15.6073C10.2605 15.417 9.89553 15.052 9.70523 14.5925C9.62606 14.4014 9.59321 14.1995 9.57763 13.9713C9.5625 13.7492 9.5625 13.4765 9.5625 13.1383V12.1742C9.5625 11.836 9.5625 11.5633 9.57763 11.3412C9.59321 11.113 9.62606 10.9111 9.70523 10.72C9.89553 10.2605 10.2605 9.89553 10.72 9.70523C10.9111 9.62606 11.113 9.59321 11.3412 9.57763C11.5633 9.5625 11.836 9.5625 12.1742 9.5625ZM11.3923 10.3259C11.2022 10.3389 11.0915 10.3631 11.007 10.3981C10.7313 10.5123 10.5123 10.7313 10.3981 11.007C10.3631 11.0915 10.3389 11.2022 10.3259 11.3923C10.3127 11.5858 10.3125 11.8329 10.3125 12.1875V13.125C10.3125 13.4796 10.3127 13.7267 10.3259 13.9202C10.3389 14.1103 10.3631 14.221 10.3981 14.3055C10.5123 14.5812 10.7313 14.8002 11.007 14.9144C11.0915 14.9494 11.2022 14.9736 11.3923 14.9866C11.5858 14.9998 11.8329 15 12.1875 15H13.125C13.4796 15 13.7267 14.9998 13.9202 14.9866C14.1103 14.9736 14.221 14.9494 14.3055 14.9144C14.5812 14.8002 14.8002 14.5812 14.9144 14.3055C14.9494 14.221 14.9736 14.1103 14.9866 13.9202C14.9998 13.7267 15 13.4796 15 13.125V12.1875C15 11.8329 14.9998 11.5858 14.9866 11.3923C14.9736 11.2022 14.9494 11.0915 14.9144 11.007C14.8002 10.7313 14.5812 10.5123 14.3055 10.3981C14.221 10.3631 14.1103 10.3389 13.9202 10.3259C13.7267 10.3127 13.4796 10.3125 13.125 10.3125H12.1875C11.8329 10.3125 11.5858 10.3127 11.3923 10.3259Z" stroke="#828282" stroke-width="0.4" mask="url(#path-1-outside-1_1078_8)"/>
</svg>
