<svg width="18" height="18" viewBox="0 0 18 18" fill="none" xmlns="http://www.w3.org/2000/svg">
<path fill-rule="evenodd" clip-rule="evenodd" d="M16.1431 7.31552C15.6638 4.36547 13.1581 2.17079 10.1706 2.0844C10.0285 2.07883 9.89009 2.12997 9.78579 2.22655C9.68148 2.32313 9.61986 2.45722 9.6145 2.59927V2.64732L9.95089 7.67936C9.97295 8.0181 10.2642 8.2756 10.6031 8.25602L15.6488 7.91964C15.791 7.90912 15.9231 7.84235 16.0159 7.7341C16.1087 7.62586 16.1545 7.48509 16.1431 7.34298V7.31552Z" stroke="#828282" stroke-width="1.2" stroke-linecap="round" stroke-linejoin="round"/>
<path d="M6.67625 5.07829C6.99722 5.00404 7.32568 5.16827 7.45886 5.46959C7.49375 5.54046 7.51472 5.61736 7.52065 5.69613C7.5893 6.67096 7.73346 8.80597 7.81584 9.95929C7.82991 10.167 7.92619 10.3606 8.08337 10.4972C8.24056 10.6338 8.44569 10.7021 8.65337 10.687L12.8891 10.4261C13.0782 10.4147 13.2636 10.482 13.4013 10.612C13.5391 10.742 13.6171 10.9232 13.6168 11.1126C13.4451 13.6704 11.6074 15.8087 9.10453 16.3629C6.60163 16.9172 4.03301 15.7547 2.79754 13.5085C2.42872 12.862 2.19516 12.1473 2.11104 11.4078C2.07507 11.1808 2.06128 10.9509 2.06985 10.7213C2.07713 7.98981 3.99548 5.63626 6.66939 5.07829" stroke="#828282" stroke-width="1.2" stroke-linecap="round" stroke-linejoin="round"/>
</svg>
