<svg width="18" height="18" viewBox="0 0 18 18" fill="none" xmlns="http://www.w3.org/2000/svg">
<path d="M16.0312 3.81696C16.2187 4.00446 16.3795 4.25893 16.5134 4.58036C16.6473 4.90179 16.7143 5.19643 16.7143 5.46429V17.0357C16.7143 17.3036 16.6205 17.5312 16.433 17.7188C16.2455 17.9062 16.0178 18 15.75 18H2.24999C1.98213 18 1.75446 17.9062 1.56696 17.7188C1.37946 17.5312 1.28571 17.3036 1.28571 17.0357V0.964286C1.28571 0.696429 1.37946 0.46875 1.56696 0.28125C1.75446 0.09375 1.98213 0 2.24999 0H11.25C11.5178 0 11.8125 0.0669643 12.1339 0.200893C12.4553 0.334821 12.7098 0.495536 12.8973 0.683036L16.0312 3.81696ZM11.5714 1.36607V5.14286H15.3482C15.2812 4.94866 15.2076 4.81138 15.1272 4.73103L11.9832 1.58705C11.9029 1.5067 11.7656 1.43304 11.5714 1.36607ZM15.4286 16.7143V6.42857H11.25C10.9821 6.42857 10.7545 6.33482 10.567 6.14732C10.3795 5.95982 10.2857 5.73214 10.2857 5.46429V1.28571H2.57142V16.7143H15.4286ZM5.14285 8.03571C5.14285 7.94196 5.17298 7.86496 5.23325 7.80469C5.29352 7.74442 5.37053 7.71429 5.46428 7.71429H12.5357C12.6295 7.71429 12.7065 7.74442 12.7667 7.80469C12.827 7.86496 12.8571 7.94196 12.8571 8.03571V8.67857C12.8571 8.77232 12.827 8.84933 12.7667 8.9096C12.7065 8.96987 12.6295 9 12.5357 9H5.46428C5.37053 9 5.29352 8.96987 5.23325 8.9096C5.17298 8.84933 5.14285 8.77232 5.14285 8.67857V8.03571ZM12.5357 10.2857C12.6295 10.2857 12.7065 10.3158 12.7667 10.3761C12.827 10.4364 12.8571 10.5134 12.8571 10.6071V11.25C12.8571 11.3438 12.827 11.4208 12.7667 11.481C12.7065 11.5413 12.6295 11.5714 12.5357 11.5714H5.46428C5.37053 11.5714 5.29352 11.5413 5.23325 11.481C5.17298 11.4208 5.14285 11.3438 5.14285 11.25V10.6071C5.14285 10.5134 5.17298 10.4364 5.23325 10.3761C5.29352 10.3158 5.37053 10.2857 5.46428 10.2857H12.5357ZM12.5357 12.8571C12.6295 12.8571 12.7065 12.8873 12.7667 12.9475C12.827 13.0078 12.8571 13.0848 12.8571 13.1786V13.8214C12.8571 13.9152 12.827 13.9922 12.7667 14.0525C12.7065 14.1127 12.6295 14.1429 12.5357 14.1429H5.46428C5.37053 14.1429 5.29352 14.1127 5.23325 14.0525C5.17298 13.9922 5.14285 13.9152 5.14285 13.8214V13.1786C5.14285 13.0848 5.17298 13.0078 5.23325 12.9475C5.29352 12.8873 5.37053 12.8571 5.46428 12.8571H12.5357Z" fill="#828282"/>
</svg>
