<svg width="18" height="18" viewBox="0 0 18 18" fill="none" xmlns="http://www.w3.org/2000/svg">
<path d="M5.39995 8.4H4.79995V9.6H5.39995V8.4ZM12.6 9.6H13.2V8.4H12.6V9.6ZM10.2 12H9.59995V13.2H10.2V12ZM12.6 13.2H13.2V12H12.6V13.2ZM5.39995 4.8H4.79995V6H5.39995V4.8ZM7.79995 6H8.39995V4.8H7.79995V6ZM12.6 0.6L13.0248 0.1752L12.8484 0H12.6V0.6ZM16.2 4.2H16.8V3.9516L16.6248 3.7752L16.2 4.2ZM5.39995 9.6H12.6V8.4H5.39995V9.6ZM10.2 13.2H12.6V12H10.2V13.2ZM5.39995 6H7.79995V4.8H5.39995V6ZM15 16.8H2.99995V18H15V16.8ZM2.39995 16.2V1.8H1.19995V16.2H2.39995ZM2.99995 1.2H12.6V0H2.99995V1.2ZM15.6 4.2V16.2H16.8V4.2H15.6ZM12.1752 1.0248L15.7752 4.6248L16.6248 3.7752L13.0248 0.1752L12.1752 1.0248ZM2.99995 16.8C2.84082 16.8 2.68821 16.7368 2.57569 16.6243C2.46317 16.5117 2.39995 16.3591 2.39995 16.2H1.19995C1.19995 16.6774 1.38959 17.1352 1.72716 17.4728C2.06472 17.8104 2.52256 18 2.99995 18V16.8ZM15 18C15.4773 18 15.9352 17.8104 16.2727 17.4728C16.6103 17.1352 16.8 16.6774 16.8 16.2H15.6C15.6 16.3591 15.5367 16.5117 15.4242 16.6243C15.3117 16.7368 15.1591 16.8 15 16.8V18ZM2.39995 1.8C2.39995 1.64087 2.46317 1.48826 2.57569 1.37574C2.68821 1.26321 2.84082 1.2 2.99995 1.2V0C2.52256 0 2.06472 0.189642 1.72716 0.527208C1.38959 0.864773 1.19995 1.32261 1.19995 1.8H2.39995Z" fill="#828282"/>
</svg>
