<svg width="18" height="18" viewBox="0 0 18 18" fill="none" xmlns="http://www.w3.org/2000/svg">
<path d="M5.40001 8.4H4.80001V9.6H5.40001V8.4ZM12.6 9.6H13.2V8.4H12.6V9.6ZM10.2 12H9.60001V13.2H10.2V12ZM12.6 13.2H13.2V12H12.6V13.2ZM5.40001 4.8H4.80001V6H5.40001V4.8ZM7.80001 6H8.40001V4.8H7.80001V6ZM12.6 0.6L13.0248 0.1752L12.8484 0H12.6V0.6ZM16.2 4.2H16.8V3.9516L16.6248 3.7752L16.2 4.2ZM5.40001 9.6H12.6V8.4H5.40001V9.6ZM10.2 13.2H12.6V12H10.2V13.2ZM5.40001 6H7.80001V4.8H5.40001V6ZM15 16.8H3.00001V18H15V16.8ZM2.40001 16.2V1.8H1.20001V16.2H2.40001ZM3.00001 1.2H12.6V0H3.00001V1.2ZM15.6 4.2V16.2H16.8V4.2H15.6ZM12.1752 1.0248L15.7752 4.6248L16.6248 3.7752L13.0248 0.1752L12.1752 1.0248ZM3.00001 16.8C2.84088 16.8 2.68827 16.7368 2.57575 16.6243C2.46323 16.5117 2.40001 16.3591 2.40001 16.2H1.20001C1.20001 16.6774 1.38965 17.1352 1.72722 17.4728C2.06479 17.8104 2.52262 18 3.00001 18V16.8ZM15 18C15.4774 18 15.9352 17.8104 16.2728 17.4728C16.6104 17.1352 16.8 16.6774 16.8 16.2H15.6C15.6 16.3591 15.5368 16.5117 15.4243 16.6243C15.3118 16.7368 15.1591 16.8 15 16.8V18ZM2.40001 1.8C2.40001 1.64087 2.46323 1.48826 2.57575 1.37574C2.68827 1.26321 2.84088 1.2 3.00001 1.2V0C2.52262 0 2.06479 0.189642 1.72722 0.527208C1.38965 0.864773 1.20001 1.32261 1.20001 1.8H2.40001Z" fill="#828282"/>
</svg>
