<svg width="18" height="18" viewBox="0 0 18 18" fill="none" xmlns="http://www.w3.org/2000/svg">
<path d="M6.0325 6.27876L7.75 4.55376V11.7463C7.75 11.9452 7.82902 12.1359 7.96967 12.2766C8.11032 12.4172 8.30109 12.4963 8.5 12.4963C8.69891 12.4963 8.88968 12.4172 9.03033 12.2766C9.17098 12.1359 9.25 11.9452 9.25 11.7463V4.55376L10.9675 6.27876C11.0372 6.34906 11.1202 6.40485 11.2116 6.44293C11.303 6.48101 11.401 6.50061 11.5 6.50061C11.599 6.50061 11.697 6.48101 11.7884 6.44293C11.8798 6.40485 11.9628 6.34906 12.0325 6.27876C12.1028 6.20904 12.1586 6.12609 12.1967 6.03469C12.2347 5.9433 12.2543 5.84527 12.2543 5.74626C12.2543 5.64725 12.2347 5.54922 12.1967 5.45783C12.1586 5.36643 12.1028 5.28348 12.0325 5.21376L9.0325 2.21376C8.96117 2.14548 8.87706 2.09196 8.785 2.05626C8.6024 1.98125 8.3976 1.98125 8.215 2.05626C8.12294 2.09196 8.03883 2.14548 7.9675 2.21376L4.9675 5.21376C4.89757 5.28369 4.8421 5.36671 4.80426 5.45807C4.76641 5.54944 4.74693 5.64737 4.74693 5.74626C4.74693 5.84515 4.76641 5.94308 4.80426 6.03445C4.8421 6.12581 4.89757 6.20883 4.9675 6.27876C5.03743 6.34869 5.12045 6.40416 5.21181 6.44201C5.30318 6.47985 5.40111 6.49933 5.5 6.49933C5.59889 6.49933 5.69682 6.47985 5.78819 6.44201C5.87955 6.40416 5.96257 6.34869 6.0325 6.27876ZM15.25 10.9963C15.0511 10.9963 14.8603 11.0753 14.7197 11.2159C14.579 11.3566 14.5 11.5473 14.5 11.7463V14.7463C14.5 14.9452 14.421 15.1359 14.2803 15.2766C14.1397 15.4172 13.9489 15.4963 13.75 15.4963H3.25C3.05109 15.4963 2.86032 15.4172 2.71967 15.2766C2.57902 15.1359 2.5 14.9452 2.5 14.7463V11.7463C2.5 11.5473 2.42098 11.3566 2.28033 11.2159C2.13968 11.0753 1.94891 10.9963 1.75 10.9963C1.55109 10.9963 1.36032 11.0753 1.21967 11.2159C1.07902 11.3566 1 11.5473 1 11.7463V14.7463C1 15.343 1.23705 15.9153 1.65901 16.3373C2.08097 16.7592 2.65326 16.9963 3.25 16.9963H13.75C14.3467 16.9963 14.919 16.7592 15.341 16.3373C15.7629 15.9153 16 15.343 16 14.7463V11.7463C16 11.5473 15.921 11.3566 15.7803 11.2159C15.6397 11.0753 15.4489 10.9963 15.25 10.9963Z" fill="#828282"/>
</svg>
