<svg width="18" height="18" viewBox="0 0 18 18" fill="none" xmlns="http://www.w3.org/2000/svg">
<path d="M16.3125 10.6136C16.3153 10.5893 16.3153 10.5648 16.3125 10.5405L14.0625 2.10297C14.0625 2.10297 14.0625 2.10297 14.0625 2.06922L14.0119 1.96797L13.95 1.87797L13.8713 1.81047C13.8435 1.78669 13.8134 1.76595 13.7812 1.74859L13.6856 1.71484H13.5731H4.46062H4.34812L4.2525 1.74859C4.22038 1.76595 4.19021 1.78669 4.1625 1.81047L4.08375 1.87797L4.02188 1.96797C4.02188 2.00172 3.98813 2.02984 3.97125 2.06922C3.95438 2.10859 3.97125 2.06922 3.97125 2.10297L1.72125 10.5405C1.71841 10.5648 1.71841 10.5893 1.72125 10.6136C1.70717 10.6366 1.69584 10.6611 1.6875 10.6867V15.7492C1.6875 15.8984 1.74676 16.0415 1.85225 16.147C1.95774 16.2525 2.10082 16.3117 2.25 16.3117H15.75C15.8992 16.3117 16.0423 16.2525 16.1477 16.147C16.2532 16.0415 16.3125 15.8984 16.3125 15.7492V10.6867C16.3151 10.6624 16.3151 10.6379 16.3125 10.6136ZM4.93313 2.81172H13.0669L15.0188 10.1242H11.25C11.1008 10.1242 10.9577 10.1835 10.8523 10.289C10.7468 10.3945 10.6875 10.5375 10.6875 10.6867C10.6875 11.1343 10.5097 11.5635 10.1932 11.88C9.87678 12.1964 9.44755 12.3742 9 12.3742C8.55245 12.3742 8.12322 12.1964 7.80676 11.88C7.49029 11.5635 7.3125 11.1343 7.3125 10.6867C7.3125 10.5375 7.25324 10.3945 7.14775 10.289C7.04226 10.1835 6.89918 10.1242 6.75 10.1242H2.98125L4.93313 2.81172ZM15.1875 15.1867H2.8125V11.2492H6.24375C6.37285 11.885 6.71779 12.4566 7.2201 12.8672C7.72242 13.2778 8.35124 13.502 9 13.502C9.64876 13.502 10.2776 13.2778 10.7799 12.8672C11.2822 12.4566 11.6271 11.885 11.7562 11.2492H15.1875V15.1867Z" fill="#828282"/>
<path d="M8.60061 9.96187C8.6529 10.0146 8.71511 10.0564 8.78366 10.085C8.8522 10.1136 8.92573 10.1283 8.99998 10.1283C9.07424 10.1283 9.14776 10.1136 9.21631 10.085C9.28485 10.0564 9.34706 10.0146 9.39936 9.96187L11.0869 8.27437C11.1393 8.22193 11.1809 8.15967 11.2093 8.09114C11.2377 8.02262 11.2523 7.94917 11.2523 7.875C11.2523 7.80083 11.2377 7.72738 11.2093 7.65886C11.1809 7.59033 11.1393 7.52807 11.0869 7.47563C11.0344 7.42318 10.9721 7.38158 10.9036 7.35319C10.8351 7.32481 10.7617 7.3102 10.6875 7.3102C10.6133 7.3102 10.5399 7.32481 10.4713 7.35319C10.4028 7.38158 10.3406 7.42318 10.2881 7.47563L9.56248 8.20687V4.5C9.56248 4.35082 9.50322 4.20774 9.39773 4.10225C9.29224 3.99676 9.14917 3.9375 8.99998 3.9375C8.8508 3.9375 8.70772 3.99676 8.60223 4.10225C8.49675 4.20774 8.43748 4.35082 8.43748 4.5V8.20687L7.71186 7.47563C7.60594 7.3697 7.46228 7.3102 7.31248 7.3102C7.16269 7.3102 7.01903 7.3697 6.91311 7.47563C6.80719 7.58155 6.74768 7.72521 6.74768 7.875C6.74768 8.02479 6.80719 8.16845 6.91311 8.27437L8.60061 9.96187Z" fill="#828282"/>
</svg>
