<svg width="18" height="18" viewBox="0 0 18 18" fill="none" xmlns="http://www.w3.org/2000/svg">
<path fill-rule="evenodd" clip-rule="evenodd" d="M11.6355 9.45184L11.1533 9.93409C11.0835 10.0037 11.0282 10.0865 10.9905 10.1775C10.9527 10.2686 10.9333 10.3662 10.9333 10.4647C10.9333 10.5633 10.9527 10.6609 10.9905 10.7519C11.0282 10.843 11.0835 10.9257 11.1533 10.9953L11.4428 11.2841C11.5834 11.4247 11.7742 11.5037 11.973 11.5037C12.1719 11.5037 12.3626 11.4247 12.5033 11.2841L12.9855 10.8011L14.3355 12.1511C15.1435 11.343 15.6658 10.2935 15.8234 9.16169C15.9809 8.0299 15.765 6.87761 15.2085 5.87959L16.842 4.24534C16.9826 4.10469 17.0616 3.91396 17.0616 3.71509C17.0616 3.51622 16.9826 3.32549 16.842 3.18484L15.8775 2.21959C15.7369 2.07899 15.5461 2 15.3473 2C15.1484 2 14.9577 2.07899 14.817 2.21959L13.1835 3.85384C12.1853 3.29696 11.0327 3.0809 9.90064 3.23845C8.76853 3.396 7.71872 3.91857 6.91052 4.72684L8.26052 6.07684L7.77752 6.55909C7.63692 6.69974 7.55793 6.89047 7.55793 7.08934C7.55793 7.28821 7.63692 7.47894 7.77752 7.61959L8.06702 7.90834C8.20767 8.04894 8.3984 8.12793 8.59727 8.12793C8.79615 8.12793 8.98688 8.04894 9.12752 7.90834L9.60977 7.42609L11.6363 9.45109L11.6355 9.45184ZM3.67502 13.3623L2.04002 14.9958C1.89942 15.1365 1.82043 15.3272 1.82043 15.5261C1.82043 15.725 1.89942 15.9157 2.04002 16.0563L3.00452 17.0208C3.14517 17.1614 3.3359 17.2404 3.53477 17.2404C3.73365 17.2404 3.92438 17.1614 4.06502 17.0208L5.69852 15.3873C6.69671 15.9442 7.84931 16.1603 8.98141 16.0027C10.1135 15.8452 11.1633 15.3226 11.9715 14.5143L4.54652 7.08934C3.73832 7.89777 3.21593 8.9478 3.05865 10.0801C2.90136 11.2123 3.11777 12.3642 3.67502 13.3623Z" stroke="#828282"/>
</svg>
