<svg width="18" height="18" viewBox="0 0 18 18" fill="none" xmlns="http://www.w3.org/2000/svg">
<path d="M9.75001 11.9991H5.25001C5.05109 11.9991 4.86033 12.0781 4.71968 12.2187C4.57902 12.3594 4.50001 12.5502 4.50001 12.7491C4.50001 12.948 4.57902 13.1388 4.71968 13.2794C4.86033 13.4201 5.05109 13.4991 5.25001 13.4991H9.75001C9.94892 13.4991 10.1397 13.4201 10.2803 13.2794C10.421 13.1388 10.5 12.948 10.5 12.7491C10.5 12.5502 10.421 12.3594 10.2803 12.2187C10.1397 12.0781 9.94892 11.9991 9.75001 11.9991ZM6.75001 7.49907H8.25001C8.44892 7.49907 8.63968 7.42006 8.78034 7.2794C8.92099 7.13875 9.00001 6.94799 9.00001 6.74907C9.00001 6.55016 8.92099 6.3594 8.78034 6.21874C8.63968 6.07809 8.44892 5.99907 8.25001 5.99907H6.75001C6.55109 5.99907 6.36033 6.07809 6.21968 6.21874C6.07902 6.3594 6.00001 6.55016 6.00001 6.74907C6.00001 6.94799 6.07902 7.13875 6.21968 7.2794C6.36033 7.42006 6.55109 7.49907 6.75001 7.49907ZM15.75 8.99907H13.5V2.24907C13.5005 2.11692 13.4661 1.98697 13.4003 1.87238C13.3344 1.7578 13.2395 1.66265 13.125 1.59657C13.011 1.53075 12.8817 1.49609 12.75 1.49609C12.6184 1.49609 12.489 1.53075 12.375 1.59657L10.125 2.88657L7.87501 1.59657C7.76099 1.53075 7.63166 1.49609 7.50001 1.49609C7.36835 1.49609 7.23902 1.53075 7.12501 1.59657L4.87501 2.88657L2.62501 1.59657C2.51099 1.53075 2.38166 1.49609 2.25001 1.49609C2.11835 1.49609 1.98902 1.53075 1.87501 1.59657C1.76055 1.66265 1.66559 1.7578 1.59974 1.87238C1.53389 1.98697 1.49948 2.11692 1.50001 2.24907V14.2491C1.50001 14.8458 1.73706 15.4181 2.15902 15.8401C2.58097 16.262 3.15327 16.4991 3.75001 16.4991H14.25C14.8467 16.4991 15.419 16.262 15.841 15.8401C16.263 15.4181 16.5 14.8458 16.5 14.2491V9.74907C16.5 9.55016 16.421 9.3594 16.2803 9.21875C16.1397 9.07809 15.9489 8.99907 15.75 8.99907ZM3.75001 14.9991C3.55109 14.9991 3.36033 14.9201 3.21968 14.7794C3.07902 14.6388 3.00001 14.448 3.00001 14.2491V3.54657L4.50001 4.40157C4.61576 4.46203 4.74441 4.49361 4.87501 4.49361C5.0056 4.49361 5.13425 4.46203 5.25001 4.40157L7.50001 3.11157L9.75001 4.40157C9.86576 4.46203 9.99441 4.49361 10.125 4.49361C10.2556 4.49361 10.3843 4.46203 10.5 4.40157L12 3.54657V14.2491C12.002 14.5049 12.0477 14.7586 12.135 14.9991H3.75001ZM15 14.2491C15 14.448 14.921 14.6388 14.7803 14.7794C14.6397 14.9201 14.4489 14.9991 14.25 14.9991C14.0511 14.9991 13.8603 14.9201 13.7197 14.7794C13.579 14.6388 13.5 14.448 13.5 14.2491V10.4991H15V14.2491ZM9.75001 8.99907H5.25001C5.05109 8.99907 4.86033 9.07809 4.71968 9.21875C4.57902 9.3594 4.50001 9.55016 4.50001 9.74907C4.50001 9.94799 4.57902 10.1388 4.71968 10.2794C4.86033 10.4201 5.05109 10.4991 5.25001 10.4991H9.75001C9.94892 10.4991 10.1397 10.4201 10.2803 10.2794C10.421 10.1388 10.5 9.94799 10.5 9.74907C10.5 9.55016 10.421 9.3594 10.2803 9.21875C10.1397 9.07809 9.94892 8.99907 9.75001 8.99907Z" fill="#828282"/>
</svg>
