<svg width="18" height="18" viewBox="0 0 18 18" fill="none" xmlns="http://www.w3.org/2000/svg">
<path d="M14.625 4.5H12V3.75C11.9989 2.922 11.328 2.25105 10.5 2.25H7.5C6.672 2.25105 6.00105 2.922 6 3.75V4.5H3.375C2.33986 4.50096 1.50096 5.33986 1.5 6.375V13.875C1.50096 14.9101 2.33986 15.749 3.375 15.75H14.625C15.6601 15.749 16.499 14.9101 16.5 13.875V6.375C16.499 5.33986 15.6601 4.50096 14.625 4.5ZM6.75 3.75C6.75027 3.33591 7.08591 3.00027 7.5 3H10.5C10.9141 3.00027 11.2497 3.33591 11.25 3.75V4.5H6.75V3.75ZM15.75 13.875C15.7493 14.496 15.246 14.9993 14.625 15H3.375C2.75395 14.9993 2.25069 14.496 2.25 13.875V9.02051L6.63135 10.481C6.66966 10.4935 6.70972 10.5 6.75 10.5H11.25C11.2903 10.5 11.3304 10.4935 11.3687 10.481L15.75 9.02051V13.875ZM15.75 8.25444C15.7106 8.25444 15.6708 8.25591 15.6314 8.26904L11.1893 9.75H6.81079L2.36865 8.26904C2.32924 8.25591 2.28941 8.25444 2.25 8.25444V6.375C2.25069 5.75395 2.75395 5.25069 3.375 5.25H14.625C15.246 5.25069 15.7493 5.75395 15.75 6.375V8.25444Z" fill="#828282" stroke="#828282" stroke-width="0.2"/>
</svg>
