<svg width="18" height="18" viewBox="0 0 18 18" fill="none" xmlns="http://www.w3.org/2000/svg">
<path d="M14.7563 15.2813L15.2813 14.7563L13.875 13.35V11.25H13.125V13.65L14.7563 15.2813ZM3.75 15.75C3.3375 15.75 2.98425 15.603 2.69025 15.309C2.39625 15.015 2.2495 14.662 2.25 14.25V3.75C2.25 3.3375 2.397 2.98425 2.691 2.69025C2.985 2.39625 3.338 2.2495 3.75 2.25H14.25C14.6625 2.25 15.0158 2.397 15.3098 2.691C15.6038 2.985 15.7505 3.338 15.75 3.75V8.775C15.5125 8.6625 15.2688 8.5655 15.0188 8.484C14.7688 8.4025 14.5125 8.34325 14.25 8.30625V3.75H3.75V14.25H8.2875C8.325 14.525 8.3845 14.7875 8.466 15.0375C8.5475 15.2875 8.64425 15.525 8.75625 15.75H3.75ZM3.75 13.5V14.25V3.75V8.30625V8.25V13.5ZM5.25 12.75H8.30625C8.34375 12.4875 8.40325 12.2313 8.48475 11.9813C8.56625 11.7313 8.65675 11.4875 8.75625 11.25H5.25V12.75ZM5.25 9.75H9.825C10.225 9.375 10.672 9.0625 11.166 8.8125C11.66 8.5625 12.188 8.39375 12.75 8.30625V8.25H5.25V9.75ZM5.25 6.75H12.75V5.25H5.25V6.75ZM13.5 17.25C12.4625 17.25 11.578 16.8843 10.8465 16.1528C10.115 15.4213 9.7495 14.537 9.75 13.5C9.75 12.4625 10.1158 11.578 10.8473 10.8465C11.5788 10.115 12.463 9.7495 13.5 9.75C14.5375 9.75 15.422 10.1158 16.1535 10.8473C16.885 11.5788 17.2505 12.463 17.25 13.5C17.25 14.5375 16.8843 15.422 16.1528 16.1535C15.4213 16.885 14.537 17.2505 13.5 17.25Z" fill="#828282"/>
</svg>
