<svg width="18" height="18" viewBox="0 0 18 18" fill="none" xmlns="http://www.w3.org/2000/svg">
<path d="M3.66577 1.49805C2.47768 1.49805 1.50073 2.48083 1.50073 3.66894V14.3315C1.50073 15.5196 2.47768 16.5024 3.66577 16.5024H14.3342C15.5223 16.5024 16.4993 15.5196 16.4993 14.3315V3.66894C16.4993 2.48083 15.5223 1.49805 14.3342 1.49805H3.66577ZM3.66577 2.99952H6.74927V8.25244C6.75468 8.91661 7.55699 9.24654 8.02808 8.77832L9.00366 7.81006L9.97192 8.77832C10.443 9.24654 11.2453 8.91662 11.2507 8.25244V2.99952H14.3342C14.7117 2.99952 14.9993 3.29152 14.9993 3.66894V14.3315C14.9993 14.709 14.7117 15.0024 14.3342 15.0024H3.66577C3.28834 15.0024 3.0022 14.709 3.0022 14.3315V3.66894C3.0022 3.29152 3.28834 2.99952 3.66577 2.99952ZM8.24927 2.99952H9.75073V6.4419L9.52954 6.22071C9.23698 5.92988 8.76448 5.92988 8.47193 6.22071L8.24927 6.4419L8.24927 2.99952Z" fill="#828282"/>
</svg>
