<svg width="18" height="18" viewBox="0 0 18 18" fill="none" xmlns="http://www.w3.org/2000/svg">
<path d="M15.5116 16H3.7907C3.31592 15.9995 2.86073 15.8107 2.52502 15.475C2.1893 15.1393 2.00048 14.6841 2 14.2093V2.48837C2 2.35885 2.05145 2.23463 2.14304 2.14304C2.23463 2.05145 2.35885 2 2.48837 2C2.6179 2 2.74212 2.05145 2.8337 2.14304C2.92529 2.23463 2.97674 2.35885 2.97674 2.48837V14.2093C2.97694 14.4251 3.06276 14.632 3.21537 14.7846C3.36797 14.9372 3.57489 15.0231 3.7907 15.0233H15.5116C15.6412 15.0233 15.7654 15.0747 15.857 15.1663C15.9485 15.2579 16 15.3821 16 15.5116C16 15.6412 15.9485 15.7654 15.857 15.857C15.7654 15.9485 15.6412 16 15.5116 16Z" fill="#828282"/>
<path d="M13.5581 13.3958C13.4286 13.3958 13.3044 13.3443 13.2128 13.2527C13.1213 13.1611 13.0698 13.0369 13.0698 12.9074V7.04697C13.0698 6.91744 13.1212 6.79322 13.2128 6.70163C13.3044 6.61005 13.4286 6.55859 13.5581 6.55859C13.6876 6.55859 13.8119 6.61005 13.9035 6.70163C13.995 6.79322 14.0465 6.91744 14.0465 7.04697V12.9074C14.0465 13.0369 13.995 13.1611 13.9034 13.2527C13.8118 13.3443 13.6876 13.3958 13.5581 13.3958ZM10.9535 13.3958C10.824 13.3958 10.6998 13.3443 10.6082 13.2527C10.5166 13.1611 10.4651 13.0369 10.4651 12.9074V9.00045C10.4651 8.87093 10.5166 8.74671 10.6081 8.65512C10.6997 8.56354 10.8239 8.51208 10.9535 8.51208C11.083 8.51208 11.2072 8.56354 11.2988 8.65512C11.3904 8.74671 11.4418 8.87093 11.4418 9.00045V12.9074C11.4418 13.0369 11.3903 13.1611 11.2988 13.2527C11.2072 13.3443 11.083 13.3958 10.9535 13.3958ZM8.34882 13.3958C8.21931 13.3958 8.09511 13.3443 8.00353 13.2527C7.91195 13.1611 7.86048 13.0369 7.86045 12.9074V9.00045C7.86045 8.87093 7.9119 8.74671 8.00349 8.65512C8.09508 8.56354 8.2193 8.51208 8.34882 8.51208C8.47835 8.51208 8.60257 8.56354 8.69415 8.65512C8.78574 8.74671 8.83719 8.87093 8.83719 9.00045V12.9074C8.83716 13.0369 8.78569 13.1611 8.69411 13.2527C8.60253 13.3443 8.47834 13.3958 8.34882 13.3958ZM5.74417 13.3958C5.61466 13.3958 5.49046 13.3443 5.39888 13.2527C5.3073 13.1611 5.25583 13.0369 5.2558 12.9074V10.3028C5.2558 10.1733 5.30725 10.049 5.39884 9.95745C5.49043 9.86586 5.61465 9.81441 5.74417 9.81441C5.87369 9.81441 5.99791 9.86586 6.0895 9.95745C6.18109 10.049 6.23254 10.1733 6.23254 10.3028V12.9074C6.23251 13.0369 6.18104 13.1611 6.08946 13.2527C5.99788 13.3443 5.87368 13.3958 5.74417 13.3958Z" fill="#828282"/>
<path d="M5.09304 8.18592C4.99269 8.18589 4.89478 8.15496 4.81263 8.09733C4.73048 8.03969 4.66807 7.95816 4.63389 7.86381C4.59971 7.76947 4.59541 7.66688 4.62158 7.57C4.64776 7.47313 4.70313 7.38666 4.78017 7.32236L8.68715 4.06655C8.78085 3.98863 8.90027 3.9485 9.02202 3.95403C9.14376 3.95956 9.25905 4.01034 9.34531 4.09644L10.9535 5.70463L13.864 2.79411C13.9557 2.70309 14.0797 2.65211 14.2089 2.65234C14.3382 2.65258 14.462 2.70401 14.5534 2.79537C14.6447 2.88673 14.6961 3.01057 14.6964 3.13977C14.6966 3.26898 14.6456 3.39301 14.5546 3.4847L11.2988 6.74051C11.2535 6.78587 11.1996 6.82185 11.1404 6.8464C11.0811 6.87095 11.0176 6.88359 10.9535 6.88359C10.8894 6.88359 10.8259 6.87095 10.7666 6.8464C10.7074 6.82185 10.6535 6.78587 10.6082 6.74051L8.97013 5.10243L5.4059 8.07273C5.3181 8.14595 5.20737 8.18601 5.09304 8.18592Z" fill="#828282"/>
</svg>
