<svg width="18" height="18" viewBox="0 0 18 18" fill="none" xmlns="http://www.w3.org/2000/svg">
<path d="M14.625 2.625L13.5 1.5L12.375 2.625L11.25 1.5L10.125 2.625L9 1.5L7.875 2.625L6.75 1.5L5.625 2.625L4.5 1.5L3.375 2.625L2.25 1.5V16.5L3.375 15.375L4.5 16.5L5.625 15.375L6.75 16.5L7.875 15.375L9 16.5L10.125 15.375L11.25 16.5L12.375 15.375L13.5 16.5L14.625 15.375L15.75 16.5V1.5L14.625 2.625ZM14.25 14.25H3.75V3.75H14.25V14.25ZM4.5 11.25H13.5V12.75H4.5M4.5 8.25H13.5V9.75H4.5M4.5 5.25H13.5V6.75H4.5V5.25Z" fill="#828282"/>
</svg>
