<svg width="18" height="18" viewBox="0 0 18 18" fill="none" xmlns="http://www.w3.org/2000/svg">
<path d="M2.25 13.5H9V14.625H1.125V1.125H3.375V0H4.5V1.125H12.375V0H13.5V1.125H15.75V9H14.625V5.625H2.25V13.5ZM2.25 2.25V4.5H14.625V2.25H13.5V3.375H12.375V2.25H4.5V3.375H3.375V2.25H2.25ZM18 10.125V13.5H14.625V12.375H16.2949C16.0312 12.0234 15.7031 11.748 15.3105 11.5488C14.918 11.3496 14.502 11.25 14.0625 11.25C13.7168 11.25 13.3916 11.3086 13.0869 11.4258C12.7822 11.543 12.5039 11.7041 12.252 11.9092C12 12.1143 11.7949 12.3633 11.6367 12.6562C11.4785 12.9492 11.3672 13.2627 11.3027 13.5967L10.1865 13.4033C10.2686 12.9287 10.4268 12.4922 10.6611 12.0938C10.8955 11.6953 11.1826 11.3496 11.5225 11.0566C11.8623 10.7637 12.252 10.5352 12.6914 10.3711C13.1309 10.207 13.5879 10.125 14.0625 10.125C14.5957 10.125 15.1055 10.2275 15.5918 10.4326C16.0781 10.6377 16.5059 10.9365 16.875 11.3291V10.125H18ZM14.0625 16.875C14.4023 16.875 14.7275 16.8164 15.0381 16.6992C15.3486 16.582 15.627 16.4209 15.873 16.2158C16.1191 16.0107 16.3242 15.7617 16.4883 15.4688C16.6523 15.1758 16.7637 14.8623 16.8223 14.5283L17.9385 14.7217C17.8564 15.1963 17.6982 15.6328 17.4639 16.0312C17.2295 16.4297 16.9424 16.7754 16.6025 17.0684C16.2627 17.3613 15.873 17.5898 15.4336 17.7539C14.9941 17.918 14.5371 18 14.0625 18C13.5293 18 13.0195 17.8975 12.5332 17.6924C12.0469 17.4873 11.6191 17.1885 11.25 16.7959V18H10.125V14.625H13.5V15.75H11.8301C12.0938 16.1016 12.4219 16.377 12.8145 16.5762C13.207 16.7754 13.623 16.875 14.0625 16.875Z" fill="#828282"/>
</svg>
