<svg width="18" height="18" viewBox="0 0 18 18" fill="none" xmlns="http://www.w3.org/2000/svg">
<path d="M5.5 6.375C5.5 6.20924 5.56585 6.05027 5.68306 5.93306C5.80027 5.81585 5.95924 5.75 6.125 5.75H12.375C12.5408 5.75 12.6997 5.81585 12.8169 5.93306C12.9342 6.05027 13 6.20924 13 6.375C13 6.54076 12.9342 6.69973 12.8169 6.81694C12.6997 6.93415 12.5408 7 12.375 7H6.125C5.95924 7 5.80027 6.93415 5.68306 6.81694C5.56585 6.69973 5.5 6.54076 5.5 6.375ZM6.125 8.25C5.95924 8.25 5.80027 8.31585 5.68306 8.43306C5.56585 8.55027 5.5 8.70924 5.5 8.875C5.5 9.04076 5.56585 9.19973 5.68306 9.31694C5.80027 9.43415 5.95924 9.5 6.125 9.5H12.375C12.5408 9.5 12.6997 9.43415 12.8169 9.31694C12.9342 9.19973 13 9.04076 13 8.875C13 8.70924 12.9342 8.55027 12.8169 8.43306C12.6997 8.31585 12.5408 8.25 12.375 8.25H6.125ZM5.5 11.375C5.5 11.2092 5.56585 11.0503 5.68306 10.9331C5.80027 10.8158 5.95924 10.75 6.125 10.75H12.375C12.5408 10.75 12.6997 10.8158 12.8169 10.9331C12.9342 11.0503 13 11.2092 13 11.375C13 11.5408 12.9342 11.6997 12.8169 11.8169C12.6997 11.9342 12.5408 12 12.375 12H6.125C5.95924 12 5.80027 11.9342 5.68306 11.8169C5.56585 11.6997 5.5 11.5408 5.5 11.375ZM6.125 13.25C5.95924 13.25 5.80027 13.3158 5.68306 13.4331C5.56585 13.5503 5.5 13.7092 5.5 13.875C5.5 14.0408 5.56585 14.1997 5.68306 14.3169C5.80027 14.4342 5.95924 14.5 6.125 14.5H12.375C12.5408 14.5 12.6997 14.4342 12.8169 14.3169C12.9342 14.1997 13 14.0408 13 13.875C13 13.7092 12.9342 13.5503 12.8169 13.4331C12.6997 13.3158 12.5408 13.25 12.375 13.25H6.125Z" fill="#828282"/>
<path fill-rule="evenodd" clip-rule="evenodd" d="M12.375 2.625C12.375 2.45924 12.3092 2.30027 12.1919 2.18306C12.0747 2.06585 11.9158 2 11.75 2H6.75C6.58424 2 6.42527 2.06585 6.30806 2.18306C6.19085 2.30027 6.125 2.45924 6.125 2.625H4.875C4.37772 2.625 3.90081 2.82254 3.54917 3.17417C3.19754 3.52581 3 4.00272 3 4.5V15.125C3 15.6223 3.19754 16.0992 3.54917 16.4508C3.90081 16.8025 4.37772 17 4.875 17H13.625C14.1223 17 14.5992 16.8025 14.9508 16.4508C15.3025 16.0992 15.5 15.6223 15.5 15.125V4.5C15.5 4.00272 15.3025 3.52581 14.9508 3.17417C14.5992 2.82254 14.1223 2.625 13.625 2.625H12.375ZM6.75 4.5C6.58424 4.5 6.42527 4.43415 6.30806 4.31694C6.19085 4.19973 6.125 4.04076 6.125 3.875H4.875C4.70924 3.875 4.55027 3.94085 4.43306 4.05806C4.31585 4.17527 4.25 4.33424 4.25 4.5V15.125C4.25 15.2908 4.31585 15.4497 4.43306 15.5669C4.55027 15.6842 4.70924 15.75 4.875 15.75H13.625C13.7908 15.75 13.9497 15.6842 14.0669 15.5669C14.1842 15.4497 14.25 15.2908 14.25 15.125V4.5C14.25 4.33424 14.1842 4.17527 14.0669 4.05806C13.9497 3.94085 13.7908 3.875 13.625 3.875H12.375C12.375 4.04076 12.3092 4.19973 12.1919 4.31694C12.0747 4.43415 11.9158 4.5 11.75 4.5H6.75Z" fill="#828282"/>
</svg>
