<svg width="18" height="18" viewBox="0 0 18 18" fill="none" xmlns="http://www.w3.org/2000/svg">
<path d="M8.78684 10.0708C9.25979 10.0701 9.72564 9.95566 10.1451 9.7372C10.5646 9.51874 10.9254 9.20263 11.1971 8.81553C11.2018 8.80921 11.2089 8.80684 11.2137 8.80053L11.2192 8.78868C11.5928 8.24443 11.7732 7.59072 11.7318 6.93191C11.6903 6.27309 11.4293 5.64716 10.9905 5.15402C10.5517 4.66088 9.96031 4.32897 9.31077 4.21127C8.66123 4.09358 7.99098 4.19687 7.40702 4.50468C6.82306 4.81249 6.35905 5.30705 6.08907 5.90944C5.81908 6.51182 5.75869 7.18728 5.91752 7.828C6.07635 8.46873 6.44526 9.03777 6.96535 9.44429C7.48544 9.85082 8.12673 10.0714 8.78684 10.0708ZM10.9539 7.11421C10.9536 7.42119 10.8877 7.72455 10.7605 8.00395L9.18158 6.90737V4.98658C9.67877 5.07884 10.1281 5.34201 10.4517 5.73054C10.7754 6.11907 10.953 6.60853 10.9539 7.11421ZM8.39211 4.98658V7.11421C8.39221 7.17785 8.4077 7.24052 8.43725 7.29688C8.46681 7.35324 8.50955 7.40162 8.56184 7.43789L10.3097 8.65289C10.0691 8.8919 9.77567 9.07103 9.45312 9.17587C9.13057 9.28071 8.7879 9.30832 8.45272 9.25648C8.11754 9.20463 7.79923 9.07479 7.52342 8.8774C7.24762 8.68001 7.02203 8.4206 6.86484 8.12006C6.70764 7.81952 6.62324 7.48627 6.61843 7.14714C6.61361 6.80801 6.68852 6.47249 6.83712 6.16761C6.98572 5.86274 7.20385 5.59702 7.47394 5.39188C7.74403 5.18675 8.05853 5.04792 8.39211 4.98658ZM5.34789 11.7682C5.34789 11.6635 5.38948 11.5631 5.46351 11.489C5.53754 11.415 5.63794 11.3734 5.74263 11.3734H8.78684C8.89153 11.3734 8.99194 11.415 9.06596 11.489C9.13999 11.5631 9.18158 11.6635 9.18158 11.7682C9.18158 11.8728 9.13999 11.9733 9.06596 12.0473C8.99194 12.1213 8.89153 12.1629 8.78684 12.1629H5.74263C5.69079 12.1629 5.63946 12.1527 5.59157 12.1328C5.54368 12.113 5.50016 12.0839 5.46351 12.0473C5.42686 12.0106 5.39778 11.9671 5.37794 11.9192C5.3581 11.8713 5.34789 11.82 5.34789 11.7682ZM12.2258 13.1892C12.2258 13.2939 12.1842 13.3943 12.1102 13.4683C12.0361 13.5424 11.9357 13.5839 11.8311 13.5839H5.74263C5.63794 13.5839 5.53754 13.5424 5.46351 13.4683C5.38948 13.3943 5.34789 13.2939 5.34789 13.1892C5.34789 13.0845 5.38948 12.9841 5.46351 12.9101C5.53754 12.8361 5.63794 12.7945 5.74263 12.7945H11.8311C11.9352 12.7945 12.0351 12.8356 12.1091 12.909C12.183 12.9823 12.225 13.0819 12.2258 13.1861V13.1892ZM12.2258 14.6103C12.2258 14.715 12.1842 14.8154 12.1102 14.8894C12.0361 14.9634 11.9357 15.005 11.8311 15.005H5.74263C5.63794 15.005 5.53754 14.9634 5.46351 14.8894C5.38948 14.8154 5.34789 14.715 5.34789 14.6103C5.34789 14.5056 5.38948 14.4052 5.46351 14.3311C5.53754 14.2571 5.63794 14.2155 5.74263 14.2155H11.8311C11.9347 14.2155 12.0341 14.2562 12.108 14.3289C12.1818 14.4016 12.2241 14.5004 12.2258 14.6039V14.6103ZM14.5429 4.59658C14.523 4.5482 14.4937 4.50421 14.4568 4.46711L12.1145 2.11763C12.078 2.0801 12.0342 2.05053 11.9858 2.03079C11.9378 2.01063 11.8863 2.00017 11.8342 2H4.18421C3.87014 2 3.56893 2.12476 3.34685 2.34685C3.12476 2.56893 3 2.87014 3 3.18421V15.8158C3 16.1299 3.12476 16.4311 3.34685 16.6532C3.56893 16.8752 3.87014 17 4.18421 17H13.3895C13.7035 17 14.0048 16.8752 14.2268 16.6532C14.4489 16.4311 14.5737 16.1299 14.5737 15.8158V4.74737C14.5738 4.69553 14.5634 4.64421 14.5429 4.59658ZM12.2289 3.35L13.2284 4.35263H12.6237C12.519 4.35263 12.4186 4.31104 12.3446 4.23702C12.2705 4.16299 12.2289 4.06259 12.2289 3.95789V3.35ZM13.3895 16.2105H4.18421C4.07952 16.2105 3.97912 16.1689 3.90509 16.0949C3.83106 16.0209 3.78947 15.9205 3.78947 15.8158V3.18421C3.78947 3.07952 3.83106 2.97912 3.90509 2.90509C3.97912 2.83106 4.07952 2.78947 4.18421 2.78947H11.4395V3.95789C11.4395 4.27197 11.5642 4.57318 11.7863 4.79526C12.0084 5.01734 12.3096 5.14211 12.6237 5.14211H13.7842V15.8158C13.7842 15.9205 13.7426 16.0209 13.6686 16.0949C13.5946 16.1689 13.4942 16.2105 13.3895 16.2105Z" fill="#828282"/>
</svg>
