<svg width="18" height="18" viewBox="0 0 18 18" fill="none" xmlns="http://www.w3.org/2000/svg">
<path d="M10.5 4.5C10.5 4.60191 10.5311 4.70139 10.5892 4.78512C10.6472 4.86885 10.7295 4.93283 10.825 4.9685L8.99998 6.793V5C8.99996 4.90112 8.97062 4.80448 8.91568 4.72227C8.86074 4.64007 8.78266 4.576 8.69131 4.53816C8.59996 4.50033 8.49944 4.49042 8.40246 4.50971C8.30549 4.52899 8.21641 4.5766 8.14648 4.6465L4.64648 8.1465C4.59872 8.19262 4.56063 8.2478 4.53443 8.3088C4.50822 8.3698 4.49443 8.43541 4.49385 8.5018C4.49328 8.56819 4.50593 8.63403 4.53107 8.69548C4.55621 8.75693 4.59334 8.81275 4.64028 8.8597C4.68723 8.90664 4.74305 8.94377 4.8045 8.96891C4.86595 8.99405 4.93179 9.0067 4.99818 9.00613C5.06457 9.00555 5.13018 8.99176 5.19118 8.96555C5.25218 8.93935 5.30736 8.90126 5.35348 8.8535L7.99998 6.207V8C8 8.09888 8.02934 8.19552 8.08428 8.27773C8.13922 8.35993 8.2173 8.424 8.30865 8.46184C8.4 8.49967 8.50052 8.50958 8.5975 8.49029C8.69447 8.47101 8.78355 8.4234 8.85348 8.3535L11.5315 5.6755C11.5725 5.7854 11.6508 5.8774 11.7527 5.93541C11.8546 5.99341 11.9737 6.01374 12.0891 5.99283C12.2045 5.97191 12.3089 5.91109 12.384 5.821C12.4591 5.73091 12.5002 5.61729 12.5 5.5V4.5C12.5 4.36739 12.4473 4.24021 12.3535 4.14645C12.2598 4.05268 12.1326 4 12 4H11C10.8674 4 10.7402 4.05268 10.6464 4.14645C10.5527 4.24021 10.5 4.36739 10.5 4.5ZM5.49998 10.5C5.63259 10.5 5.75976 10.5527 5.85353 10.6464C5.9473 10.7402 5.99998 10.8674 5.99998 11V13C5.99998 13.1326 5.9473 13.2598 5.85353 13.3536C5.75976 13.4473 5.63259 13.5 5.49998 13.5C5.36737 13.5 5.24019 13.4473 5.14643 13.3536C5.05266 13.2598 4.99998 13.1326 4.99998 13V11C4.99998 10.8674 5.05266 10.7402 5.14643 10.6464C5.24019 10.5527 5.36737 10.5 5.49998 10.5Z" fill="#828282" stroke="#828282" stroke-width="0.1"/>
<path d="M7.5 8.5C7.36739 8.5 7.24021 8.55268 7.14645 8.64645C7.05268 8.74021 7 8.86739 7 9V13C7 13.1326 7.05268 13.2598 7.14645 13.3536C7.24021 13.4473 7.36739 13.5 7.5 13.5C7.63261 13.5 7.75979 13.4473 7.85355 13.3536C7.94732 13.2598 8 13.1326 8 13V9C8 8.86739 7.94732 8.74021 7.85355 8.64645C7.75979 8.55268 7.63261 8.5 7.5 8.5ZM9.5 10C9.63261 10 9.75979 10.0527 9.85355 10.1464C9.94732 10.2402 10 10.3674 10 10.5V13C10 13.1326 9.94732 13.2598 9.85355 13.3536C9.75979 13.4473 9.63261 13.5 9.5 13.5C9.36739 13.5 9.24021 13.4473 9.14645 13.3536C9.05268 13.2598 9 13.1326 9 13V10.5C9 10.3674 9.05268 10.2402 9.14645 10.1464C9.24021 10.0527 9.36739 10 9.5 10ZM11.5 7.5C11.3674 7.5 11.2402 7.55268 11.1464 7.64645C11.0527 7.74021 11 7.86739 11 8V13C11 13.1326 11.0527 13.2598 11.1464 13.3536C11.2402 13.4473 11.3674 13.5 11.5 13.5C11.6326 13.5 11.7598 13.4473 11.8536 13.3536C11.9473 13.2598 12 13.1326 12 13V8C12 7.86739 11.9473 7.74021 11.8536 7.64645C11.7598 7.55268 11.6326 7.5 11.5 7.5Z" fill="#828282" stroke="#828282" stroke-width="0.1"/>
<path fill-rule="evenodd" clip-rule="evenodd" d="M4.5 1C3.83696 1 3.20107 1.26339 2.73223 1.73223C2.26339 2.20107 2 2.83696 2 3.5V14.5C2 15.163 2.26339 15.7989 2.73223 16.2678C3.20107 16.7366 3.83696 17 4.5 17H12.5C13.163 17 13.7989 16.7366 14.2678 16.2678C14.7366 15.7989 15 15.163 15 14.5V3.5C15 2.83696 14.7366 2.20107 14.2678 1.73223C13.7989 1.26339 13.163 1 12.5 1L4.5 1ZM3 3.5C3 3.10218 3.15804 2.72064 3.43934 2.43934C3.72064 2.15804 4.10218 2 4.5 2H12.5C12.8978 2 13.2794 2.15804 13.5607 2.43934C13.842 2.72064 14 3.10218 14 3.5V14.5C14 14.8978 13.842 15.2794 13.5607 15.5607C13.2794 15.842 12.8978 16 12.5 16H4.5C4.10218 16 3.72064 15.842 3.43934 15.5607C3.15804 15.2794 3 14.8978 3 14.5V3.5Z" fill="#828282" stroke="#828282" stroke-width="0.1"/>
</svg>
