<svg width="18" height="18" viewBox="0 0 18 18" fill="none" xmlns="http://www.w3.org/2000/svg">
<path d="M9.66015 2.331L11.3976 5.82252C11.4828 5.998 11.6505 6.12068 11.8456 6.15026L15.7346 6.71212C15.8924 6.73364 16.035 6.8164 16.1305 6.94201C16.2261 7.06762 16.2668 7.22566 16.2436 7.38099C16.2241 7.50868 16.162 7.62633 16.0672 7.71543L13.2505 10.4444C13.1082 10.5789 13.0443 10.7752 13.0808 10.9662L13.7595 14.8122C13.8087 15.1291 13.5914 15.4264 13.2709 15.481C13.1387 15.5015 13.0034 15.4804 12.884 15.4208L9.41582 13.6082C9.24257 13.5142 9.03253 13.5142 8.85928 13.6082L5.37072 15.4342C5.07803 15.5822 4.71898 15.4722 4.56306 15.1867C4.50226 15.0716 4.48084 14.9403 4.50197 14.8122L5.18068 10.9662C5.21351 10.7754 5.15023 10.5808 5.011 10.4444L2.17401 7.71543C1.942 7.48363 1.942 7.11114 2.17401 6.87934C2.26869 6.79294 2.38641 6.73493 2.51336 6.71212L6.40236 6.15026C6.59653 6.11852 6.76329 5.99651 6.8503 5.82252L8.58779 2.331C8.65645 2.18943 8.7802 2.08118 8.93099 2.0308C9.08177 1.98043 9.24681 1.9922 9.38867 2.06345C9.50571 2.12194 9.6008 2.21566 9.66015 2.331Z" stroke="#828282" stroke-width="1.5" stroke-linecap="round" stroke-linejoin="round"/>
</svg>
