<svg width="18" height="18" viewBox="0 0 18 18" fill="none" xmlns="http://www.w3.org/2000/svg">
<path d="M13.75 2H3.25C2.65326 2 2.08097 2.23705 1.65901 2.65901C1.23705 3.08097 1 3.65326 1 4.25V14.75C1 15.3467 1.23705 15.919 1.65901 16.341C2.08097 16.7629 2.65326 17 3.25 17H13.75C14.3467 17 14.919 16.7629 15.341 16.341C15.7629 15.919 16 15.3467 16 14.75V4.25C16 3.65326 15.7629 3.08097 15.341 2.65901C14.919 2.23705 14.3467 2 13.75 2ZM2.5 4.25C2.5 4.05109 2.57902 3.86032 2.71967 3.71967C2.86032 3.57902 3.05109 3.5 3.25 3.5H13.75C13.9489 3.5 14.1397 3.57902 14.2803 3.71967C14.421 3.86032 14.5 4.05109 14.5 4.25V11H2.5V4.25ZM3.25 15.5C3.05109 15.5 2.86032 15.421 2.71967 15.2803C2.57902 15.1397 2.5 14.9489 2.5 14.75V12.5H5.5V15.5H3.25ZM7 15.5V12.5H10V15.5H7ZM14.5 14.75C14.5 14.9489 14.421 15.1397 14.2803 15.2803C14.1397 15.421 13.9489 15.5 13.75 15.5H11.5V12.5H14.5V14.75Z" fill="#828282"/>
</svg>
