<svg width="18" height="18" viewBox="0 0 18 18" fill="none" xmlns="http://www.w3.org/2000/svg">
<path d="M14.2571 6.16923L13.7121 16.3319C13.6945 16.7011 13.378 17 13.0088 17H4.11209C3.74286 17 3.42637 16.7011 3.40879 16.3319L2.86374 6.16923C2.84615 5.78242 3.14505 5.44835 3.53187 5.43077C3.91868 5.41319 4.25275 5.71209 4.27033 6.0989L4.78022 15.5934H12.3582L12.8681 6.0989C12.8857 5.71209 13.2198 5.41319 13.6066 5.43077C13.9758 5.44835 14.2747 5.78242 14.2571 6.16923ZM16.1209 3.81319C16.1209 4.2 15.8044 4.51648 15.4176 4.51648H1.7033C1.31648 4.51648 1 4.2 1 3.81319C1 3.42637 1.31648 3.10989 1.7033 3.10989H5.57143V1.52747C5.57143 1.19341 5.8 1 6.13407 1H10.9868C11.3209 1 11.5494 1.19341 11.5494 1.52747V3.10989H15.4176C15.8044 3.10989 16.1209 3.42637 16.1209 3.81319ZM6.8022 3.10989H10.3187V2.23077H6.8022V3.10989ZM7.1011 14.5385C7.45275 14.5385 7.71648 14.2044 7.71648 13.8703L7.54066 6.27473C7.54066 5.94066 7.25934 5.65934 6.90769 5.65934C6.57363 5.65934 6.29231 5.94066 6.30989 6.29231L6.48571 13.9055C6.48571 14.2396 6.76703 14.5385 7.1011 14.5385ZM10.0022 14.5385C10.3363 14.5385 10.6176 14.2571 10.6176 13.9231L10.7934 6.32747C10.7934 5.99341 10.5297 5.69451 10.1956 5.69451C9.84396 5.69451 9.58022 5.95824 9.56264 6.29231L9.38681 13.8879C9.36923 14.2396 9.65055 14.5385 10.0022 14.5385C9.98462 14.5385 9.98462 14.5385 10.0022 14.5385Z" fill="#828282"/>
</svg>
