<svg width="18" height="18" viewBox="0 0 18 18" fill="none" xmlns="http://www.w3.org/2000/svg">
<path d="M9.32308 9.86154C11.4985 9.86154 13.2431 8.09538 13.2431 5.94154C13.2431 3.78769 11.4985 2 9.32308 2C7.14769 2 5.40308 3.76615 5.40308 5.92C5.40308 8.07385 7.14769 9.86154 9.32308 9.86154ZM9.32308 3.03385C10.9169 3.03385 12.2092 4.32615 12.2092 5.92C12.2092 7.51385 10.9169 8.80615 9.32308 8.80615C7.72923 8.80615 6.43692 7.53538 6.43692 5.94154C6.43692 4.34769 7.72923 3.03385 9.32308 3.03385ZM2.51692 16H16.1723C16.4523 16 16.6892 15.7631 16.6892 15.4831C16.6892 12.7692 14.4708 10.5508 11.7569 10.5508H6.93231C4.21846 10.5508 2 12.7692 2 15.4831C2 15.7631 2.23692 16 2.51692 16ZM6.93231 11.5846H11.7569C13.7385 11.5846 15.3538 13.0492 15.6123 14.9662H3.07692C3.33538 13.0492 4.95077 11.5846 6.93231 11.5846Z" fill="#828282"/>
</svg>
