<svg width="26" height="26" viewBox="0 0 26 26" fill="none" xmlns="http://www.w3.org/2000/svg">
<rect x="0.5" y="0.5" width="25" height="25" rx="4.5" stroke="#6D41A1"/>
<path d="M13 13C13.9283 13 14.8185 12.6313 15.4749 11.9749C16.1313 11.3185 16.5 10.4283 16.5 9.5C16.5 8.57174 16.1313 7.6815 15.4749 7.02513C14.8185 6.36875 13.9283 6 13 6C12.0717 6 11.1815 6.36875 10.5251 7.02513C9.86875 7.6815 9.5 8.57174 9.5 9.5C9.5 10.4283 9.86875 11.3185 10.5251 11.9749C11.1815 12.6313 12.0717 13 13 13ZM15.3333 9.5C15.3333 10.1188 15.0875 10.7123 14.6499 11.1499C14.2123 11.5875 13.6188 11.8333 13 11.8333C12.3812 11.8333 11.7877 11.5875 11.3501 11.1499C10.9125 10.7123 10.6667 10.1188 10.6667 9.5C10.6667 8.88116 10.9125 8.28767 11.3501 7.85008C11.7877 7.4125 12.3812 7.16667 13 7.16667C13.6188 7.16667 14.2123 7.4125 14.6499 7.85008C15.0875 8.28767 15.3333 8.88116 15.3333 9.5ZM20 18.8333C20 20 18.8333 20 18.8333 20H7.16667C7.16667 20 6 20 6 18.8333C6 17.6667 7.16667 14.1667 13 14.1667C18.8333 14.1667 20 17.6667 20 18.8333ZM18.8333 18.8287C18.8322 18.5417 18.6537 17.6783 17.8627 16.8873C17.102 16.1267 15.6705 15.3333 13 15.3333C10.3283 15.3333 8.898 16.1267 8.13733 16.8873C7.34633 17.6783 7.169 18.5417 7.16667 18.8287H18.8333Z" fill="#6D41A1"/>
</svg>
