<svg width="30" height="30" viewBox="0 0 30 30" fill="none" xmlns="http://www.w3.org/2000/svg">
<circle cx="15" cy="15" r="14.5" stroke="#6D41A1"/>
<path d="M17.9366 16.6667C17.8027 16.6667 17.6743 16.7193 17.5796 16.8131C17.4849 16.9069 17.4317 17.0341 17.4317 17.1667C17.4317 17.2993 17.4849 17.4265 17.5796 17.5202C17.6743 17.614 17.8027 17.6667 17.9366 17.6667H20.2928C20.4267 17.6667 20.5551 17.614 20.6498 17.5202C20.7445 17.4265 20.7977 17.2993 20.7977 17.1667C20.7977 17.0341 20.7445 16.9069 20.6498 16.8131C20.5551 16.7193 20.4267 16.6667 20.2928 16.6667H17.9366ZM7 11.5C7 10.837 7.26597 10.2011 7.7394 9.73223C8.21283 9.26339 8.85493 9 9.52446 9H20.6294C21.2989 9 21.941 9.26339 22.4145 9.73223C22.8879 10.2011 23.1538 10.837 23.1538 11.5V18.5C23.1538 19.163 22.8879 19.7989 22.4145 20.2678C21.941 20.7366 21.2989 21 20.6294 21H9.52513C8.8556 21 8.2135 20.7366 7.74007 20.2678C7.26664 19.7989 7.00067 19.163 7.00067 18.5V11.5H7ZM9.52446 10C9.12274 10 8.73748 10.158 8.45342 10.4393C8.16937 10.7206 8.00978 11.1022 8.00978 11.5V12H22.1441V11.5C22.1441 11.1022 21.9845 10.7206 21.7004 10.4393C21.4164 10.158 21.0311 10 20.6294 10H9.52513H9.52446ZM8.00978 18.5C8.00978 18.8978 8.16937 19.2794 8.45342 19.5607C8.73748 19.842 9.12274 20 9.52446 20H20.6294C21.0311 20 21.4164 19.842 21.7004 19.5607C21.9845 19.2794 22.1441 18.8978 22.1441 18.5V13H8.01046V18.5H8.00978Z" fill="#6D41A1"/>
</svg>
