<svg width="16" height="13" viewBox="0 0 16 13" fill="none" xmlns="http://www.w3.org/2000/svg">
<path d="M0 2.65909C0 1.95386 0.270918 1.27751 0.753154 0.77883C1.23539 0.280153 1.88944 0 2.57143 0H13.4286C14.1106 0 14.7646 0.280153 15.2468 0.77883C15.7291 1.27751 16 1.95386 16 2.65909V10.3409C16 11.0461 15.7291 11.7225 15.2468 12.2212C14.7646 12.7198 14.1106 13 13.4286 13H2.57143C1.88944 13 1.23539 12.7198 0.753154 12.2212C0.270918 11.7225 0 11.0461 0 10.3409V2.65909ZM2.57143 1.18182C2.19255 1.18182 1.82919 1.33746 1.56128 1.6145C1.29337 1.89154 1.14286 2.26729 1.14286 2.65909V3.54545H14.8571V2.65909C14.8571 2.26729 14.7066 1.89154 14.4387 1.6145C14.1708 1.33746 13.8075 1.18182 13.4286 1.18182H2.57143ZM1.14286 10.3409C1.14286 10.7327 1.29337 11.1085 1.56128 11.3855C1.82919 11.6625 2.19255 11.8182 2.57143 11.8182H13.4286C13.8075 11.8182 14.1708 11.6625 14.4387 11.3855C14.7066 11.1085 14.8571 10.7327 14.8571 10.3409V4.72727H1.14286V10.3409ZM10.8571 8.27273H12.5714C12.723 8.27273 12.8683 8.33498 12.9755 8.4458C13.0827 8.55662 13.1429 8.70692 13.1429 8.86364C13.1429 9.02036 13.0827 9.17066 12.9755 9.28147C12.8683 9.39229 12.723 9.45455 12.5714 9.45455H10.8571C10.7056 9.45455 10.5602 9.39229 10.4531 9.28147C10.3459 9.17066 10.2857 9.02036 10.2857 8.86364C10.2857 8.70692 10.3459 8.55662 10.4531 8.4458C10.5602 8.33498 10.7056 8.27273 10.8571 8.27273Z" fill="#6D41A1"/>
</svg>
