<svg width="30" height="30" viewBox="0 0 30 30" fill="none" xmlns="http://www.w3.org/2000/svg">
<circle cx="15" cy="15" r="14.5" stroke="#6D41A1"/>
<path d="M20.022 18.1044V14.0876C20.0213 13.0184 19.6604 11.9807 18.9974 11.1419C18.3345 10.3031 17.4083 9.71218 16.3682 9.46447V9.11152C16.3682 8.81673 16.2511 8.53401 16.0426 8.32556C15.8342 8.11711 15.5515 8 15.2567 8C14.9619 8 14.6792 8.11711 14.4707 8.32556C14.2623 8.53401 14.1452 8.81673 14.1452 9.11152V9.46877C13.1087 9.71929 12.1866 10.3109 11.5268 11.1485C10.867 11.9862 10.5079 13.0213 10.5071 14.0876V18.1044L9 19.6115V20.3077H21.5291V19.6115L20.022 18.1044Z" stroke="#6D41A1" stroke-width="1.2" stroke-linecap="round" stroke-linejoin="round"/>
<path d="M13.5881 20.3086C13.5848 20.5295 13.6255 20.7489 13.7079 20.954C13.7902 21.159 13.9124 21.3457 14.0675 21.5031C14.2226 21.6604 14.4074 21.7854 14.6113 21.8707C14.8151 21.956 15.0339 22 15.2548 22C15.4758 22 15.6945 21.956 15.8984 21.8707C16.1022 21.7854 16.287 21.6604 16.4421 21.5031C16.5972 21.3457 16.7195 21.159 16.8018 20.954C16.8841 20.7489 16.9248 20.5295 16.9216 20.3086" stroke="#6D41A1" stroke-width="1.2" stroke-linecap="round" stroke-linejoin="round"/>
</svg>
