<svg width="30" height="30" viewBox="0 0 30 30" fill="none" xmlns="http://www.w3.org/2000/svg">
<circle cx="15" cy="15" r="14.5" stroke="#6D41A1"/>
<path d="M21.8714 8.12943C21.9332 8.19124 21.9753 8.26982 21.9928 8.35541C22.0102 8.441 22.0021 8.52982 21.9695 8.61085L16.7817 21.5798C16.736 21.694 16.6597 21.7934 16.5611 21.8671C16.4625 21.9407 16.3456 21.9857 16.2231 21.9971C16.1006 22.0085 15.9773 21.9859 15.8668 21.9318C15.7564 21.8777 15.663 21.7942 15.5969 21.6904L12.7636 17.2372L8.31048 14.404C8.20645 14.338 8.12268 14.2445 8.0684 14.1339C8.01412 14.0234 7.99145 13.8999 8.00289 13.7773C8.01432 13.6546 8.05942 13.5375 8.13321 13.4389C8.20699 13.3402 8.30659 13.2639 8.42103 13.2182L21.39 8.03225C21.471 7.99963 21.5599 7.99154 21.6455 8.00897C21.731 8.02641 21.8096 8.0686 21.8714 8.13032V8.12943ZM13.6534 16.9769L16.1149 20.8443L20.3344 10.2958L13.6534 16.9769ZM19.7041 9.66552L9.15564 13.8851L13.024 16.3457L19.705 9.66552H19.7041Z" fill="#6D41A1"/>
</svg>
