<svg width="14" height="15" viewBox="0 0 14 15" fill="none" xmlns="http://www.w3.org/2000/svg">
<path d="M0 13.994V1.00619C0 0.639867 0.120517 0.360797 0.36155 0.168977C0.602583 -0.0221767 0.857006 -0.0511499 1.12482 0.0820583L13.4978 6.57595C13.8326 6.75911 14 7.06716 14 7.50008C14 7.93301 13.8326 8.24105 13.4978 8.42422L1.12482 14.9181C0.857006 15.0513 0.602583 15.022 0.36155 14.8302C0.120517 14.639 0 14.3603 0 13.994ZM1.60689 12.4954L11.1277 7.50008L1.60689 2.50478V6.00149L6.42755 7.50008L1.60689 8.99868V12.4954ZM1.60689 7.50008V2.50478V12.4954V7.50008Z" fill="#6D41A1"/>
</svg>
