<svg width="47" height="34" viewBox="0 0 47 34" fill="none" xmlns="http://www.w3.org/2000/svg">
<path d="M30.9778 17.7727C30.9778 17.5473 30.9052 17.3622 30.76 17.2173L22.2411 8.71733C22.0959 8.57244 21.9103 8.5 21.6844 8.5C21.4586 8.5 21.273 8.57244 21.1278 8.71733L12.6331 17.1932C12.4718 17.3864 12.3911 17.5795 12.3911 17.7727C12.3911 17.9981 12.4637 18.1832 12.6089 18.3281C12.7541 18.473 12.9397 18.5455 13.1656 18.5455H18.5867V27.0455C18.5867 27.2547 18.6633 27.4358 18.8166 27.5888C18.9699 27.7417 19.1514 27.8182 19.3611 27.8182H24.0078C24.2175 27.8182 24.399 27.7417 24.5523 27.5888C24.7056 27.4358 24.7822 27.2547 24.7822 27.0455V18.5455H30.2033C30.4131 18.5455 30.5946 18.469 30.7479 18.3161C30.9011 18.1631 30.9778 17.982 30.9778 17.7727ZM46.4667 24.7273C46.4667 27.2869 45.5591 29.4723 43.744 31.2834C41.9289 33.0945 39.7387 34 37.1733 34H10.8422C7.85738 34 5.30414 32.9415 3.18248 30.8246C1.06083 28.7076 0 26.16 0 23.1818C0 21.089 0.564699 19.1572 1.6941 17.3864C2.8235 15.6155 4.34012 14.2874 6.24396 13.402C6.21169 12.919 6.19556 12.5729 6.19556 12.3636C6.19556 8.95076 7.40562 6.03693 9.82576 3.62216C12.2459 1.20739 15.1662 0 18.5867 0C21.1036 0 23.4068 0.700284 25.4962 2.10085C27.5856 3.50142 29.1062 5.3608 30.0581 7.67898C31.2037 6.68087 32.5428 6.18182 34.0756 6.18182C35.7858 6.18182 37.2459 6.78551 38.456 7.9929C39.6661 9.20028 40.2711 10.6572 40.2711 12.3636C40.2711 13.5871 39.9404 14.6979 39.2789 15.696C41.3763 16.1951 43.0986 17.2857 44.4459 18.968C45.7931 20.6503 46.4667 22.5701 46.4667 24.7273Z" fill="#CDCDCD"/>
</svg>
