<svg width="20" height="20" viewBox="0 0 20 20" fill="none" xmlns="http://www.w3.org/2000/svg">
<path fill-rule="evenodd" clip-rule="evenodd" d="M19.5652 20H0.434783C0.194348 20 0 19.7789 0 19.5054C0 19.2319 0.194348 19.0108 0.434783 19.0108H19.5652C19.8057 19.0108 20 19.2319 20 19.5054C20 19.7789 19.8057 20 19.5652 20ZM6.52174 15.0542C6.76217 15.0542 6.95652 15.2752 6.95652 15.5487C6.95652 15.8222 6.76217 16.0433 6.52174 16.0433H3.04348C2.80304 16.0433 2.6087 15.8222 2.6087 15.5487C2.6087 15.2752 2.80304 15.0542 3.04348 15.0542H3.47826V8.62456H3.04348C2.80304 8.62456 2.6087 8.40348 2.6087 8.12998C2.6087 7.85697 2.80304 7.63539 3.04348 7.63539H6.52174C6.76217 7.63539 6.95652 7.85697 6.95652 8.12998C6.95652 8.40348 6.76217 8.62456 6.52174 8.62456H6.08696V15.0542H6.52174ZM5.21739 8.62456H4.34783V15.0542H5.21739V8.62456ZM11.7391 15.0542C11.9796 15.0542 12.1739 15.2752 12.1739 15.5487C12.1739 15.8222 11.9796 16.0433 11.7391 16.0433H8.26087C8.02043 16.0433 7.82609 15.8222 7.82609 15.5487C7.82609 15.2752 8.02043 15.0542 8.26087 15.0542H8.69565V8.62456H8.26087C8.02043 8.62456 7.82609 8.40348 7.82609 8.12998C7.82609 7.85697 8.02043 7.63539 8.26087 7.63539H11.7391C11.9796 7.63539 12.1739 7.85697 12.1739 8.12998C12.1739 8.40348 11.9796 8.62456 11.7391 8.62456H11.3043V15.0542H11.7391ZM10.4348 8.62456H9.56522V15.0542H10.4348V8.62456ZM18.6957 17.5271C18.6957 17.8006 18.5013 18.0217 18.2609 18.0217H1.73913C1.4987 18.0217 1.30435 17.8006 1.30435 17.5271C1.30435 17.2536 1.4987 17.0325 1.73913 17.0325H18.2609C18.5013 17.0325 18.6957 17.2536 18.6957 17.5271ZM16.9565 15.0542C17.197 15.0542 17.3913 15.2752 17.3913 15.5487C17.3913 15.8222 17.197 16.0433 16.9565 16.0433H13.4783C13.2378 16.0433 13.0435 15.8222 13.0435 15.5487C13.0435 15.2752 13.2378 15.0542 13.4783 15.0542H13.913V8.62456H13.4783C13.2378 8.62456 13.0435 8.40348 13.0435 8.12998C13.0435 7.85697 13.2378 7.63539 13.4783 7.63539H16.9565C17.197 7.63539 17.3913 7.85697 17.3913 8.12998C17.3913 8.40348 17.197 8.62456 16.9565 8.62456H16.5217V15.0542H16.9565ZM15.6522 8.62456H14.7826V15.0542H15.6522V8.62456ZM0.869565 5.65706L10 0L19.1304 5.65706V6.64622H0.869565V5.65706ZM17.1917 5.65706L10 1.42737L2.78087 5.65706H17.1917Z" fill="#828282"/>
</svg>
