<svg width="40" height="40" viewBox="0 0 40 40" fill="none" xmlns="http://www.w3.org/2000/svg">
<circle cx="20" cy="20" r="19.4" stroke="#6D41A1" stroke-width="1.2"/>
<path d="M27.5084 13.9408H22.627C22.3034 13.9408 21.993 14.0694 21.7641 14.2983C21.5353 14.5271 21.4067 14.8375 21.4067 15.1612C21.4067 15.4848 21.5353 15.7952 21.7641 16.0241C21.993 16.2529 22.3034 16.3815 22.627 16.3815H27.5084C27.832 16.3815 28.1424 16.2529 28.3713 16.0241C28.6002 15.7952 28.7287 15.4848 28.7287 15.1612C28.7287 14.8375 28.6002 14.5271 28.3713 14.2983C28.1424 14.0694 27.832 13.9408 27.5084 13.9408Z" fill="white"/>
<path d="M18.6912 11H12.678C12.2332 11.0008 11.8069 11.1778 11.4924 11.4924C11.1778 11.8069 11.0008 12.2332 11 12.678V18.6912C11 18.8125 11.0482 18.929 11.134 19.0148C11.2199 19.1006 11.3363 19.1488 11.4576 19.1488H17.4708C17.9159 19.1488 18.3427 18.972 18.6573 18.6573C18.972 18.3427 19.1488 17.9159 19.1488 17.4708V11.4576C19.1488 11.3363 19.1006 11.2199 19.0148 11.134C18.929 11.0482 18.8125 11 18.6912 11ZM18.2336 17.4708C18.2336 17.571 18.2138 17.6702 18.1755 17.7627C18.1372 17.8553 18.081 17.9393 18.0102 18.0102C17.9393 18.081 17.8553 18.1372 17.7627 18.1755C17.6702 18.2138 17.571 18.2336 17.4708 18.2336H11.9153V12.678C11.9153 12.4757 11.9956 12.2817 12.1386 12.1386C12.2817 11.9956 12.4757 11.9153 12.678 11.9153H18.2336V17.4708Z" fill="#6D41A1"/>
<path d="M17.4708 20.8508H11.4576C11.3363 20.8508 11.2199 20.899 11.134 20.9848C11.0482 21.0707 11 21.187 11 21.3084V27.3216C11.0008 27.7664 11.1778 28.1927 11.4924 28.5072C11.8069 28.8218 12.2332 28.9988 12.678 28.9996H18.6912C18.8125 28.9996 18.929 28.9514 19.0148 28.8656C19.1006 28.7797 19.1488 28.6634 19.1488 28.542V22.5287C19.1488 22.0837 18.972 21.6569 18.6573 21.3423C18.3427 21.0276 17.9159 20.8508 17.4708 20.8508ZM18.2336 28.0843H12.678C12.4757 28.0843 12.2817 28.004 12.1386 27.861C11.9956 27.7179 11.9153 27.5239 11.9153 27.3216V21.766H17.4708C17.571 21.766 17.6702 21.7858 17.7627 21.8241C17.8553 21.8624 17.9393 21.9186 18.0102 21.9894C18.081 22.0603 18.1372 22.1443 18.1755 22.2369C18.2138 22.3294 18.2336 22.4286 18.2336 22.5287V28.0843Z" fill="#6D41A1"/>
<path d="M28.5424 20.8508H22.5292C22.0842 20.8508 21.6574 21.0276 21.3427 21.3423C21.028 21.6569 20.8512 22.0837 20.8512 22.5287V28.542C20.8512 28.6634 20.8995 28.7797 20.9853 28.8656C21.0711 28.9514 21.1875 28.9996 21.3088 28.9996H27.3221C27.7668 28.9988 28.1932 28.8218 28.5077 28.5072C28.8222 28.1927 28.9992 27.7664 29 27.3216V21.3084C29 21.187 28.9518 21.0707 28.866 20.9848C28.7802 20.899 28.6638 20.8508 28.5424 20.8508ZM28.0848 27.3216C28.0848 27.5239 28.0044 27.7179 27.8614 27.861C27.7184 28.004 27.5244 28.0843 27.3221 28.0843H21.7665V22.5287C21.7665 22.3265 21.8468 22.1325 21.9899 21.9894C22.1329 21.8464 22.3269 21.766 22.5292 21.766H28.0848V27.3216Z" fill="#6D41A1"/>
<path d="M22.5292 16.7536H27.3221C27.7671 16.7536 28.1939 16.5768 28.5086 16.2621C28.8233 15.9474 29 15.5206 29 15.0756C29 14.6306 28.8233 14.2038 28.5086 13.8891C28.1939 13.5744 27.7671 13.3977 27.3221 13.3977H22.5292C22.0842 13.3977 21.6574 13.5744 21.3427 13.8891C21.028 14.2038 20.8512 14.6306 20.8512 15.0756C20.8512 15.5206 21.028 15.9474 21.3427 16.2621C21.6574 16.5768 22.0842 16.7536 22.5292 16.7536ZM22.5292 14.3129H27.3221C27.5244 14.3129 27.7184 14.3933 27.8614 14.5363C28.0044 14.6793 28.0848 14.8733 28.0848 15.0756C28.0848 15.2779 28.0044 15.4719 27.8614 15.6149C27.7184 15.758 27.5244 15.8383 27.3221 15.8383H22.5292C22.3269 15.8383 22.1329 15.758 21.9899 15.6149C21.8468 15.4719 21.7665 15.2779 21.7665 15.0756C21.7665 14.8733 21.8468 14.6793 21.9899 14.5363C22.1329 14.3933 22.3269 14.3129 22.5292 14.3129Z" fill="#6D41A1"/>
</svg>
