<svg width="80" height="62" viewBox="0 0 80 62" fill="none" xmlns="http://www.w3.org/2000/svg">
<path d="M4.816 58.168C4.05067 58.168 3.35533 57.986 2.73 57.622C2.10467 57.258 1.60533 56.726 1.232 56.026C0.868 55.3167 0.686 54.458 0.686 53.45C0.686 52.4513 0.872667 51.5973 1.246 50.888C1.62867 50.1693 2.13733 49.6233 2.772 49.25C3.40667 48.8673 4.10667 48.676 4.872 48.676C5.45067 48.676 5.964 48.7927 6.412 49.026C6.86 49.2593 7.22867 49.53 7.518 49.838L6.65 50.888C6.41667 50.6453 6.15533 50.454 5.866 50.314C5.586 50.1647 5.26867 50.09 4.914 50.09C4.41933 50.09 3.976 50.2253 3.584 50.496C3.20133 50.7573 2.898 51.1353 2.674 51.63C2.45933 52.1247 2.352 52.7173 2.352 53.408C2.352 54.4533 2.58067 55.2747 3.038 55.872C3.49533 56.46 4.10667 56.754 4.872 56.754C5.28267 56.754 5.64667 56.67 5.964 56.502C6.28133 56.3247 6.57067 56.096 6.832 55.816L7.7 56.838C7.32667 57.2673 6.89733 57.5987 6.412 57.832C5.936 58.056 5.404 58.168 4.816 58.168ZM9.08841 58V48.116H10.6984V50.664L10.6424 51.994C10.9317 51.7233 11.2537 51.4853 11.6084 51.28C11.9631 51.0653 12.3737 50.958 12.8404 50.958C13.5777 50.958 14.1144 51.196 14.4504 51.672C14.7864 52.148 14.9544 52.82 14.9544 53.688V58H13.3444V53.898C13.3444 53.3287 13.2604 52.9273 13.0924 52.694C12.9244 52.4607 12.6491 52.344 12.2664 52.344C11.9677 52.344 11.7017 52.4187 11.4684 52.568C11.2444 52.708 10.9877 52.918 10.6984 53.198V58H9.08841ZM19.709 58.168C19.1397 58.168 18.6077 58.028 18.113 57.748C17.6184 57.4587 17.217 57.048 16.909 56.516C16.601 55.9747 16.447 55.326 16.447 54.57C16.447 53.8047 16.601 53.156 16.909 52.624C17.217 52.0827 17.6184 51.672 18.113 51.392C18.6077 51.1027 19.1397 50.958 19.709 50.958C20.2877 50.958 20.8244 51.1027 21.319 51.392C21.8137 51.672 22.215 52.0827 22.523 52.624C22.831 53.156 22.985 53.8047 22.985 54.57C22.985 55.326 22.831 55.9747 22.523 56.516C22.215 57.048 21.8137 57.4587 21.319 57.748C20.8244 58.028 20.2877 58.168 19.709 58.168ZM19.709 56.852C20.213 56.852 20.6097 56.642 20.899 56.222C21.1884 55.802 21.333 55.2513 21.333 54.57C21.333 53.8793 21.1884 53.324 20.899 52.904C20.6097 52.484 20.213 52.274 19.709 52.274C19.205 52.274 18.8084 52.484 18.519 52.904C18.239 53.324 18.099 53.8793 18.099 54.57C18.099 55.2513 18.239 55.802 18.519 56.222C18.8084 56.642 19.205 56.852 19.709 56.852ZM27.3926 58.168C26.8233 58.168 26.2913 58.028 25.7966 57.748C25.302 57.4587 24.9006 57.048 24.5926 56.516C24.2846 55.9747 24.1306 55.326 24.1306 54.57C24.1306 53.8047 24.2846 53.156 24.5926 52.624C24.9006 52.0827 25.302 51.672 25.7966 51.392C26.2913 51.1027 26.8233 50.958 27.3926 50.958C27.9713 50.958 28.508 51.1027 29.0026 51.392C29.4973 51.672 29.8986 52.0827 30.2066 52.624C30.5146 53.156 30.6686 53.8047 30.6686 54.57C30.6686 55.326 30.5146 55.9747 30.2066 56.516C29.8986 57.048 29.4973 57.4587 29.0026 57.748C28.508 58.028 27.9713 58.168 27.3926 58.168ZM27.3926 56.852C27.8966 56.852 28.2933 56.642 28.5826 56.222C28.872 55.802 29.0166 55.2513 29.0166 54.57C29.0166 53.8793 28.872 53.324 28.5826 52.904C28.2933 52.484 27.8966 52.274 27.3926 52.274C26.8886 52.274 26.492 52.484 26.2026 52.904C25.9226 53.324 25.7826 53.8793 25.7826 54.57C25.7826 55.2513 25.9226 55.802 26.2026 56.222C26.492 56.642 26.8886 56.852 27.3926 56.852ZM34.1255 58.168C33.6589 58.168 33.1922 58.0793 32.7255 57.902C32.2589 57.7153 31.8575 57.4867 31.5215 57.216L32.2775 56.18C32.5855 56.4133 32.8935 56.6 33.2015 56.74C33.5095 56.88 33.8362 56.95 34.1815 56.95C34.5549 56.95 34.8302 56.8707 35.0075 56.712C35.1849 56.5533 35.2735 56.3573 35.2735 56.124C35.2735 55.928 35.1989 55.7693 35.0495 55.648C34.9095 55.5173 34.7275 55.4053 34.5035 55.312C34.2795 55.2093 34.0462 55.1113 33.8035 55.018C33.5049 54.906 33.2062 54.7707 32.9075 54.612C32.6182 54.444 32.3802 54.234 32.1935 53.982C32.0069 53.7207 31.9135 53.3987 31.9135 53.016C31.9135 52.4093 32.1375 51.9147 32.5855 51.532C33.0335 51.1493 33.6402 50.958 34.4055 50.958C34.8909 50.958 35.3249 51.042 35.7075 51.21C36.0902 51.378 36.4215 51.5693 36.7015 51.784L35.9595 52.764C35.7169 52.5867 35.4695 52.4467 35.2175 52.344C34.9749 52.232 34.7182 52.176 34.4475 52.176C34.1022 52.176 33.8455 52.2507 33.6775 52.4C33.5095 52.54 33.4255 52.7173 33.4255 52.932C33.4255 53.2027 33.5655 53.408 33.8455 53.548C34.1255 53.688 34.4522 53.8233 34.8255 53.954C35.1429 54.066 35.4509 54.206 35.7495 54.374C36.0482 54.5327 36.2955 54.7427 36.4915 55.004C36.6969 55.2653 36.7995 55.6107 36.7995 56.04C36.7995 56.628 36.5709 57.132 36.1135 57.552C35.6562 57.9627 34.9935 58.168 34.1255 58.168ZM41.1768 58.168C40.5422 58.168 39.9682 58.028 39.4548 57.748C38.9415 57.4587 38.5355 57.048 38.2368 56.516C37.9382 55.9747 37.7888 55.326 37.7888 54.57C37.7888 53.8233 37.9382 53.1793 38.2368 52.638C38.5448 52.0967 38.9415 51.6813 39.4268 51.392C39.9122 51.1027 40.4208 50.958 40.9528 50.958C41.5782 50.958 42.1008 51.098 42.5208 51.378C42.9408 51.6487 43.2582 52.0313 43.4728 52.526C43.6875 53.0113 43.7948 53.576 43.7948 54.22C43.7948 54.556 43.7715 54.8173 43.7248 55.004H39.3568C39.4315 55.6107 39.6508 56.082 40.0148 56.418C40.3788 56.754 40.8362 56.922 41.3868 56.922C41.6855 56.922 41.9608 56.88 42.2128 56.796C42.4742 56.7027 42.7308 56.5767 42.9828 56.418L43.5288 57.426C43.2022 57.6407 42.8382 57.818 42.4368 57.958C42.0355 58.098 41.6155 58.168 41.1768 58.168ZM39.3428 53.912H42.3948C42.3948 53.38 42.2782 52.9647 42.0448 52.666C41.8115 52.358 41.4615 52.204 40.9948 52.204C40.5935 52.204 40.2342 52.3533 39.9168 52.652C39.6088 52.9413 39.4175 53.3613 39.3428 53.912ZM49.8013 58.168C49.2039 58.168 48.7139 57.9813 48.3313 57.608C47.9579 57.2347 47.7713 56.7493 47.7713 56.152C47.7713 55.4147 48.0933 54.8453 48.7373 54.444C49.3813 54.0333 50.4079 53.7533 51.8173 53.604C51.8079 53.24 51.7099 52.9273 51.5233 52.666C51.3459 52.3953 51.0239 52.26 50.5573 52.26C50.2213 52.26 49.8899 52.3253 49.5633 52.456C49.2459 52.5867 48.9333 52.7453 48.6253 52.932L48.0373 51.854C48.4199 51.6113 48.8493 51.4013 49.3253 51.224C49.8106 51.0467 50.3239 50.958 50.8653 50.958C51.7239 50.958 52.3633 51.2147 52.7833 51.728C53.2126 52.232 53.4273 52.9647 53.4273 53.926V58H52.0973L51.9853 57.244H51.9293C51.6213 57.5053 51.2899 57.7247 50.9353 57.902C50.5899 58.0793 50.2119 58.168 49.8013 58.168ZM50.3193 56.908C50.5993 56.908 50.8513 56.8427 51.0753 56.712C51.3086 56.572 51.5559 56.3853 51.8173 56.152V54.612C50.8839 54.7333 50.2353 54.9153 49.8713 55.158C49.5073 55.3913 49.3253 55.6807 49.3253 56.026C49.3253 56.334 49.4186 56.558 49.6053 56.698C49.7919 56.838 50.0299 56.908 50.3193 56.908ZM58.4368 58V52.4H57.5128V51.196L58.4368 51.126V50.412C58.4368 49.6933 58.6141 49.1053 58.9688 48.648C59.3234 48.1813 59.9068 47.948 60.7188 47.948C60.9614 47.948 61.1948 47.9713 61.4188 48.018C61.6428 48.0647 61.8294 48.1207 61.9788 48.186L61.6708 49.39C61.4188 49.278 61.1668 49.222 60.9148 49.222C60.3361 49.222 60.0468 49.6093 60.0468 50.384V51.126H61.3908V52.4H60.0468V58H58.4368ZM62.6001 58V51.126H64.2101V58H62.6001ZM63.4121 49.922C63.1228 49.922 62.8895 49.838 62.7121 49.67C62.5348 49.502 62.4461 49.278 62.4461 48.998C62.4461 48.7273 62.5348 48.508 62.7121 48.34C62.8895 48.172 63.1228 48.088 63.4121 48.088C63.7015 48.088 63.9348 48.172 64.1121 48.34C64.2895 48.508 64.3781 48.7273 64.3781 48.998C64.3781 49.278 64.2895 49.502 64.1121 49.67C63.9348 49.838 63.7015 49.922 63.4121 49.922ZM67.8322 58.168C67.2629 58.168 66.8569 57.9953 66.6142 57.65C66.3809 57.3047 66.2642 56.8333 66.2642 56.236V48.116H67.8742V56.32C67.8742 56.516 67.9115 56.656 67.9862 56.74C68.0609 56.8147 68.1402 56.852 68.2242 56.852C68.2615 56.852 68.2942 56.852 68.3222 56.852C68.3595 56.8427 68.4109 56.8333 68.4762 56.824L68.6862 58.028C68.5929 58.0653 68.4715 58.098 68.3222 58.126C68.1822 58.154 68.0189 58.168 67.8322 58.168ZM73.005 58.168C72.3703 58.168 71.7963 58.028 71.283 57.748C70.7696 57.4587 70.3636 57.048 70.065 56.516C69.7663 55.9747 69.617 55.326 69.617 54.57C69.617 53.8233 69.7663 53.1793 70.065 52.638C70.373 52.0967 70.7696 51.6813 71.255 51.392C71.7403 51.1027 72.249 50.958 72.781 50.958C73.4063 50.958 73.929 51.098 74.349 51.378C74.769 51.6487 75.0863 52.0313 75.301 52.526C75.5156 53.0113 75.623 53.576 75.623 54.22C75.623 54.556 75.5996 54.8173 75.553 55.004H71.185C71.2596 55.6107 71.479 56.082 71.843 56.418C72.207 56.754 72.6643 56.922 73.215 56.922C73.5136 56.922 73.789 56.88 74.041 56.796C74.3023 56.7027 74.559 56.5767 74.811 56.418L75.357 57.426C75.0303 57.6407 74.6663 57.818 74.265 57.958C73.8636 58.098 73.4436 58.168 73.005 58.168ZM71.171 53.912H74.223C74.223 53.38 74.1063 52.9647 73.873 52.666C73.6396 52.358 73.2896 52.204 72.823 52.204C72.4216 52.204 72.0623 52.3533 71.745 52.652C71.437 52.9413 71.2456 53.3613 71.171 53.912ZM77.8887 58.168C77.6553 58.168 77.4547 58.0887 77.2867 57.93C77.128 57.762 77.0487 57.552 77.0487 57.3C77.0487 57.0293 77.128 56.8147 77.2867 56.656C77.4547 56.488 77.6553 56.404 77.8887 56.404C78.1127 56.404 78.304 56.488 78.4627 56.656C78.6307 56.8147 78.7147 57.0293 78.7147 57.3C78.7147 57.552 78.6307 57.762 78.4627 57.93C78.304 58.0887 78.1127 58.168 77.8887 58.168Z" fill="#828282"/>
<path d="M46.9778 17.7727C46.9778 17.5473 46.9052 17.3622 46.76 17.2173L38.2411 8.71733C38.0959 8.57244 37.9103 8.5 37.6844 8.5C37.4586 8.5 37.273 8.57244 37.1278 8.71733L28.6331 17.1932C28.4718 17.3864 28.3911 17.5795 28.3911 17.7727C28.3911 17.9981 28.4637 18.1832 28.6089 18.3281C28.7541 18.473 28.9397 18.5455 29.1656 18.5455H34.5867V27.0455C34.5867 27.2547 34.6633 27.4358 34.8166 27.5888C34.9699 27.7417 35.1514 27.8182 35.3611 27.8182H40.0078C40.2175 27.8182 40.399 27.7417 40.5523 27.5888C40.7056 27.4358 40.7822 27.2547 40.7822 27.0455V18.5455H46.2033C46.4131 18.5455 46.5946 18.469 46.7479 18.3161C46.9011 18.1631 46.9778 17.982 46.9778 17.7727ZM62.4667 24.7273C62.4667 27.2869 61.5591 29.4723 59.744 31.2834C57.9289 33.0945 55.7387 34 53.1733 34H26.8422C23.8574 34 21.3041 32.9415 19.1825 30.8246C17.0608 28.7076 16 26.16 16 23.1818C16 21.089 16.5647 19.1572 17.6941 17.3864C18.8235 15.6155 20.3401 14.2874 22.244 13.402C22.2117 12.919 22.1956 12.5729 22.1956 12.3636C22.1956 8.95076 23.4056 6.03693 25.8258 3.62216C28.2459 1.20739 31.1662 0 34.5867 0C37.1036 0 39.4068 0.700284 41.4962 2.10085C43.5856 3.50142 45.1062 5.3608 46.0581 7.67898C47.2037 6.68087 48.5428 6.18182 50.0756 6.18182C51.7858 6.18182 53.2459 6.78551 54.456 7.9929C55.6661 9.20028 56.2711 10.6572 56.2711 12.3636C56.2711 13.5871 55.9404 14.6979 55.2789 15.696C57.3763 16.1951 59.0986 17.2857 60.4459 18.968C61.7931 20.6503 62.4667 22.5701 62.4667 24.7273Z" fill="#B6B6B6"/>
</svg>
