<svg width="40" height="40" viewBox="0 0 40 40" fill="none" xmlns="http://www.w3.org/2000/svg">
<circle cx="20" cy="20" r="19.4" stroke="#6D41A1" stroke-width="1.2"/>
<path d="M17.75 13.25C18.3063 13.25 18.85 13.415 19.3125 13.724C19.7751 14.033 20.1355 14.4723 20.3484 14.9862C20.5613 15.5001 20.617 16.0656 20.5085 16.6112C20.3999 17.1568 20.1321 17.6579 19.7387 18.0512C19.3454 18.4446 18.8443 18.7124 18.2987 18.821C17.7531 18.9295 17.1876 18.8738 16.6737 18.6609C16.1598 18.448 15.7205 18.0876 15.4115 17.625C15.1025 17.1625 14.9375 16.6188 14.9375 16.0625C14.9375 15.3166 15.2338 14.6012 15.7613 14.0738C16.2887 13.5463 17.0041 13.25 17.75 13.25ZM17.75 12.125C16.9712 12.125 16.21 12.3559 15.5624 12.7886C14.9149 13.2212 14.4102 13.8362 14.1122 14.5557C13.8142 15.2752 13.7362 16.0669 13.8882 16.8307C14.0401 17.5945 14.4151 18.2961 14.9658 18.8467C15.5164 19.3974 16.218 19.7724 16.9818 19.9243C17.7456 20.0763 18.5373 19.9983 19.2568 19.7003C19.9763 19.4023 20.5913 18.8976 21.0239 18.2501C21.4566 17.6025 21.6875 16.8413 21.6875 16.0625C21.6875 15.0182 21.2727 14.0167 20.5342 13.2783C19.7958 12.5398 18.7943 12.125 17.75 12.125ZM23.375 27.875H22.25V25.0625C22.25 24.3166 21.9537 23.6012 21.4262 23.0738C20.8988 22.5463 20.1834 22.25 19.4375 22.25H16.0625C15.3166 22.25 14.6012 22.5463 14.0738 23.0738C13.5463 23.6012 13.25 24.3166 13.25 25.0625V27.875H12.125V25.0625C12.125 24.0182 12.5398 23.0167 13.2783 22.2783C14.0167 21.5398 15.0182 21.125 16.0625 21.125H19.4375C20.4818 21.125 21.4833 21.5398 22.2217 22.2783C22.9602 23.0167 23.375 24.0182 23.375 25.0625V27.875ZM23.375 13.25H29V14.375H23.375V13.25ZM23.375 16.0625H29V17.1875H23.375V16.0625ZM23.375 18.875H27.3125V20H23.375V18.875Z" fill="#6D41A1"/>
</svg>
