<svg width="23" height="27" viewBox="0 0 23 27" fill="none" xmlns="http://www.w3.org/2000/svg">
<path fill-rule="evenodd" clip-rule="evenodd" d="M23 7.58996V23.6132C23 24.5079 22.6538 25.3659 22.0376 25.9985C21.4214 26.6311 20.5857 26.9865 19.7143 26.9865H18.0714V25.2999H19.7143C20.15 25.2999 20.5679 25.1222 20.876 24.8058C21.1841 24.4895 21.3571 24.0605 21.3571 23.6132V7.58996H18.0714C17.4179 7.58996 16.7911 7.3234 16.3289 6.84894C15.8668 6.37448 15.6071 5.73096 15.6071 5.05997V1.68666H6.57143C6.13572 1.68666 5.71785 1.86436 5.40975 2.18067C5.10166 2.49698 4.92857 2.92598 4.92857 3.37331V18.5532H3.28571V3.37331C3.28571 2.47866 3.63189 1.62064 4.24808 0.988021C4.86427 0.355402 5.7 0 6.57143 0L15.6071 0L23 7.58996ZM5.77793 25.0317C5.78733 25.2974 5.85081 25.5582 5.96426 25.7973C6.07772 26.0364 6.23865 26.2484 6.43671 26.4198C6.65029 26.6019 6.9115 26.7436 7.222 26.8448C7.53414 26.9477 7.89722 26.9983 8.3145 26.9983C8.86979 26.9983 9.33964 26.9089 9.72571 26.7318C10.1134 26.5547 10.4091 26.3068 10.6112 25.9897C10.8166 25.6709 10.9184 25.3015 10.9184 24.8832C10.9184 24.5054 10.8445 24.1917 10.6983 23.9387C10.5479 23.686 10.3355 23.4784 10.0822 23.3366C9.79122 23.1715 9.47779 23.0521 9.15236 22.9824L8.13214 22.7395C7.89165 22.6941 7.66455 22.5926 7.46843 22.4427C7.39347 22.3833 7.33305 22.3068 7.29198 22.2193C7.25091 22.1317 7.23032 22.0355 7.23186 21.9383C7.23186 21.6752 7.33371 21.4593 7.53579 21.2907C7.74114 21.1203 8.02207 21.0343 8.37693 21.0343C8.61186 21.0343 8.81393 21.0731 8.98479 21.149C9.14205 21.2148 9.28093 21.3197 9.38893 21.4543C9.49004 21.5795 9.55795 21.7294 9.58607 21.8894H10.8182C10.7977 21.546 10.6839 21.2152 10.4896 20.9348C10.282 20.632 9.99806 20.393 9.66821 20.2433C9.26479 20.0616 8.82714 19.974 8.38679 19.9869C7.90543 19.9869 7.48157 20.0712 7.11193 20.2399C6.74229 20.4069 6.45479 20.6447 6.24614 20.95C6.0375 21.2569 5.934 21.6162 5.934 22.0277C5.934 22.3668 5.99971 22.6619 6.13443 22.9115C6.26914 23.1629 6.463 23.3669 6.71271 23.5305C6.96243 23.6908 7.25814 23.8122 7.59821 23.8898L8.6135 24.1327C8.95357 24.2153 9.20657 24.3233 9.37414 24.4582C9.45601 24.5223 9.52151 24.6058 9.565 24.7015C9.6085 24.7973 9.6287 24.9025 9.62386 25.0081C9.62703 25.1819 9.5783 25.3526 9.48421 25.4972C9.37843 25.6453 9.23283 25.7584 9.06529 25.8227C8.88293 25.902 8.65621 25.9408 8.38679 25.9408C8.19457 25.9408 8.02043 25.9189 7.86107 25.8733C7.71584 25.832 7.5782 25.7665 7.45364 25.6793C7.34427 25.6067 7.25064 25.5117 7.17857 25.4002C7.1065 25.2888 7.05753 25.1634 7.03471 25.0317H5.77793ZM1.32414 23.0954C1.32414 22.6771 1.38 22.3195 1.49171 22.0277C1.58916 21.7583 1.76171 21.5242 1.98786 21.3548C2.21835 21.1965 2.49105 21.1158 2.76821 21.1237C3.01464 21.1237 3.23314 21.1777 3.42207 21.2873C3.60722 21.3889 3.76175 21.5405 3.86893 21.7258C3.98343 21.9209 4.05101 22.1412 4.06607 22.3684H5.32286V22.247C5.31196 21.9363 5.23827 21.6313 5.10648 21.3514C4.97469 21.0715 4.78767 20.8228 4.55729 20.6211C4.32127 20.4157 4.04834 20.2599 3.75393 20.1623C3.43335 20.0509 3.0968 19.9956 2.75836 19.9987C2.1735 19.9987 1.67407 20.1235 1.26171 20.3748C0.851 20.6244 0.538857 20.9803 0.322 21.4408C0.108429 21.9029 0 22.4528 0 23.092V23.932C0 24.5712 0.105143 25.1194 0.317071 25.5781C0.532286 26.0352 0.846071 26.3877 1.25679 26.634C1.6675 26.8786 2.16693 27 2.75836 27C3.23971 27 3.6685 26.9072 4.048 26.7234C4.42586 26.5379 4.72814 26.2849 4.95157 25.9576C5.17822 25.6227 5.30703 25.2283 5.32286 24.8208V24.6927H4.06771C4.05222 24.9098 3.98571 25.1199 3.87386 25.3049C3.76437 25.484 3.61004 25.6296 3.427 25.7266C3.22186 25.8285 2.99604 25.8788 2.76821 25.8733C2.49066 25.8814 2.21711 25.8038 1.98293 25.6507C1.75796 25.4862 1.58672 25.2557 1.49171 24.9895C1.37159 24.6509 1.31474 24.2922 1.32414 23.932V23.0971V23.0954ZM14.8596 26.8701H13.294L11.0959 20.1252H12.6024L14.0744 25.4179H14.1368L15.5956 20.1252H17.0397L14.8596 26.8718V26.8701Z" fill="#A5B1BE"/>
</svg>
