<svg width="22" height="22" viewBox="0 0 22 22" fill="none" xmlns="http://www.w3.org/2000/svg">
<path d="M7.06957 13.9362L10.1879 7.63829C10.2621 7.46808 10.2621 7.21276 10.1879 7.04255L7.81203 2.61701C7.58929 2.27659 7.14382 2.27659 6.99533 2.61701L1.05568 14.7021C0.981439 14.8723 0.981439 15.1277 1.05568 15.2979L3.3573 19.7234" fill="white"/>
<path d="M7.06957 13.9362L10.1879 7.63829C10.2621 7.46808 10.2621 7.21276 10.1879 7.04255L7.81203 2.61701C7.58929 2.27659 7.14382 2.27659 6.99533 2.61701L1.05568 14.7021C0.981439 14.8723 0.981439 15.1277 1.05568 15.2979L3.3573 19.7234" stroke="#828282" stroke-miterlimit="10" stroke-linecap="round" stroke-linejoin="round"/>
<path d="M14.8654 15.2128H8.25751C8.03477 15.2128 7.88628 15.2979 7.81203 15.5532L5.73316 20.1489C5.58467 20.4894 5.8074 21 6.17863 21H18.0579C18.2807 21 18.4291 20.9149 18.5034 20.6596L20.5823 16.1489" fill="white"/>
<path d="M14.8654 15.2128H8.25751C8.03477 15.2128 7.88628 15.2979 7.81203 15.5532L5.73316 20.1489C5.58467 20.4894 5.8074 21 6.17863 21H18.0579C18.2807 21 18.4291 20.9149 18.5034 20.6596L20.5823 16.1489" stroke="#828282" stroke-miterlimit="10" stroke-linecap="round" stroke-linejoin="round"/>
<path d="M11.3758 6.2766L15.3108 13.5957C15.3851 13.766 15.5335 13.8511 15.7563 13.8511L20.508 13.766C20.8792 13.766 21.102 13.2553 20.9535 12.9149L14.5684 1.25532C14.4941 1.08511 14.2714 1 14.1229 1L9.66815 1.42553" fill="white"/>
<path d="M11.3758 6.2766L15.3108 13.5957C15.3851 13.766 15.5335 13.8511 15.7563 13.8511L20.508 13.766C20.8792 13.766 21.102 13.2553 20.9535 12.9149L14.5684 1.25532C14.4941 1.08511 14.2714 1 14.1229 1L9.66815 1.42553" stroke="#828282" stroke-miterlimit="10" stroke-linecap="round" stroke-linejoin="round"/>
</svg>
