<svg width="24" height="25" viewBox="0 0 24 25" fill="none" xmlns="http://www.w3.org/2000/svg">
<path d="M21.6951 0.791656H5.91732C5.39425 0.791656 4.89261 0.98346 4.52274 1.32487C4.15288 1.66628 3.94509 2.12934 3.94509 2.61217V5.34294H1.97287C1.4498 5.34294 0.948162 5.53474 0.578299 5.87615C0.208436 6.21757 0.000648499 6.68062 0.000648499 7.16345V18.0865C0.000648499 18.5694 0.208436 19.0324 0.578299 19.3738C0.948162 19.7152 1.4498 19.907 1.97287 19.907H3.94509V22.6378C3.94509 23.1206 4.15288 23.5837 4.52274 23.9251C4.89261 24.2665 5.39425 24.4583 5.91732 24.4583H21.6951C22.2182 24.4583 22.7198 24.2665 23.0897 23.9251C23.4595 23.5837 23.6673 23.1206 23.6673 22.6378V2.61217C23.6673 2.12934 23.4595 1.66628 23.0897 1.32487C22.7198 0.98346 22.2182 0.791656 21.6951 0.791656ZM16.7645 9.89422H21.6951V15.3558H16.7645V9.89422ZM21.6951 8.07371H16.7645V7.16345C16.7645 6.68062 16.5567 6.21757 16.1869 5.87615C15.817 5.53474 15.3154 5.34294 14.7923 5.34294V2.61217H21.6951V8.07371ZM5.91732 2.61217H12.8201V5.34294H5.91732V2.61217ZM1.97287 7.16345H14.7923V18.0865H1.97287V7.16345ZM5.91732 19.907H12.8201V22.6378H5.91732V19.907ZM14.7923 22.6378V19.907C15.3154 19.907 15.817 19.7152 16.1869 19.3738C16.5567 19.0324 16.7645 18.5694 16.7645 18.0865V17.1763H21.6951V22.6378H14.7923ZM5.37495 14.8096L7.14995 12.625L5.37495 10.4404C5.29726 10.3447 5.24072 10.2359 5.20858 10.1201C5.17644 10.0043 5.16933 9.88383 5.18764 9.76549C5.20596 9.64716 5.24934 9.53331 5.31532 9.43045C5.3813 9.32759 5.46858 9.23774 5.57218 9.16601C5.67577 9.09429 5.79366 9.04211 5.91911 9.01244C6.04456 8.98278 6.1751 8.97621 6.3033 8.99311C6.4315 9.01002 6.55483 9.05007 6.66626 9.11097C6.77769 9.17187 6.87503 9.25244 6.95273 9.34807L8.38259 11.1117L9.81245 9.34807C9.96937 9.15493 10.203 9.02725 10.4619 8.99311C10.7208 8.95897 10.9838 9.02117 11.193 9.16601C11.4022 9.31086 11.5406 9.5265 11.5775 9.76549C11.6145 10.0045 11.5472 10.2472 11.3902 10.4404L9.61523 12.625L11.3902 14.8096C11.5472 15.0027 11.6145 15.2455 11.5775 15.4845C11.5406 15.7235 11.4022 15.9391 11.193 16.084C11.0236 16.2044 10.8152 16.2686 10.6013 16.266C10.4483 16.266 10.2973 16.2331 10.1603 16.1699C10.0234 16.1067 9.90431 16.015 9.81245 15.9019L8.38259 14.1383L6.95273 15.9019C6.86088 16.015 6.74177 16.1067 6.60484 16.1699C6.46792 16.2331 6.31693 16.266 6.16384 16.266C5.95004 16.2686 5.74155 16.2044 5.57218 16.084C5.36295 15.9391 5.22463 15.7235 5.18764 15.4845C5.15066 15.2455 5.21803 15.0027 5.37495 14.8096V14.8096Z" fill="#A5B1BE"/>
</svg>
