<svg width="28" height="28" viewBox="0 0 28 28" fill="none" xmlns="http://www.w3.org/2000/svg">
<path d="M14 0C6.2678 0 0 6.2678 0 14C0 21.7322 6.2678 28 14 28C21.7322 28 28 21.7322 28 14C28 6.2678 21.7322 0 14 0Z" fill="url(#paint0_linear_9_146)"/>
<path d="M15.8955 17.7108H19.5187L20.0878 14.0302H15.8955V12.0184C15.8955 10.4896 16.3953 9.13366 17.8254 9.13366H20.1235V5.92206C19.7196 5.86746 18.8656 5.74846 17.2521 5.74846C13.8823 5.74846 11.9069 7.52786 11.9069 11.5823V14.0309H8.4426V17.7115H11.9062V27.8279C12.5922 27.9301 13.2873 28.0001 14.0006 28.0001C14.6453 28.0001 15.2746 27.9413 15.8955 27.8573V17.7108Z" fill="white"/>
<defs>
<linearGradient id="paint0_linear_9_146" x1="4.1951" y1="4.1951" x2="25.6305" y2="25.6305" gradientUnits="userSpaceOnUse">
<stop stop-color="#2AA4F4"/>
<stop offset="1" stop-color="#007AD9"/>
</linearGradient>
</defs>
</svg>
