<svg width="28" height="28" viewBox="0 0 28 28" fill="none" xmlns="http://www.w3.org/2000/svg">
<path d="M27.7276 11.258H26.5999V11.1999H13.9999V16.7999H21.912C20.7577 20.0598 17.656 22.3999 13.9999 22.3999C9.36105 22.3999 5.59997 18.6388 5.59997 13.9999C5.59997 9.36105 9.36105 5.59997 13.9999 5.59997C16.1412 5.59997 18.0893 6.40777 19.5726 7.72726L23.5325 3.76738C21.0321 1.43709 17.6875 0 13.9999 0C6.26847 0 0 6.26847 0 13.9999C0 21.7314 6.26847 27.9999 13.9999 27.9999C21.7314 27.9999 27.9999 21.7314 27.9999 13.9999C27.9999 13.0612 27.9033 12.1449 27.7276 11.258Z" fill="#FBC02D"/>
<path d="M1.61477 7.48366L6.21445 10.8569C7.45904 7.77556 10.4732 5.59997 14.0005 5.59997C16.1418 5.59997 18.0899 6.40777 19.5732 7.72726L23.5331 3.76738C21.0327 1.43709 17.6881 0 14.0005 0C8.62313 0 3.95976 3.03588 1.61477 7.48366Z" fill="#E53935"/>
<path d="M13.9992 27.9998C17.6153 27.9998 20.9011 26.6159 23.3854 24.3654L19.0524 20.6989C17.6468 21.7636 15.8997 22.3998 13.9992 22.3998C10.3578 22.3998 7.2659 20.078 6.10111 16.8377L1.53573 20.3552C3.85272 24.889 8.55809 27.9998 13.9992 27.9998Z" fill="#4CAF50"/>
<path d="M27.7276 11.258L27.7164 11.1999H26.5999H13.9999V16.7999H21.912C21.3576 18.3658 20.3503 19.7161 19.0511 20.6996C19.0518 20.6989 19.0525 20.6989 19.0532 20.6982L23.3862 24.3648C23.0796 24.6434 27.9999 20.9999 27.9999 13.9999C27.9999 13.0612 27.9033 12.1449 27.7276 11.258Z" fill="#1565C0"/>
</svg>
