<svg width="16" height="16" viewBox="0 0 16 16" fill="none" xmlns="http://www.w3.org/2000/svg">
<path d="M2.46154 1.84615C1.10954 1.84615 0 2.95508 0 4.30769V11.6923C0 13.0443 1.10954 14.1538 2.46154 14.1538H3.69231C3.85552 14.1538 4.01204 14.089 4.12745 13.9736C4.24286 13.8582 4.30769 13.7017 4.30769 13.5385V12.9231H4.92308V13.5385C4.92308 13.7017 4.98791 13.8582 5.10332 13.9736C5.21873 14.089 5.37525 14.1538 5.53846 14.1538H10.4615C10.6247 14.1538 10.7813 14.089 10.8967 13.9736C11.0121 13.8582 11.0769 13.7017 11.0769 13.5385V12.9231H11.6923V13.5385C11.6923 13.7017 11.7571 13.8582 11.8725 13.9736C11.988 14.089 12.1445 14.1538 12.3077 14.1538H13.5385C14.8905 14.1538 16 13.0443 16 11.6923V4.30769C16 2.95508 14.8905 1.84615 13.5385 1.84615H2.46154ZM2.46154 3.07692H13.5385C14.2246 3.07692 14.7692 3.62092 14.7692 4.30769V11.6923C14.7692 12.3785 14.2246 12.9231 13.5385 12.9231H12.9231V12.3077C12.9231 12.1445 12.8582 11.988 12.7428 11.8725C12.6274 11.7571 12.4709 11.6923 12.3077 11.6923H10.4615C10.2983 11.6923 10.1418 11.7571 10.0264 11.8725C9.91099 11.988 9.84615 12.1445 9.84615 12.3077V12.9231H6.15385V12.3077C6.15385 12.1445 6.08901 11.988 5.9736 11.8725C5.8582 11.7571 5.70167 11.6923 5.53846 11.6923H3.69231C3.5291 11.6923 3.37257 11.7571 3.25717 11.8725C3.14176 11.988 3.07692 12.1445 3.07692 12.3077V12.9231H2.46154C1.77538 12.9231 1.23077 12.3785 1.23077 11.6923V4.30769C1.23077 3.62092 1.77538 3.07692 2.46154 3.07692ZM4.92308 4.34646C4.22154 4.34646 3.71138 4.84308 3.71138 5.74954C3.71138 6.34215 3.96369 6.744 4.32677 7.11569C4.46831 7.48677 4.20677 7.61477 4.15385 7.63446C3.42031 7.89969 2.49969 8.29169 2.49969 8.76923V9.01908C2.49969 9.67015 3.75569 9.80738 4.92308 9.80738C6.09231 9.80738 7.34646 9.67015 7.34646 9.01969V8.76923C7.34646 8.27692 6.42338 7.88923 5.65415 7.63446C5.61785 7.62277 5.39938 7.536 5.53846 7.11508C5.90031 6.74338 6.11569 6.33969 6.11569 5.75015C6.11569 4.84246 5.624 4.34646 4.92308 4.34646V4.34646ZM11.3846 4.36492C11.0105 4.36492 10.6566 4.41908 10.3268 4.55754C10.0031 4.69082 9.70899 4.88691 9.46151 5.13449C9.21403 5.38208 9.01806 5.67624 8.88492 6C8.74523 6.32923 8.69231 6.69538 8.69231 7.07692C8.69231 7.47815 8.75077 7.83754 8.88492 8.17292C9.00702 8.49476 9.19493 8.78759 9.43663 9.03268C9.67833 9.27777 9.96851 9.46974 10.2886 9.59631C10.6321 9.72836 10.9976 9.79353 11.3655 9.78831C11.5932 9.78831 11.7963 9.79015 11.9809 9.76923C12.1643 9.74892 12.36 9.71631 12.5575 9.67323V9C12.3772 9.05231 12.176 9.10338 11.9618 9.13477C11.7477 9.16554 11.5477 9.17292 11.3649 9.17292C11.1065 9.17292 10.8517 9.12862 10.6154 9.03815C10.384 8.94863 10.1743 8.81104 10 8.63446C9.80716 8.45103 9.65623 8.2281 9.55754 7.98092C9.45169 7.71631 9.40369 7.41477 9.40369 7.07692C9.40369 6.76 9.46523 6.47323 9.57662 6.21169C9.68985 5.95015 9.83508 5.71692 10.0197 5.53846C10.2123 5.35385 10.4258 5.22769 10.6535 5.13477C10.8825 5.04061 11.1274 4.98092 11.3846 4.98092C11.6554 4.98092 11.9009 5.03138 12.1348 5.11569C12.3686 5.19938 12.5766 5.32492 12.7502 5.49969C12.9218 5.672 13.0585 5.88 13.1538 6.13477C13.2498 6.39015 13.2886 6.69785 13.2886 7.03877C13.2886 7.23138 13.2708 7.40923 13.2308 7.59631C13.1976 7.76793 13.1461 7.93547 13.0769 8.096H12.5963V5.57662H11.8646V5.76923C11.7904 5.69951 11.7062 5.64123 11.6148 5.59631C11.5007 5.54207 11.3755 5.5157 11.2492 5.51938C11.0761 5.51925 10.9052 5.5586 10.7495 5.63446C10.5895 5.70818 10.4457 5.81274 10.3262 5.94215C10.2031 6.08554 10.112 6.26523 10.0382 6.46154C9.96431 6.65846 9.92246 6.87446 9.92246 7.11569C9.92246 7.34954 9.95815 7.56985 10.0185 7.76923C10.0782 7.96923 10.1465 8.14092 10.2492 8.26954C10.3538 8.40185 10.4905 8.48738 10.6338 8.55754C10.7772 8.62769 10.9298 8.67323 11.0954 8.67323C11.208 8.67323 11.3003 8.66646 11.3649 8.65415C11.4308 8.64061 11.5003 8.62338 11.576 8.59631C11.6437 8.57415 11.6929 8.55261 11.7495 8.51938C11.8037 8.48615 11.8658 8.44123 11.9225 8.40369L11.9612 8.61538H13.5569C13.7033 8.39725 13.8138 8.15708 13.8843 7.904C13.9635 7.61578 14.0022 7.31796 13.9994 7.01908C13.9994 6.61723 13.9385 6.24738 13.8068 5.92308C13.6799 5.61193 13.49 5.33036 13.2492 5.096C13.0138 4.86148 12.7324 4.67815 12.4228 4.55754C12.0921 4.42739 11.7394 4.3622 11.384 4.36554L11.3846 4.36492ZM11.3458 6.13477C11.4412 6.13477 11.5397 6.13477 11.6154 6.15385C11.6905 6.17292 11.7569 6.20677 11.8462 6.24985V7.82708C11.7714 7.89614 11.6873 7.95435 11.5963 8C11.5079 8.04895 11.4088 8.07537 11.3077 8.07692C11.0923 8.07692 10.9403 7.98585 10.8462 7.82708C10.752 7.66831 10.6923 7.44061 10.6923 7.11569C10.6923 6.82092 10.752 6.58215 10.8652 6.40369C10.9135 6.31944 10.9838 6.2499 11.0686 6.20253C11.1533 6.15516 11.2494 6.13174 11.3465 6.13477H11.3458Z" fill="#828282"/>
</svg>
