<svg width="22" height="22" viewBox="0 0 22 22" fill="none" xmlns="http://www.w3.org/2000/svg">
<path d="M20.4132 12.3976L18.888 13.86L19.06 15.9664C19.0836 16.254 18.9016 16.5172 18.6248 16.5976L16.5948 17.1828L15.7692 19.1276C15.656 19.3932 15.3712 19.5444 15.0904 19.4844L13.0188 19.06L11.384 20.398C11.2724 20.4892 11.1368 20.5348 11.0004 20.5348C10.864 20.5348 10.7284 20.4892 10.6168 20.398L8.98238 19.06L6.91038 19.4844C6.62918 19.5452 6.34518 19.3928 6.23158 19.1276L5.40598 17.1828L3.37598 16.5976C3.09998 16.5172 2.91758 16.254 2.94078 15.9664L3.11278 13.86L1.58758 12.3976C1.37918 12.1984 1.34078 11.8796 1.49478 11.6368L2.62638 9.85198L1.95438 7.84798C1.86318 7.57478 1.97758 7.27518 2.22678 7.13158L4.05798 6.07558L4.39478 3.98998C4.44078 3.70518 4.68038 3.49278 4.96798 3.48118L7.07958 3.39798L8.34678 1.70718C8.52038 1.47718 8.83198 1.39998 9.09158 1.52398L11 2.43198L12.9084 1.52398C13.1668 1.39958 13.48 1.47678 13.6528 1.70718L14.9204 3.39798L17.032 3.48118C17.3196 3.49278 17.5592 3.70518 17.6064 3.98958L17.9432 6.07518L19.7744 7.13118C20.0236 7.27478 20.1372 7.57438 20.0468 7.84758L19.3752 9.85158L20.5064 11.6364C20.66 11.8796 20.6216 12.1984 20.4132 12.3976Z" stroke="#828282" stroke-miterlimit="10" stroke-linecap="round"/>
<path d="M7.28597 10.0296C7.21437 9.80198 7.19037 9.67038 7.19037 8.80798C7.19037 7.94558 7.21477 7.81398 7.28597 7.58638C7.47757 7.02358 7.98077 6.66438 8.66317 6.66438C9.34557 6.66438 9.84877 7.02358 10.04 7.58638C10.112 7.81398 10.136 7.94558 10.136 8.80798C10.136 9.66998 10.1116 9.80198 10.04 10.0296C9.84837 10.5924 9.34557 10.9516 8.66317 10.9516C7.98077 10.9516 7.47757 10.5924 7.28597 10.0296ZM9.30957 9.83798C9.34557 9.71838 9.36957 9.55038 9.36957 8.80798C9.36957 8.06558 9.34517 7.89798 9.30957 7.77798C9.21397 7.50278 8.97437 7.35878 8.66317 7.35878C8.35197 7.35878 8.11237 7.50238 8.01677 7.77798C7.98077 7.89758 7.95677 8.06558 7.95677 8.80798C7.95677 9.55038 7.98117 9.71798 8.01677 9.83798C8.11237 10.1132 8.35197 10.2572 8.66317 10.2572C8.97437 10.2572 9.21397 10.1136 9.30957 9.83798ZM12.9024 6.74838C12.9504 6.66478 12.998 6.62878 13.094 6.62878H13.6688C13.7408 6.62878 13.7644 6.68878 13.7288 6.74838L8.99837 14.9156C8.95077 14.9992 8.90277 15.0352 8.81877 15.0352H8.24397C8.17197 15.0352 8.13597 14.9756 8.17197 14.9156L12.9024 6.74838ZM11.7648 12.868C11.7648 12.0056 11.7888 11.874 11.8604 11.646C12.052 11.0832 12.5548 10.724 13.2376 10.724C13.92 10.724 14.4232 11.0832 14.6144 11.646C14.6864 11.8736 14.71 12.0052 14.71 12.868C14.71 13.7296 14.686 13.8616 14.6144 14.0892C14.4228 14.652 13.92 15.0116 13.2376 15.0116C12.5548 15.0116 12.052 14.6524 11.8604 14.0892C11.7888 13.8616 11.7648 13.7296 11.7648 12.868ZM13.238 14.3168C13.5492 14.3168 13.7888 14.1732 13.8844 13.8976C13.9204 13.778 13.944 13.61 13.944 12.868C13.944 12.1256 13.92 11.958 13.8844 11.838C13.7888 11.5628 13.5492 11.4188 13.238 11.4188C12.9268 11.4188 12.6868 11.5624 12.5912 11.838C12.5552 11.958 12.5316 12.1256 12.5316 12.868C12.5316 13.61 12.5556 13.778 12.5912 13.8976C12.6868 14.1732 12.9264 14.3168 13.238 14.3168Z" fill="#828282"/>
</svg>
