<svg width="48" height="48" viewBox="0 0 48 48" fill="none" xmlns="http://www.w3.org/2000/svg">
<circle cx="24" cy="24" r="19.4" transform="rotate(-170.414 24 24)" stroke="#6D41A1" stroke-width="1.2"/>
<path d="M23 16C23 15.7348 23.1054 15.4804 23.2929 15.2929C23.4804 15.1054 23.7348 15 24 15H27C27.2652 15 27.5196 15.1054 27.7071 15.2929C27.8946 15.4804 28 15.7348 28 16V18C28 18.2652 27.8946 18.5196 27.7071 18.7071C27.5196 18.8946 27.2652 19 27 19H24C23.7348 19 23.4804 18.8946 23.2929 18.7071C23.1054 18.5196 23 18.2652 23 18V16ZM27 16H24V18H27V16ZM25.5 20C25.6326 20 25.7598 20.0527 25.8536 20.1464C25.9473 20.2402 26 20.3674 26 20.5V26.293L27.146 25.146C27.2399 25.0521 27.3672 24.9994 27.5 24.9994C27.6328 24.9994 27.7601 25.0521 27.854 25.146C27.9479 25.2399 28.0006 25.3672 28.0006 25.5C28.0006 25.6328 27.9479 25.7601 27.854 25.854L25.854 27.854C25.8076 27.9006 25.7524 27.9375 25.6916 27.9627C25.6309 27.9879 25.5658 28.0009 25.5 28.0009C25.4342 28.0009 25.3691 27.9879 25.3084 27.9627C25.2476 27.9375 25.1924 27.9006 25.146 27.854L23.146 25.854C23.0521 25.7601 22.9994 25.6328 22.9994 25.5C22.9994 25.3672 23.0521 25.2399 23.146 25.146C23.2399 25.0521 23.3672 24.9994 23.5 24.9994C23.6328 24.9994 23.7601 25.0521 23.854 25.146L25 26.293V20.5C25 20.3674 25.0527 20.2402 25.1464 20.1464C25.2402 20.0527 25.3674 20 25.5 20ZM16 25C16 24.7348 16.1054 24.4804 16.2929 24.2929C16.4804 24.1054 16.7348 24 17 24H20C20.2652 24 20.5196 24.1054 20.7071 24.2929C20.8946 24.4804 21 24.7348 21 25V27C21 27.2652 20.8946 27.5196 20.7071 27.7071C20.5196 27.8946 20.2652 28 20 28H17C16.7348 28 16.4804 27.8946 16.2929 27.7071C16.1054 27.5196 16 27.2652 16 27V25ZM20 25H17V27H20V25ZM14.5 26C14.6326 26 14.7598 26.0527 14.8536 26.1464C14.9473 26.2402 15 26.3674 15 26.5V28C15 28.2652 15.1054 28.5196 15.2929 28.7071C15.4804 28.8946 15.7348 29 16 29H28C28.2652 29 28.5196 28.8946 28.7071 28.7071C28.8946 28.5196 29 28.2652 29 28V26.5C29 26.3674 29.0527 26.2402 29.1464 26.1464C29.2402 26.0527 29.3674 26 29.5 26C29.6326 26 29.7598 26.0527 29.8536 26.1464C29.9473 26.2402 30 26.3674 30 26.5V28C30 28.5304 29.7893 29.0391 29.4142 29.4142C29.0391 29.7893 28.5304 30 28 30H16C15.4696 30 14.9609 29.7893 14.5858 29.4142C14.2107 29.0391 14 28.5304 14 28V26.5C14 26.3674 14.0527 26.2402 14.1464 26.1464C14.2402 26.0527 14.3674 26 14.5 26Z" fill="#6D41A1"/>
</svg>
