<svg width="292" height="180" viewBox="0 0 292 180" fill="none" xmlns="http://www.w3.org/2000/svg">
<path d="M14.303 165.941C14.4252 170.508 15.1893 175.036 16.5728 179.39C16.6034 179.491 16.6375 179.591 16.6706 179.692H25.1401C25.1312 179.601 25.122 179.5 25.1131 179.39C24.5485 172.889 27.7746 133.79 31.6675 127.023C31.3264 127.572 13.6463 145.283 14.303 165.941Z" fill="#F1F1F1"/>
<path d="M14.9382 179.39C15.009 179.491 15.0826 179.592 15.1581 179.692H21.5121C21.464 179.606 21.4082 179.505 21.3434 179.39C20.2938 177.493 17.187 171.821 14.3032 165.941C11.2053 159.622 8.36079 153.063 8.60035 150.689C8.52612 151.225 6.38152 167.546 14.9382 179.39Z" fill="#F1F1F1"/>
<path d="M199.766 37.038C200.008 37.6385 200.379 38.1784 200.852 38.6197C201.326 39.0611 201.89 39.3931 202.505 39.5925C203.121 39.7918 203.772 39.8537 204.414 39.7736C205.056 39.6936 205.672 39.4736 206.22 39.1291L218.482 48.9798L219.241 40.8343L207.48 32.7287C206.841 31.8457 205.901 31.228 204.838 30.9927C203.775 30.7573 202.663 30.9208 201.712 31.4519C200.761 31.9831 200.038 32.8452 199.679 33.8747C199.32 34.9042 199.351 36.0298 199.766 37.038Z" fill="#9F616A"/>
<path d="M218.756 40.0695L214.179 36.8311L208.987 42.8377L215.026 46.4217L218.756 40.0695Z" fill="#6D41A1"/>
<path d="M217.752 37.8718L233.176 43.8152L248.024 34.0786C249.559 33.0724 251.406 32.6597 253.222 32.9178C255.038 33.1759 256.698 34.087 257.893 35.4811C259.087 36.8752 259.734 38.6569 259.712 40.4936C259.691 42.3303 259.003 44.0965 257.777 45.4623L257.644 45.61L234.807 57.8716L209.862 46.4594L217.752 37.8718Z" fill="#404A5F"/>
<path d="M213.405 179.078H52.6826L58.5103 65.1191H83.6616L106.854 81.399H219.233L213.405 179.078Z" fill="#E5E5E5"/>
<path d="M174.06 144.327L81.1649 106.014C80.8402 105.88 80.5819 105.622 80.4468 105.297C80.3116 104.972 80.3107 104.607 80.4441 104.282L122.537 1.92394C122.671 1.59871 122.929 1.34006 123.253 1.20473C123.577 1.0694 123.942 1.06845 124.267 1.20208L217.163 39.5144C217.487 39.6488 217.746 39.9067 217.881 40.2315C218.016 40.5564 218.017 40.9216 217.883 41.2472L175.791 143.605C175.657 143.93 175.399 144.189 175.075 144.324C174.75 144.459 174.386 144.46 174.06 144.327Z" fill="white"/>
<path d="M174.06 144.327L81.1649 106.014C80.8402 105.88 80.5819 105.622 80.4468 105.297C80.3116 104.972 80.3107 104.607 80.4441 104.282L122.537 1.92394C122.671 1.59871 122.929 1.34006 123.253 1.20473C123.577 1.0694 123.942 1.06845 124.267 1.20208L217.163 39.5144C217.487 39.6488 217.746 39.9067 217.881 40.2315C218.016 40.5564 218.017 40.9216 217.883 41.2472L175.791 143.605C175.657 143.93 175.399 144.189 175.075 144.324C174.75 144.459 174.386 144.46 174.06 144.327ZM124.065 1.693C123.87 1.61281 123.651 1.61338 123.457 1.69458C123.262 1.77578 123.108 1.93097 123.027 2.12612L80.9343 104.484C80.8543 104.679 80.8548 104.898 80.9359 105.093C81.017 105.288 81.172 105.443 81.3668 105.523L174.262 143.836C174.457 143.916 174.676 143.915 174.871 143.834C175.065 143.753 175.22 143.598 175.301 143.403L217.393 41.045C217.473 40.8497 217.473 40.6305 217.392 40.4356C217.311 40.2407 217.156 40.086 216.961 40.0053L124.065 1.693Z" fill="#404A5F"/>
<path d="M150.304 51.871L127.264 42.3688C126.939 42.2344 126.681 41.9765 126.545 41.6517C126.41 41.3268 126.409 40.9616 126.543 40.636L136.031 17.5626C136.165 17.2374 136.423 16.9787 136.747 16.8434C137.072 16.7081 137.436 16.7071 137.762 16.8407L160.802 26.343C161.126 26.4774 161.385 26.7353 161.52 27.0601C161.655 27.385 161.656 27.7502 161.522 28.0758L152.034 51.1492C151.9 51.4744 151.642 51.7331 151.318 51.8684C150.993 52.0037 150.629 52.0047 150.304 51.871ZM137.56 17.3317C137.365 17.2515 137.146 17.252 136.951 17.3332C136.757 17.4144 136.602 17.5696 136.522 17.7648L127.033 40.8382C126.953 41.0335 126.953 41.2527 127.035 41.4476C127.116 41.6425 127.271 41.7972 127.465 41.8779L150.506 51.3801C150.701 51.4603 150.919 51.4597 151.114 51.3785C151.309 51.2973 151.463 51.1421 151.544 50.947L161.032 27.8736C161.112 27.6783 161.112 27.4591 161.031 27.2642C160.95 27.0693 160.795 26.9146 160.6 26.8339L137.56 17.3317Z" fill="#F2F2F2"/>
<path d="M142.523 51.9633L119.483 42.461C119.191 42.3401 118.959 42.108 118.837 41.8156C118.715 41.5233 118.714 41.1945 118.835 40.9016L128.323 17.8281C128.444 17.5354 128.676 17.3026 128.968 17.1808C129.26 17.059 129.588 17.0582 129.88 17.1785L152.92 26.6807C153.213 26.8017 153.445 27.0338 153.567 27.3261C153.688 27.6185 153.689 27.9472 153.569 28.2402L144.081 51.3136C143.96 51.6063 143.728 51.8391 143.436 51.9609C143.144 52.0827 142.816 52.0836 142.523 51.9633Z" fill="#6D41A1"/>
<path d="M186.903 83.4721L114.841 53.7523C114.696 53.6925 114.565 53.6048 114.454 53.4941C114.343 53.3834 114.255 53.2519 114.194 53.1071C114.134 52.9623 114.103 52.807 114.103 52.6501C114.102 52.4933 114.133 52.3379 114.192 52.1928C114.252 52.0477 114.34 51.9159 114.45 51.8047C114.561 51.6936 114.692 51.6053 114.837 51.545C114.981 51.4847 115.136 51.4534 115.293 51.4531C115.45 51.4528 115.605 51.4834 115.75 51.5431L187.811 81.263C188.104 81.3836 188.336 81.6157 188.458 81.9082C188.58 82.2006 188.58 82.5295 188.46 82.8224C188.339 83.1154 188.108 83.3484 187.816 83.4703C187.524 83.5921 187.195 83.5928 186.903 83.4721V83.4721Z" fill="#CCCCCC"/>
<path d="M166.371 83.9043L111.712 61.3616C111.567 61.3019 111.436 61.2142 111.325 61.1035C111.214 60.9928 111.126 60.8613 111.065 60.7165C111.005 60.5717 110.974 60.4164 110.974 60.2595C110.973 60.1026 111.004 59.9472 111.064 59.8022C111.123 59.6571 111.211 59.5253 111.321 59.4141C111.432 59.303 111.563 59.2147 111.708 59.1544C111.852 59.094 112.007 59.0628 112.164 59.0625C112.321 59.0622 112.476 59.0928 112.621 59.1525L167.28 81.6951C167.572 81.8158 167.805 82.0478 167.926 82.3403C168.048 82.6328 168.049 82.9616 167.928 83.2546C167.808 83.5475 167.576 83.7806 167.284 83.9024C166.992 84.0242 166.664 84.0249 166.371 83.9043Z" fill="#CCCCCC"/>
<path d="M198.166 55.3878L166.302 42.2464C166.157 42.1867 166.026 42.0989 165.915 41.9882C165.804 41.8775 165.715 41.746 165.655 41.6012C165.595 41.4564 165.564 41.3011 165.563 41.1443C165.563 40.9874 165.594 40.832 165.653 40.6869C165.713 40.5419 165.801 40.41 165.911 40.2989C166.022 40.1877 166.153 40.0995 166.298 40.0391C166.442 39.9788 166.597 39.9476 166.754 39.9473C166.911 39.9469 167.066 39.9775 167.211 40.0373L199.074 53.1787C199.367 53.2993 199.6 53.5314 199.721 53.8239C199.843 54.1163 199.844 54.4452 199.723 54.7382C199.603 55.0311 199.371 55.2641 199.079 55.386C198.787 55.5078 198.459 55.5085 198.166 55.3878Z" fill="#CCCCCC"/>
<path d="M187.085 59.7185L163.173 49.8568C162.881 49.7361 162.648 49.504 162.526 49.2116C162.405 48.9191 162.404 48.5902 162.524 48.2973C162.645 48.0043 162.877 47.7713 163.169 47.6495C163.461 47.5276 163.789 47.527 164.082 47.6476L187.993 57.5094C188.286 57.63 188.519 57.8621 188.64 58.1546C188.762 58.447 188.763 58.7759 188.642 59.0689C188.522 59.3618 188.29 59.5948 187.998 59.7167C187.706 59.8385 187.377 59.8392 187.085 59.7185V59.7185Z" fill="#CCCCCC"/>
<path d="M180.644 98.6909L108.582 68.971C108.438 68.9113 108.306 68.8236 108.195 68.7129C108.084 68.6022 107.996 68.4707 107.935 68.3258C107.875 68.181 107.844 68.0258 107.844 67.8689C107.843 67.712 107.874 67.5566 107.934 67.4116C107.993 67.2665 108.081 67.1346 108.191 67.0235C108.302 66.9123 108.433 66.8241 108.578 66.7637C108.722 66.7034 108.878 66.6722 109.034 66.6719C109.191 66.6716 109.346 66.7021 109.491 66.7619L181.552 96.4817C181.845 96.6024 182.077 96.8345 182.199 97.1269C182.321 97.4194 182.321 97.7483 182.201 98.0412C182.081 98.3342 181.849 98.5672 181.557 98.689C181.265 98.8108 180.936 98.8115 180.644 98.6909V98.6909Z" fill="#CCCCCC"/>
<path d="M160.114 99.124L105.455 76.5814C105.311 76.5216 105.179 76.4339 105.068 76.3232C104.957 76.2125 104.869 76.081 104.809 75.9362C104.748 75.7914 104.717 75.6361 104.717 75.4792C104.716 75.3224 104.747 75.167 104.807 75.0219C104.866 74.8768 104.954 74.745 105.064 74.6338C105.175 74.5227 105.306 74.4344 105.451 74.3741C105.596 74.3138 105.751 74.2825 105.907 74.2822C106.064 74.2819 106.219 74.3125 106.364 74.3722L161.023 96.9148C161.168 96.9746 161.299 97.0623 161.41 97.173C161.521 97.2837 161.609 97.4152 161.67 97.56C161.73 97.7048 161.761 97.8601 161.761 98.017C161.762 98.1739 161.731 98.3293 161.671 98.4743C161.612 98.6194 161.524 98.7512 161.414 98.8624C161.303 98.9735 161.172 99.0618 161.027 99.1221C160.883 99.1825 160.728 99.2137 160.571 99.214C160.414 99.2143 160.259 99.1837 160.114 99.124Z" fill="#CCCCCC"/>
<path d="M174.387 113.91L102.326 84.1898C102.033 84.0691 101.8 83.837 101.679 83.5446C101.557 83.2521 101.556 82.9233 101.677 82.6303C101.797 82.3374 102.029 82.1043 102.321 81.9825C102.613 81.8607 102.941 81.86 103.234 81.9806L175.295 111.7C175.588 111.821 175.821 112.053 175.942 112.346C176.064 112.638 176.065 112.967 175.944 113.26C175.824 113.553 175.592 113.786 175.3 113.908C175.008 114.03 174.679 114.03 174.387 113.91Z" fill="#CCCCCC"/>
<path d="M171.256 121.519L99.1947 91.7991C98.9021 91.6785 98.6695 91.4464 98.5478 91.154C98.4261 90.8615 98.4255 90.5326 98.5459 90.2397C98.6664 89.9467 98.8981 89.7137 99.1902 89.5919C99.4822 89.47 99.8106 89.4694 100.103 89.59L172.165 119.31C172.309 119.37 172.441 119.457 172.552 119.568C172.663 119.679 172.751 119.81 172.811 119.955C172.872 120.1 172.903 120.255 172.903 120.412C172.904 120.569 172.873 120.724 172.813 120.869C172.754 121.014 172.666 121.146 172.556 121.257C172.445 121.369 172.314 121.457 172.169 121.517C172.024 121.577 171.869 121.609 171.713 121.609C171.556 121.609 171.401 121.579 171.256 121.519Z" fill="#CCCCCC"/>
<path d="M136.103 120.953C137.545 121.03 138.991 120.985 140.426 120.821C141.718 120.67 143.064 120.462 144.196 119.781C144.686 119.502 145.103 119.11 145.414 118.638C145.724 118.167 145.919 117.629 145.982 117.067C146.032 116.534 145.911 115.998 145.637 115.537C145.362 115.077 144.949 114.716 144.456 114.507C143.956 114.296 143.408 114.224 142.871 114.3C142.334 114.375 141.827 114.595 141.404 114.935C140.952 115.328 140.595 115.818 140.358 116.368C140.122 116.919 140.013 117.516 140.039 118.115C140.098 120.573 142.041 123.001 144.198 124.024C146.627 125.176 149.945 124.197 150.567 121.36C150.697 120.77 149.894 120.565 149.559 120.945C149.101 121.45 148.853 122.112 148.866 122.794C148.878 123.477 149.151 124.129 149.628 124.617C150.104 125.105 150.749 125.393 151.43 125.421C152.111 125.449 152.777 125.215 153.292 124.768L152.389 124.396C152.652 125.497 153.199 126.51 153.976 127.332C154.754 128.154 155.734 128.757 156.818 129.08C157.352 129.24 157.907 129.325 158.465 129.331C159.144 129.333 159.841 129.674 160.489 129.886L165.165 131.411C165.853 131.636 166.289 130.59 165.596 130.364L161.361 128.982C160.656 128.752 159.952 128.515 159.244 128.291C158.738 128.131 158.184 128.218 157.656 128.124C156.669 127.937 155.754 127.472 155.02 126.784C154.286 126.097 153.762 125.214 153.51 124.24C153.494 124.143 153.454 124.051 153.393 123.974C153.333 123.897 153.253 123.837 153.162 123.8C153.072 123.762 152.973 123.749 152.876 123.761C152.778 123.773 152.686 123.809 152.607 123.867C152.311 124.149 151.916 124.303 151.507 124.294C151.099 124.286 150.711 124.116 150.427 123.822C150.143 123.529 149.986 123.134 149.991 122.725C149.996 122.316 150.162 121.926 150.453 121.639L149.444 121.223C149.043 123.053 146.814 123.74 145.207 123.211C143.411 122.619 141.867 120.897 141.331 119.093C141.187 118.66 141.135 118.201 141.176 117.747C141.218 117.292 141.353 116.851 141.572 116.451C141.768 116.086 142.073 115.791 142.444 115.609C142.816 115.427 143.235 115.366 143.643 115.435C144.007 115.486 144.337 115.678 144.563 115.968C144.789 116.259 144.893 116.626 144.854 116.992C144.794 117.404 144.634 117.796 144.388 118.131C144.142 118.467 143.817 118.736 143.442 118.916C142.431 119.46 141.22 119.595 140.097 119.719C138.816 119.858 137.527 119.895 136.24 119.829C135.518 119.792 135.373 120.916 136.103 120.953L136.103 120.953Z" fill="#6D41A1"/>
<path d="M213.405 89.0777V179.078H52.6826V72.7979H77.8339L101.025 89.0777H213.405Z" fill="white"/>
<path d="M128.137 162.184H62.498V167.405H128.137V162.184Z" fill="#6D41A1"/>
<path d="M95.3174 152.048H62.498V157.27H95.3174V152.048Z" fill="#6D41A1"/>
<path d="M213.711 179.386H52.375V72.4922H77.9298L101.122 88.772H213.711V179.386ZM52.9884 178.772H213.098V89.3864H100.929L77.7362 73.1065H52.9884V178.772Z" fill="#404A5F"/>
<path d="M278.854 168.523L273.416 170.469L263.331 150.388L271.358 147.516L278.854 168.523Z" fill="#9F616A"/>
<path d="M264.592 179.582L264.512 179.359C263.868 177.546 263.967 175.551 264.79 173.812C265.612 172.073 267.09 170.731 268.899 170.081L279.609 166.248L282.127 173.306L264.592 179.582Z" fill="#404A5F"/>
<path d="M243.491 173.909H237.716L234.969 151.601L243.492 151.601L243.491 173.909Z" fill="#9F616A"/>
<path d="M244.964 179.516L226.342 179.515V179.279C226.342 178.326 226.529 177.382 226.894 176.501C227.258 175.621 227.792 174.82 228.465 174.146C229.138 173.472 229.937 172.938 230.816 172.573C231.696 172.208 232.638 172.02 233.59 172.021H233.59L244.964 172.021L244.964 179.516Z" fill="#404A5F"/>
<path d="M256.653 31.3881L254.142 26.418C254.142 26.418 244.785 28.7656 243.935 34.1963L256.653 31.3881Z" fill="#6D41A1"/>
<path d="M267.016 88.2177L260.185 126.389L278.321 158.509L267.487 162.755L249.115 131.619L246.76 123.128L245.346 167.472L235.575 167.175L231.095 125.768L238.28 87.2744L267.016 88.2177Z" fill="#404A5F"/>
<path d="M265.604 70.9711L265.367 48.5875C265.367 39.101 259.133 32.1089 258.269 31.4621C257.862 30.1624 257.133 29.2641 256.101 28.794C254.023 27.8507 251.481 28.9826 251.374 29.0335L243.749 31.8963L243.713 32.0011C243.632 32.2406 235.938 57.523 234.007 63.8682C233.732 64.7786 233.573 65.2996 233.573 65.2996C233.573 65.2996 233.603 66.7669 233.657 69.0487C233.827 76.8942 234.231 94.3699 234.392 95.1036C234.392 95.1036 248.476 97.2416 254.053 97.2416C264.085 97.2416 270.457 95.3192 270.6 95.2863L270.83 95.2383L265.604 70.9711Z" fill="#404A5F"/>
<path d="M251.285 23.5877C256.28 20.853 258.116 14.5805 255.385 9.5778C252.655 4.57507 246.391 2.73648 241.396 5.4712C236.4 8.20592 234.564 14.4784 237.295 19.4811C240.026 24.4838 246.289 26.3224 251.285 23.5877Z" fill="#9F616A"/>
<path opacity="0.2" d="M247.483 66.2348L233.657 69.0496C233.603 66.7678 233.573 65.3005 233.573 65.3005C233.573 65.3005 233.732 64.7795 234.007 63.8691L247.483 66.2348Z" fill="#404A5F"/>
<path d="M206.537 63.2839C207.028 63.7054 207.606 64.0141 208.229 64.188C208.852 64.362 209.505 64.3971 210.143 64.2907C210.781 64.1844 211.388 63.9394 211.921 63.5727C212.454 63.2061 212.9 62.7269 213.229 62.1689L228.641 65.2694L225.575 57.6866L211.409 55.9047C210.436 55.4147 209.318 55.2991 208.266 55.5797C207.214 55.8603 206.301 56.5177 205.7 57.4273C205.1 58.3369 204.854 59.4354 205.008 60.5149C205.162 61.5943 205.706 62.5795 206.537 63.2839Z" fill="#9F616A"/>
<path d="M224.794 57.2311L219.242 56.4629L217.391 64.1875L224.399 64.5893L224.794 57.2311Z" fill="#6D41A1"/>
<path d="M222.895 55.7431L239.321 53.9181L248.035 38.4345C248.936 36.8343 250.387 35.617 252.118 35.0099C253.849 34.4029 255.742 34.4475 257.443 35.1355C259.143 35.8234 260.536 37.1078 261.36 38.7486C262.184 40.3895 262.384 42.2747 261.922 44.0523L261.872 44.2447L247.223 65.6492L219.832 67.002L222.895 55.7431Z" fill="#404A5F"/>
<path d="M255.121 23.4929L246.565 23.8005C246.043 23.8192 244.628 18.1826 244.442 17.0133C244.296 16.252 243.878 15.5702 243.266 15.0951C242.654 14.62 241.891 14.3842 241.118 14.4316C240.478 14.4922 238.863 13.2939 237.196 11.875C234.032 9.18117 234.197 4.12179 237.672 1.84551C237.767 1.7833 237.86 1.72649 237.952 1.67509C240.145 0.446081 242.71 0.0333645 245.222 0.00189223C247.5 -0.0266374 249.842 0.260453 251.849 1.34007C255.446 3.2756 257.36 7.50526 257.529 11.5914C257.697 15.6775 256.389 19.673 254.904 23.4828" fill="#404A5F"/>
<path d="M291.693 180H0.306723C0.225375 180 0.147358 179.968 0.0898368 179.91C0.0323151 179.852 0 179.774 0 179.693C0 179.611 0.0323151 179.533 0.0898368 179.476C0.147358 179.418 0.225375 179.386 0.306723 179.386H291.693C291.775 179.386 291.853 179.418 291.91 179.476C291.968 179.533 292 179.611 292 179.693C292 179.774 291.968 179.852 291.91 179.91C291.853 179.968 291.775 180 291.693 180Z" fill="#CBCBCB"/>
</svg>
