<svg width="200" height="175" viewBox="0 0 200 175" fill="none" xmlns="http://www.w3.org/2000/svg">
<path d="M46.5803 48.7541C46.3588 48.763 36.9178 48.1136 36.6768 48.1056L37.5249 39.7068L42.9022 39.5461L53.1776 20.6657C51.7525 17.9698 53.5062 14.3927 56.5294 13.8414C62.6214 12.4677 64.7141 21.9759 58.6035 23.2412L50.1044 46.312C49.8377 47.0267 49.3573 47.6436 48.7275 48.0801C48.0977 48.5165 47.3486 48.7517 46.5803 48.7541Z" fill="#FFB8B8"/>
<path d="M21.6908 53.0799C12.7068 53.1018 11.9181 39.6322 20.9221 38.683C44.7312 37.2559 41.7183 31.3235 43.5264 48.8222C43.5819 49.3412 43.4276 49.8609 43.0973 50.2672C42.7671 50.6735 42.2878 50.9333 41.7647 50.9894L22.4706 53.0385C22.2116 53.066 21.9513 53.0799 21.6908 53.0799Z" fill="#6D41A1"/>
<path d="M19.6403 10.4935C32.0169 17.4803 21.8563 35.915 9.249 29.3505C-3.12721 22.364 7.03337 3.9293 19.6403 10.4935Z" fill="#FFB8B8"/>
<path d="M30.892 169.178L36.2983 169.178L38.8707 148.489L30.8911 148.49L30.892 169.178Z" fill="#FFB8B8"/>
<path d="M29.7337 174.159L46.726 174.158C46.6611 165.46 35.2959 167.966 29.7334 167.646L29.7337 174.159Z" fill="#2F2E41"/>
<path d="M7.51846 169.178L12.9247 169.178L15.4971 148.489L7.51758 148.49L7.51846 169.178Z" fill="#FFB8B8"/>
<path d="M6.36016 174.159L23.3524 174.158C23.2875 165.46 11.9224 167.966 6.35986 167.646L6.36016 174.159Z" fill="#2F2E41"/>
<path d="M13.6632 161.953C12.3565 161.597 5.25599 162.673 4.418 161.261C1.49149 132.162 2.14202 103.684 8.63831 88.0362L30.9744 86.6797C35.9692 95.7252 47.4505 155.75 40.5248 159.399L31.6189 159.714C31.1111 159.731 30.613 159.573 30.2083 159.269C29.8036 158.964 29.517 158.53 29.3966 158.04L21.9459 115.989C20.0905 113.416 16.4433 160.275 15.841 160.099C15.7625 160.616 15.4993 161.088 15.0995 161.428C14.6997 161.768 14.19 161.954 13.6632 161.953Z" fill="#2F2E41"/>
<path d="M7.92903 91.7145C-3.34818 80.0099 3.84515 48.6301 3.48108 49.2976C3.51198 48.5289 6.06625 36.6906 12.6736 34.7477C17.9157 33.0314 23.7178 38.1653 24.4335 43.3579L32.2862 89.3624C32.3268 89.6128 32.3075 89.8692 32.2299 90.1109C32.1522 90.3526 32.0184 90.5728 31.8391 90.7537C32.2253 91.9463 8.4811 91.4755 7.92903 91.7145Z" fill="#6D41A1"/>
<path d="M11.5887 18.7266C12.5791 18.1055 13.0672 17.0402 13.6437 16.0698C16.6802 14.353 20.1709 18.5062 23.3826 16.9562C32.4641 8.30721 23.1293 5.7556 14.7651 5.29952C12.7893 5.05794 11.1084 5.75327 9.61459 6.90169C-7.0932 5.63582 0.919622 27.6754 11.4643 30.5863C13.326 31.3953 14.7226 29.7579 13.0808 28.2695C10.8092 25.907 7.99527 21.1514 11.5887 18.7266Z" fill="#2F2E41"/>
<path d="M185.006 8.75024H64.1704C62.1829 8.75303 60.2777 9.53752 58.8723 10.9317C57.4669 12.3259 56.6762 14.216 56.6733 16.1877V167.563C56.6762 169.534 57.4669 171.424 58.8723 172.819C60.2777 174.213 62.1829 174.997 64.1704 175H185.006C186.993 174.997 188.899 174.213 190.304 172.819C191.709 171.424 192.5 169.534 192.503 167.563V16.1877C192.5 14.216 191.709 12.3259 190.304 10.9317C188.899 9.53752 186.993 8.75304 185.006 8.75024ZM191.621 167.563C191.619 169.302 190.921 170.97 189.681 172.201C188.441 173.431 186.76 174.123 185.006 174.125H64.1704C62.4167 174.123 60.7353 173.431 59.4952 172.201C58.2551 170.97 57.5575 169.302 57.5554 167.563V16.1877C57.5575 14.4479 58.2551 12.7799 59.4952 11.5497C60.7353 10.3194 62.4167 9.62736 64.1704 9.62524H185.006C186.76 9.62736 188.441 10.3194 189.681 11.5497C190.921 12.7799 191.619 14.4479 191.621 16.1877V167.563Z" fill="#3F3D56"/>
<path d="M191.621 167.563C191.619 169.302 190.921 170.97 189.681 172.201C188.441 173.431 186.76 174.123 185.006 174.125H64.1703C62.4165 174.123 60.7352 173.431 59.495 172.201C58.2549 170.97 57.5573 169.302 57.5552 167.563V16.1877C57.5573 14.4479 58.2549 12.7799 59.495 11.5497C60.7352 10.3194 62.4165 9.62736 64.1703 9.62524H185.006C186.76 9.62736 188.441 10.3194 189.681 11.5497C190.921 12.7799 191.619 14.4479 191.621 16.1877V167.563Z" fill="white"/>
<path d="M30.1238 72.4491C26.1412 72.8967 24.3928 63.7025 22.8701 61.3599L30.8015 58.3047L33.3823 62.9873L55.004 63.5205C55.1325 63.3478 55.2728 63.184 55.424 63.0305C59.7119 58.5764 66.6949 65.25 62.4232 69.6945C61.9519 70.1913 61.3798 70.5833 60.7447 70.8448C60.1096 71.1063 59.4258 71.2314 58.7384 71.2116C58.051 71.1919 57.3756 71.0279 56.7568 70.7304C56.138 70.4329 55.5897 70.0087 55.1481 69.4857C54.6142 69.5235 30.6459 72.463 30.1238 72.4491Z" fill="#FFB8B8"/>
<path d="M24.2499 68.0604C22.9239 69.3279 12.7438 51.5346 12 51.0316C6.856 43.0998 18.966 35.2686 24.1987 43.1575L34.7815 59.292C35.068 59.7298 35.1677 60.2624 35.0587 60.773C34.9498 61.2836 34.6412 61.7306 34.2005 62.0157C33.7182 62.2397 24.5903 68.5422 24.2499 68.0604Z" fill="#6D41A1"/>
<path d="M161.192 113.531H87.985C80.5068 113.496 80.4757 102.195 87.9853 102.156H161.192C168.665 102.191 168.705 113.492 161.192 113.531Z" fill="#CCCCCC"/>
<path d="M161.192 134.531H87.985C80.5068 134.496 80.4757 123.195 87.9853 123.156H161.192C168.665 123.191 168.705 134.492 161.192 134.531Z" fill="#CCCCCC"/>
<path d="M161.192 155.531H87.985C80.5068 155.496 80.4757 144.195 87.9853 144.156H161.192C168.665 144.191 168.705 155.492 161.192 155.531Z" fill="#CCCCCC"/>
<path d="M188.534 22.75C186.266 22.75 184.049 22.0828 182.164 20.8329C180.278 19.583 178.809 17.8065 177.941 15.728C177.073 13.6495 176.846 11.3624 177.288 9.15584C177.731 6.94931 178.823 4.92249 180.426 3.33167C182.03 1.74085 184.073 0.657478 186.297 0.218572C188.521 -0.220335 190.827 0.00492986 192.922 0.865876C195.017 1.72682 196.808 3.18479 198.068 5.05539C199.328 6.926 200 9.12524 200 11.375C199.997 14.3908 198.788 17.2821 196.638 19.4146C194.488 21.547 191.574 22.7466 188.534 22.75Z" fill="#6D41A1"/>
<path d="M193.826 10.9375H188.975V5.46875C188.975 5.35272 188.928 5.24143 188.846 5.15938C188.763 5.07734 188.651 5.03125 188.534 5.03125C188.417 5.03125 188.305 5.07734 188.222 5.15938C188.139 5.24143 188.093 5.35272 188.093 5.46875V10.9375H183.242C183.125 10.9375 183.013 10.9836 182.93 11.0656C182.847 11.1477 182.801 11.259 182.801 11.375C182.801 11.491 182.847 11.6023 182.93 11.6843C183.013 11.7664 183.125 11.8125 183.242 11.8125H188.093V17.2812C188.093 17.3973 188.139 17.5085 188.222 17.5906C188.305 17.6726 188.417 17.7187 188.534 17.7187C188.651 17.7187 188.763 17.6726 188.846 17.5906C188.928 17.5085 188.975 17.3973 188.975 17.2812V11.8125H193.826C193.943 11.8125 194.055 11.7664 194.138 11.6843C194.22 11.6023 194.267 11.491 194.267 11.375C194.267 11.259 194.22 11.1477 194.138 11.0656C194.055 10.9836 193.943 10.9375 193.826 10.9375Z" fill="white"/>
<path d="M159.869 88.5062H89.3078C87.3786 88.504 85.5291 87.7428 84.1649 86.3895C82.8008 85.0361 82.0334 83.2013 82.0312 81.2874V42.0876C82.0334 40.1738 82.8008 38.3389 84.1649 36.9856C85.5291 35.6323 87.3786 34.8711 89.3078 34.8689H159.869C161.798 34.8711 163.647 35.6323 165.012 36.9856C166.376 38.3389 167.143 40.1738 167.145 42.0876V81.2874C167.143 83.2013 166.376 85.0361 165.012 86.3895C163.647 87.7428 161.798 88.504 159.869 88.5062Z" fill="#6D41A1"/>
</svg>
