<svg width="54" height="54" viewBox="0 0 54 54" fill="none" xmlns="http://www.w3.org/2000/svg">
<rect width="54" height="54" rx="10" fill="#6D41A1"/>
<path d="M35.3333 18.5L33.6667 17L32 18.5L30.3333 17L28.6667 18.5L27 17L25.3333 18.5L23.6667 17L22 18.5L20.3333 17V31H17V34C17 35.66 18.4889 37 20.3333 37H33.6667C35.5111 37 37 35.66 37 34V17L35.3333 18.5ZM34.7778 34C34.7778 34.55 34.2778 35 33.6667 35C33.0556 35 32.5556 34.55 32.5556 34V31H22.5556V20H34.7778V34Z" fill="white"/>
<path d="M23.6667 22H30.3334V24H23.6667V22ZM31.4445 22H33.6667V24H31.4445V22ZM23.6667 25H30.3334V27H23.6667V25ZM31.4445 25H33.6667V27H31.4445V25Z" fill="white"/>
</svg>
