<svg width="237" height="240" viewBox="0 0 237 240" fill="none" xmlns="http://www.w3.org/2000/svg">
<path d="M154.251 63.6581H114.623C113.756 63.6607 112.899 63.4654 112.118 63.087C111.338 62.7087 110.653 62.1572 110.118 61.4747C109.573 60.7857 109.192 59.9814 109.005 59.123C108.817 58.2646 108.828 57.3747 109.036 56.5212C112.689 41.2235 112.689 25.2809 109.036 9.98322C108.828 9.12969 108.817 8.2399 109.005 7.38157C109.192 6.52324 109.573 5.71898 110.118 5.02997C110.653 4.34736 111.337 3.7959 112.118 3.41754C112.899 3.03919 113.756 2.84391 114.623 2.84658H154.251C155.619 2.85052 156.941 3.33998 157.982 4.22779C159.023 5.1156 159.716 6.34412 159.935 7.69453C162.543 24.6333 162.543 41.8714 159.935 58.8101C159.716 60.1605 159.023 61.389 157.982 62.2769C156.941 63.1647 155.619 63.6541 154.251 63.6581Z" fill="#E6E6E6"/>
<path d="M114.624 5.82826C114.207 5.82686 113.795 5.92051 113.42 6.10207C113.045 6.28364 112.717 6.54833 112.46 6.87603C112.195 7.21179 112.01 7.60355 111.919 8.0215C111.828 8.43946 111.834 8.87261 111.936 9.28799C115.697 25.0428 115.698 41.4618 111.936 57.2166C111.834 57.6319 111.828 58.0649 111.919 58.4828C112.01 58.9007 112.195 59.2924 112.459 59.6281L112.46 59.6283C112.717 59.9561 113.045 60.2208 113.42 60.4024C113.795 60.5841 114.207 60.6777 114.624 60.6763H154.251C154.908 60.6765 155.544 60.4435 156.045 60.0188C156.547 59.5941 156.881 59.0052 156.989 58.357C159.55 41.7186 159.55 24.786 156.989 8.14752C156.881 7.49936 156.547 6.91048 156.045 6.48576C155.544 6.06103 154.908 5.82803 154.251 5.82825L114.624 5.82826Z" fill="white"/>
<path d="M145.603 20.1657H124.808C124.018 20.1648 123.26 19.8504 122.701 19.2915C122.142 18.7325 121.828 17.9746 121.827 17.1841V16.0189C121.828 15.2284 122.142 14.4706 122.701 13.9116C123.26 13.3526 124.018 13.0382 124.808 13.0374H145.603C146.394 13.0382 147.152 13.3526 147.711 13.9116C148.269 14.4706 148.584 15.2284 148.585 16.0189V17.1841C148.584 17.9746 148.269 18.7325 147.711 19.2915C147.152 19.8504 146.394 20.1648 145.603 20.1657Z" fill="#E6E6E6"/>
<path d="M145.603 34.8882H124.808C124.018 34.8874 123.26 34.5729 122.701 34.014C122.142 33.455 121.828 32.6971 121.827 31.9066V30.7415C121.828 29.951 122.142 29.1931 122.701 28.6341C123.26 28.0751 124.018 27.7607 124.808 27.7599H145.603C146.394 27.7608 147.152 28.0751 147.711 28.6341C148.269 29.1931 148.584 29.951 148.585 30.7415V31.9066C148.584 32.6971 148.269 33.455 147.711 34.014C147.152 34.5729 146.394 34.8874 145.603 34.8882Z" fill="#E6E6E6"/>
<path d="M145.603 49.6108H124.808C124.018 49.6099 123.26 49.2955 122.701 48.7365C122.142 48.1775 121.828 47.4197 121.827 46.6292V45.464C121.828 44.6735 122.142 43.9156 122.701 43.3567C123.26 42.7977 124.018 42.4833 124.808 42.4824H145.603C146.394 42.4833 147.152 42.7977 147.711 43.3567C148.269 43.9156 148.584 44.6735 148.585 45.464V46.6292C148.584 47.4197 148.269 48.1775 147.711 48.7365C147.152 49.2955 146.394 49.6099 145.603 49.6108Z" fill="#E6E6E6"/>
<path d="M228.794 101.426H189.166C188.299 101.429 187.442 101.234 186.661 100.855C185.881 100.477 185.196 99.9256 184.661 99.243C184.116 98.554 183.735 97.7497 183.548 96.8913C183.36 96.0329 183.371 95.143 183.579 94.2895C187.232 78.9918 187.232 63.0492 183.579 47.7515C183.371 46.898 183.36 46.0082 183.548 45.1499C183.735 44.2916 184.116 43.4873 184.661 42.7983C185.196 42.1157 185.88 41.5642 186.661 41.1859C187.442 40.8075 188.299 40.6122 189.166 40.6149H228.794C230.162 40.6188 231.484 41.1083 232.525 41.9961C233.566 42.8839 234.259 44.1124 234.478 45.4628C237.086 62.4016 237.086 79.6397 234.478 96.5784C234.259 97.9288 233.566 99.1573 232.525 100.045C231.484 100.933 230.162 101.422 228.794 101.426Z" fill="#E6E6E6"/>
<path d="M189.166 43.5966C188.749 43.5952 188.338 43.6888 187.963 43.8704C187.588 44.0519 187.259 44.3166 187.002 44.6443C186.737 44.9801 186.552 45.3719 186.461 45.7898C186.371 46.2078 186.377 46.6409 186.478 47.0563C190.24 62.8111 190.24 79.2301 186.479 94.9849C186.377 95.4002 186.371 95.8332 186.462 96.2511C186.552 96.669 186.737 97.0607 187.002 97.3964L187.002 97.3966C187.259 97.7244 187.588 97.9891 187.963 98.1708C188.338 98.3524 188.749 98.446 189.166 98.4446H228.794C229.451 98.4448 230.086 98.2118 230.588 97.7871C231.089 97.3624 231.423 96.7735 231.531 96.1254C234.093 79.4869 234.093 62.5543 231.531 45.9158C231.423 45.2677 231.089 44.6788 230.588 44.2541C230.086 43.8293 229.451 43.5963 228.794 43.5966L189.166 43.5966Z" fill="white"/>
<path d="M149.778 144.413H110.151C109.246 144.415 108.352 144.212 107.537 143.817C106.723 143.422 106.009 142.847 105.45 142.135C104.882 141.416 104.485 140.577 104.289 139.682C104.094 138.787 104.105 137.859 104.322 136.969C107.965 121.71 107.965 105.807 104.322 90.5473C104.105 89.6572 104.094 88.7294 104.289 87.8343C104.485 86.9393 104.882 86.1006 105.45 85.3822C106.009 84.67 106.723 84.0947 107.537 83.6999C108.352 83.3052 109.245 83.1014 110.151 83.1042H149.778C151.206 83.1084 152.585 83.6192 153.671 84.5456C154.757 85.472 155.479 86.7538 155.708 88.1627C158.32 105.127 158.32 122.39 155.708 139.354C155.479 140.763 154.757 142.045 153.671 142.971C152.585 143.897 151.206 144.408 149.778 144.413Z" fill="#F2F2F2"/>
<path d="M220.146 65.3882H199.351C198.561 65.3874 197.803 65.073 197.244 64.514C196.685 63.955 196.37 63.1971 196.37 62.4066V61.2415C196.37 60.451 196.685 59.6931 197.244 59.1341C197.803 58.5752 198.561 58.2608 199.351 58.2599H220.146C220.937 58.2608 221.695 58.5752 222.253 59.1341C222.812 59.6931 223.127 60.451 223.128 61.2415V62.4067C223.127 63.1972 222.812 63.955 222.253 64.514C221.695 65.073 220.937 65.3874 220.146 65.3882Z" fill="#E6E6E6"/>
<path d="M220.146 80.1108H199.351C198.561 80.1099 197.803 79.7955 197.244 79.2365C196.685 78.6775 196.37 77.9197 196.37 77.1292V75.964C196.37 75.1735 196.685 74.4156 197.244 73.8567C197.803 73.2977 198.561 72.9833 199.351 72.9824H220.146C220.937 72.9833 221.695 73.2977 222.253 73.8567C222.812 74.4156 223.127 75.1735 223.128 75.964V77.1292C223.127 77.9197 222.812 78.6775 222.253 79.2365C221.695 79.7955 220.937 80.1099 220.146 80.1108Z" fill="#E6E6E6"/>
<path d="M130.075 124.983C136.388 124.983 141.505 119.866 141.505 113.553C141.505 107.241 136.388 102.123 130.075 102.123C123.763 102.123 118.646 107.241 118.646 113.553C118.646 119.866 123.763 124.983 130.075 124.983Z" fill="white"/>
<path d="M135.542 112.062H131.566V108.087C131.566 107.691 131.409 107.312 131.13 107.033C130.85 106.753 130.471 106.596 130.075 106.596C129.68 106.596 129.301 106.753 129.021 107.033C128.742 107.312 128.585 107.691 128.585 108.087V112.062H124.609C124.214 112.062 123.834 112.219 123.555 112.499C123.275 112.779 123.118 113.158 123.118 113.553C123.118 113.949 123.275 114.328 123.555 114.607C123.834 114.887 124.214 115.044 124.609 115.044H128.585V119.02C128.585 119.415 128.742 119.794 129.021 120.074C129.301 120.353 129.68 120.511 130.075 120.511C130.471 120.511 130.85 120.353 131.13 120.074C131.409 119.794 131.566 119.415 131.566 119.02V115.044H135.542C135.937 115.044 136.317 114.887 136.596 114.607C136.876 114.328 137.033 113.949 137.033 113.553C137.033 113.158 136.876 112.779 136.596 112.499C136.317 112.219 135.937 112.062 135.542 112.062Z" fill="#E6E6E6"/>
<path d="M144.487 8.44817H123.615C123.022 8.4475 122.454 8.21168 122.035 7.79244C121.615 7.3732 121.38 6.80478 121.379 6.21189V2.23628C121.38 1.64339 121.615 1.07497 122.035 0.655729C122.454 0.23649 123.022 0.000668179 123.615 0H144.487C145.08 0.000668179 145.648 0.23649 146.068 0.655729C146.487 1.07497 146.723 1.64339 146.723 2.23628V6.21189C146.723 6.80478 146.487 7.3732 146.068 7.79244C145.648 8.21168 145.08 8.4475 144.487 8.44817Z" fill="#CCCCCC"/>
<path d="M220.024 46.7134H199.152C198.559 46.7128 197.991 46.4769 197.571 46.0577C197.152 45.6384 196.916 45.07 196.916 44.4771V40.5015C196.916 39.9086 197.152 39.3402 197.571 38.921C197.991 38.5018 198.559 38.2659 199.152 38.2653H220.024C220.617 38.2659 221.185 38.5018 221.604 38.921C222.024 39.3402 222.259 39.9086 222.26 40.5015V44.4771C222.259 45.07 222.024 45.6384 221.604 46.0577C221.185 46.4769 220.617 46.7128 220.024 46.7134Z" fill="#CCCCCC"/>
<path d="M39.0264 234.094H45.119L47.0238 210.594H39.0254L39.0264 234.094Z" fill="#FFB8B8"/>
<path d="M37.4727 232.105L49.4709 232.105H49.4714C50.4756 232.105 51.4699 232.302 52.3976 232.687C53.3253 233.071 54.1682 233.634 54.8782 234.344C55.5883 235.054 56.1515 235.897 56.5357 236.825C56.92 237.752 57.1178 238.747 57.1178 239.751V239.999L37.473 240L37.4727 232.105Z" fill="#2F2E41"/>
<path d="M6.22805 234.094H12.3207L15.2194 210.594H6.22705L6.22805 234.094Z" fill="#FFB8B8"/>
<path d="M4.67383 232.105L16.6721 232.105H16.6726C17.6767 232.105 18.671 232.302 19.5987 232.687C20.5264 233.071 21.3694 233.634 22.0794 234.344C22.7894 235.054 23.3526 235.897 23.7369 236.825C24.1212 237.752 24.3189 238.747 24.3189 239.751V239.999L4.67421 240L4.67383 232.105Z" fill="#2F2E41"/>
<path d="M7.30874 226.671C6.68725 226.67 6.08853 226.437 5.63153 226.015C5.38621 225.792 5.18862 225.521 5.05065 225.218C4.91267 224.916 4.83715 224.59 4.82859 224.258L2.38525 136.688L37.078 145.361L47.7821 177.473C49.1624 181.604 49.7599 185.956 49.544 190.306L48.2148 221.434C48.1845 222.071 47.9097 222.673 47.4475 223.113C46.9854 223.554 46.3713 223.799 45.7329 223.799H39.9141C39.3135 223.796 38.7339 223.577 38.2816 223.182C37.8294 222.787 37.5347 222.242 37.4518 221.647L33.2928 187.287C32.9294 184.606 31.9917 182.036 30.5438 179.751L22.3593 166.793C22.3046 166.706 22.2245 166.639 22.1299 166.599C22.0353 166.56 21.9309 166.551 21.831 166.573C21.731 166.595 21.6404 166.648 21.5715 166.724C21.5026 166.8 21.4588 166.895 21.4461 166.996L15.0232 224.19C14.9543 224.77 14.6829 225.307 14.2568 225.707C13.8307 226.106 13.2773 226.343 12.694 226.375L7.45019 226.666C7.40301 226.669 7.35594 226.671 7.30874 226.671Z" fill="#2F2E41"/>
<path d="M31.3047 79.9927C38.0457 79.9927 43.5104 74.528 43.5104 67.7871C43.5104 61.0461 38.0457 55.5814 31.3047 55.5814C24.5638 55.5814 19.0991 61.0461 19.0991 67.7871C19.0991 74.528 24.5638 79.9927 31.3047 79.9927Z" fill="#FFB8B8"/>
<path d="M36.9118 148.922C36.7017 148.922 36.4926 148.896 36.2891 148.843H36.2888L1.86781 140.018C1.2524 139.86 0.720752 139.473 0.382187 138.935C0.0436217 138.398 -0.0761436 137.751 0.0475397 137.128L7.95261 94.5434C8.44511 92.0819 9.52768 89.7767 11.1074 87.8257C12.687 85.8747 14.7166 84.3362 17.0218 83.3424C19.268 82.3483 21.7243 81.9223 24.1741 82.1022C26.6238 82.282 28.9916 83.0621 31.0685 84.3736C31.5504 84.6743 32.0358 85.0021 32.5109 85.3481C34.4236 86.7591 35.9834 88.594 37.068 90.709C38.1525 92.8239 38.7324 95.1614 38.762 97.538L39.3906 146.402C39.3948 146.731 39.3339 147.057 39.2113 147.362C39.0887 147.667 38.907 147.945 38.6765 148.179C38.446 148.413 38.1714 148.6 37.8685 148.727C37.5656 148.855 37.2404 148.921 36.9118 148.922Z" fill="#6D41A1"/>
<path d="M5.4094 149.423C4.99879 148.819 4.72566 148.132 4.60925 147.411C4.49284 146.69 4.536 145.952 4.73566 145.249C4.93532 144.546 5.28663 143.896 5.76485 143.343C6.24308 142.791 6.83658 142.35 7.50356 142.052L5.97255 124.36L14.0858 128.757L14.2958 144.884C14.7223 146.038 14.7108 147.308 14.2635 148.453C13.8162 149.599 12.9642 150.541 11.8688 151.101C10.7734 151.66 9.51087 151.798 8.32037 151.489C7.12987 151.18 6.09412 150.445 5.40941 149.423H5.4094Z" fill="#FFB8B8"/>
<path d="M8.30781 139.712C8.07888 139.712 7.85089 139.683 7.62911 139.626C7.1521 139.505 6.71684 139.256 6.36938 138.908C6.02192 138.559 5.77518 138.123 5.65526 137.645L1.66813 121.801C0.27473 116.267 0.93897 110.415 3.53727 105.334L11.8904 88.9937C12.4185 87.0373 13.6943 85.3668 15.4428 84.3424C17.1913 83.3181 19.2723 83.022 21.2371 83.5181C22.2165 83.7653 23.1369 84.2046 23.9452 84.8103C24.7534 85.416 25.4334 86.1762 25.9457 87.0467C26.4685 87.9297 26.8104 88.9078 26.9515 89.9242C27.0926 90.9406 27.0301 91.9749 26.7677 92.9669L14.8769 119.557L15.0181 135.477C15.0218 136.038 14.8529 136.588 14.5343 137.05C14.2157 137.513 13.7628 137.866 13.2368 138.063L9.25755 139.541C8.95369 139.654 8.63206 139.712 8.30781 139.712Z" fill="#6D41A1"/>
<path d="M65.2266 142.916C64.5007 142.833 63.8019 142.591 63.1793 142.209C62.5568 141.827 62.0256 141.313 61.6232 140.703C61.2208 140.093 60.957 139.403 60.8503 138.68C60.7437 137.957 60.7968 137.22 61.006 136.52L46.5977 126.139L55.223 122.858L67.583 133.219C68.7357 133.648 69.6908 134.486 70.2674 135.572C70.844 136.659 71.0021 137.919 70.7116 139.114C70.4211 140.309 69.7023 141.356 68.6914 142.057C67.6805 142.758 66.4477 143.063 65.2266 142.916H65.2266Z" fill="#FFB8B8"/>
<path d="M57.684 135.335C57.2592 135.335 56.8403 135.236 56.4602 135.046L41.8503 127.732C36.7473 125.178 32.7455 120.857 30.5891 115.574L23.653 98.5831C22.5147 96.9064 22.0809 94.8497 22.4451 92.8562C22.8093 90.8627 23.9423 89.0921 25.5999 87.9263C26.4281 87.3439 27.3639 86.9323 28.3527 86.7153C29.3416 86.4983 30.3638 86.4803 31.3597 86.6623C32.3673 86.8435 33.329 87.2228 34.1889 87.7783C35.0488 88.3339 35.79 89.0545 36.3694 89.8985L48.7659 116.257L60.9242 126.535C61.3523 126.898 61.6585 127.385 61.8013 127.928C61.9441 128.471 61.9166 129.045 61.7226 129.572L60.2468 133.552C60.0541 134.074 59.706 134.524 59.2495 134.842C58.7905 135.163 58.244 135.335 57.684 135.335Z" fill="#6D41A1"/>
<path d="M28.7416 80.1797C29.3901 80.4634 30.7181 75.296 30.1232 74.2624C29.2385 72.7254 29.2908 72.7364 28.7035 71.7195C28.1162 70.7026 27.9848 69.3107 28.7454 68.416C29.5059 67.5212 31.2659 67.6399 31.613 68.7618C31.3897 66.6309 33.4974 64.9181 35.5851 64.4367C37.6729 63.9554 39.875 64.2543 41.9742 63.8259C44.4105 63.3288 46.9453 61.2866 45.9733 58.6076C45.8065 58.1615 45.5568 57.7511 45.2373 57.398C44.1142 56.1352 42.5432 55.5961 41.0073 55.0747C37.8118 53.9901 34.529 52.8919 31.1566 53.0117C28.378 53.1569 25.702 54.1091 23.456 55.7516C21.2101 57.3941 19.4917 59.6556 18.511 62.2596C18.2786 62.911 18.0986 63.5799 17.9726 64.26C16.8151 70.4839 20.4294 76.6231 26.2997 78.9931L28.7416 80.1797Z" fill="#2F2E41"/>
<path opacity="0.2" d="M14.3301 135.838L14.6069 119.474L23.2752 102.045L16.3179 119.936L14.3301 135.838Z" fill="black"/>
<path d="M92.9366 176.906L56.3419 161.701C55.5398 161.371 54.8236 160.862 54.2478 160.213C53.672 159.564 53.2519 158.792 53.0193 157.956C52.7801 157.111 52.7371 156.222 52.8933 155.357C53.0496 154.493 53.4011 153.675 53.921 152.967C63.1632 140.241 69.2801 125.519 71.7766 109.991C71.9118 109.123 72.2433 108.297 72.7457 107.576C73.2481 106.855 73.9083 106.259 74.6761 105.832C75.4325 105.407 76.2758 105.16 77.142 105.11C78.0081 105.06 78.8742 105.209 79.6743 105.544L116.269 120.748C117.531 121.277 118.564 122.236 119.185 123.456C119.806 124.675 119.974 126.075 119.658 127.406C115.568 144.049 108.954 159.968 100.046 174.61C99.325 175.773 98.2145 176.642 96.9125 177.062C95.6105 177.482 94.2016 177.427 92.9366 176.906Z" fill="#E6E6E6"/>
<path d="M78.5304 108.298C78.1462 108.136 77.7303 108.065 77.3143 108.089C76.8984 108.113 76.4933 108.231 76.13 108.435C75.7565 108.643 75.4355 108.934 75.1913 109.285C74.9472 109.636 74.7863 110.039 74.721 110.461C72.1498 126.454 65.8501 141.616 56.3318 154.722C56.0783 155.066 55.9067 155.464 55.8301 155.884C55.7535 156.305 55.7739 156.738 55.8898 157.149L55.8899 157.15C56.0016 157.551 56.2035 157.922 56.4801 158.233C56.7567 158.545 57.1007 158.789 57.486 158.948L94.0807 174.152C94.6874 174.405 95.3639 174.433 95.9898 174.233C96.6158 174.034 97.1504 173.618 97.4986 173.061C106.248 158.679 112.745 143.042 116.763 126.694C116.912 126.054 116.83 125.382 116.53 124.798C116.23 124.213 115.732 123.754 115.125 123.502L78.5304 108.298Z" fill="white"/>
<path d="M98.0151 142.144L78.8117 134.165C78.082 133.861 77.5028 133.28 77.2011 132.549C76.8994 131.818 76.8998 130.998 77.2023 130.268L77.6493 129.192C77.9534 128.462 78.5346 127.883 79.2652 127.581C79.9959 127.279 80.8164 127.28 81.5467 127.582L100.75 135.561C101.48 135.865 102.059 136.446 102.361 137.177C102.662 137.907 102.662 138.728 102.359 139.458L101.912 140.534C101.608 141.264 101.027 141.843 100.297 142.145C99.5659 142.447 98.7454 142.446 98.0151 142.144Z" fill="#6D41A1"/>
<path d="M92.3662 155.739L73.1628 147.761C72.4331 147.457 71.8539 146.875 71.5521 146.145C71.2504 145.414 71.2509 144.594 71.5534 143.863L72.0004 142.787C72.3045 142.058 72.8857 141.478 73.6163 141.177C74.347 140.875 75.1675 140.875 75.8978 141.178L95.1012 149.157C95.8309 149.461 96.4101 150.042 96.7118 150.772C97.0135 151.503 97.0131 152.324 96.7106 153.054L96.2635 154.13C95.9594 154.86 95.3783 155.439 94.6477 155.741C93.917 156.042 93.0965 156.042 92.3662 155.739Z" fill="#6D41A1"/>
<path d="M105.71 123.036C105.423 123.036 105.138 122.98 104.872 122.872L85.5213 115.048C84.9719 114.826 84.5334 114.394 84.3018 113.848C84.0703 113.302 84.0647 112.687 84.2862 112.137L85.7765 108.451C85.9989 107.901 86.4305 107.462 86.9765 107.231C87.5225 106.999 88.1381 106.994 88.6879 107.216L108.038 115.04C108.588 115.263 109.026 115.694 109.258 116.24C109.489 116.786 109.495 117.401 109.273 117.951L107.783 121.637C107.616 122.05 107.329 122.403 106.96 122.652C106.591 122.902 106.156 123.035 105.71 123.036Z" fill="#CCCCCC"/>
</svg>
