<svg width="23" height="27" viewBox="0 0 23 27" fill="none" xmlns="http://www.w3.org/2000/svg">
<path d="M12.1305 15.3804L12.1403 15.3382C12.3298 14.618 12.5683 13.72 12.3821 12.9064C12.258 12.2645 11.745 12.0144 11.3072 11.9963C10.7911 11.9752 10.3304 12.2464 10.2161 12.6412C10.0004 13.3644 10.1932 14.3528 10.546 15.6124C10.1017 16.5887 9.39276 18.008 8.8733 18.8518C7.90625 19.3128 6.60923 20.024 6.41648 20.922C6.37727 21.0877 6.42301 21.2987 6.53082 21.4885C6.6517 21.6994 6.84446 21.8622 7.06989 21.9405C7.1679 21.9737 7.28551 22.0008 7.42273 22.0008C7.99773 22.0008 8.92884 21.5729 10.1703 19.6081C10.3598 19.5509 10.5558 19.4906 10.7453 19.4304C11.6339 19.1531 12.5553 18.8638 13.3884 18.7343C14.3097 19.1893 15.3584 19.4816 16.0706 19.4816C16.7763 19.4816 17.054 19.0959 17.1585 18.8638C17.3415 18.457 17.2533 17.9448 16.956 17.6705C16.5247 17.2788 15.476 17.1763 13.8425 17.3632C13.0388 16.9112 12.5128 16.2964 12.1305 15.3804ZM8.54659 19.9577C8.09247 20.5664 7.74943 20.8708 7.56321 21.0033C7.7821 20.6327 8.21009 20.241 8.54659 19.9577ZM11.4085 12.8612C11.5784 13.1294 11.5555 13.94 11.4249 14.3498C11.2648 13.7501 11.2419 12.9003 11.3366 12.8009C11.3628 12.8039 11.3857 12.822 11.4085 12.8612ZM11.3563 16.4923C11.7058 17.0498 12.1469 17.5289 12.6337 17.8845C11.928 18.0321 11.2844 18.2762 10.7094 18.4932C10.5722 18.5444 10.4382 18.5956 10.3075 18.6439C10.742 17.9176 11.1047 17.095 11.3563 16.4923V16.4923ZM16.4398 18.4661C16.443 18.4721 16.4463 18.4811 16.4267 18.4932H16.4202L16.4136 18.5022C16.3875 18.5173 16.1196 18.6619 14.9663 18.2431C16.2928 18.1858 16.4365 18.4631 16.4398 18.4661V18.4661ZM22.6929 6.76808L15.6622 0.283259C15.4662 0.102455 15.2016 0 14.9239 0H1.04545C0.467188 0 0 0.430915 0 0.964286V26.0357C0 26.5691 0.467188 27 1.04545 27H21.9545C22.5328 27 23 26.5691 23 26.0357V7.45212C23 7.19598 22.8889 6.94888 22.6929 6.76808V6.76808ZM20.5889 7.89509H14.4403V2.22388L20.5889 7.89509ZM20.6477 24.8304H2.35227V2.16964H12.2188V8.67857C12.2188 9.01424 12.3633 9.33615 12.6206 9.5735C12.878 9.81085 13.227 9.9442 13.5909 9.9442H20.6477V24.8304Z" fill="#A5B1BE"/>
</svg>
