<svg width="40" height="40" viewBox="0 0 40 40" fill="none" xmlns="http://www.w3.org/2000/svg">
<circle cx="20" cy="20" r="19.4" stroke="#6D41A1" stroke-width="1.2"/>
<path d="M30 10H10V16H11V27C11 27.5304 11.2107 28.0391 11.5858 28.4142C11.9609 28.7893 12.4696 29 13 29H27C27.5304 29 28.0391 28.7893 28.4142 28.4142C28.7893 28.0391 29 27.5304 29 27V16H30V10ZM12 12H28V14H12V12ZM27 27H13V16H27V27ZM17 18H23C23 18.5304 22.7893 19.0391 22.4142 19.4142C22.0391 19.7893 21.5304 20 21 20H19C18.4696 20 17.9609 19.7893 17.5858 19.4142C17.2107 19.0391 17 18.5304 17 18Z" fill="#6D41A1"/>
</svg>
