<svg width="22" height="22" viewBox="0 0 22 22" fill="none" xmlns="http://www.w3.org/2000/svg">
<path d="M6.71423 14.8462V1L8.1428 1.76923L9.57137 1L10.9973 1.76923L12.4423 1L13.8571 1.76923L15.2763 1L16.7017 1.76923L18.1428 1L19.5718 1.76923L20.9999 1V11.7692" stroke="#828282" stroke-width="1.2" stroke-linejoin="round"/>
<path d="M21 11.7692V17.1538C21 18.1739 20.6237 19.1522 19.9539 19.8735C19.2842 20.5948 18.3758 21 17.4286 21V21C16.4814 21 15.573 20.5948 14.9032 19.8735C14.2334 19.1522 13.8571 18.1739 13.8571 17.1538V14.8461H1.71431C1.62028 14.8453 1.52702 14.8645 1.43998 14.9029C1.35295 14.9412 1.27387 14.9978 1.20738 15.0694C1.14088 15.1411 1.0883 15.2262 1.0527 15.3199C1.0171 15.4137 0.999194 15.5141 1.00003 15.6154C1.00003 18.6923 1.30092 21 4.57145 21H17.4286" stroke="#828282" stroke-width="1.2" stroke-linejoin="round"/>
<path d="M9.57147 5.61536H18.1429" stroke="#828282" stroke-width="1.2" stroke-linecap="round" stroke-linejoin="round"/>
<path d="M12.4285 9.46155H18.1428" stroke="#828282" stroke-width="1.2" stroke-linecap="round" stroke-linejoin="round"/>
</svg>
