<svg width="16" height="20" viewBox="0 0 16 20" fill="none" xmlns="http://www.w3.org/2000/svg">
<path d="M3.53537 11.4286H9.19194V12.8571H3.53537V11.4286ZM3.53537 7.85715H12.0202V9.28572H3.53537V7.85715ZM3.53537 15H7.07072V16.4286H3.53537V15Z" fill="#828282"/>
<path d="M14.1414 2.14286H12.0202V1.42857C12.0202 1.04969 11.8712 0.686328 11.606 0.418419C11.3408 0.15051 10.9811 0 10.6061 0H4.94949C4.57444 0 4.21475 0.15051 3.94955 0.418419C3.68434 0.686328 3.53535 1.04969 3.53535 1.42857V2.14286H1.41414C1.03909 2.14286 0.679395 2.29337 0.414192 2.56128C0.148989 2.82919 0 3.19255 0 3.57143V18.5714C0 18.9503 0.148989 19.3137 0.414192 19.5816C0.679395 19.8495 1.03909 20 1.41414 20H14.1414C14.5165 20 14.8762 19.8495 15.1414 19.5816C15.4066 19.3137 15.5556 18.9503 15.5556 18.5714V3.57143C15.5556 3.19255 15.4066 2.82919 15.1414 2.56128C14.8762 2.29337 14.5165 2.14286 14.1414 2.14286ZM4.94949 1.42857H10.6061V4.28571H4.94949V1.42857ZM14.1414 18.5714H1.41414V3.57143H3.53535V5.71429H12.0202V3.57143H14.1414V18.5714Z" fill="#828282"/>
</svg>
