<svg width="40" height="40" viewBox="0 0 40 40" fill="none" xmlns="http://www.w3.org/2000/svg">
<circle cx="20" cy="20" r="19.4" stroke="#6D41A1" stroke-width="1.2"/>
<path d="M12.3167 13.7932V13.6739L12.332 13.6688L19.0806 11.4547L19.6547 11.663V11.6459L25.8681 13.7425L25.8669 13.7553L25.8741 13.7835V13.8657L25.048 13.5868L19.2229 11.62L19.0809 11.572L18.9385 11.6188L13.1695 13.5132L12.3167 13.7932ZM28.3695 21.5098C28.6275 21.8855 28.6547 22.4433 28.1437 22.957C27.4143 23.4803 26.7333 23.9969 26.0742 24.4969C24.2693 25.8661 22.6287 27.1107 20.6089 28.0278L20.5856 28.0383L20.5637 28.0515C18.7019 29.1668 16.2089 28.8406 14.2493 27.7057L14.2387 27.6996L14.2278 27.694L11.45 26.2812V19.9709H11.8667H12.3163H12.3167H12.7663H14.1713C15.4298 20.2018 16.7164 20.8827 18.0603 21.7158L18.1692 21.7833H18.2974H18.5817H19.0317V21.3333V17.4569V17.158L18.7562 17.0421L12.9407 14.5969L12.3167 14.3346V13.9898L13.1263 14.3515L18.9224 16.9415L19.1034 17.0224L19.2852 16.9435L25.0833 14.4259L25.8741 14.0825V20.8054V21.5246L26.5208 21.2101L26.7931 21.0777C27.5329 20.8493 28.1028 21.1216 28.3695 21.5098ZM19.1764 21.3333V21.7833H19.6264H20.7807C21.2042 21.8122 21.4509 22.0304 21.5238 22.2143C21.559 22.303 21.5629 22.3986 21.5231 22.5018C21.4819 22.6088 21.3824 22.7507 21.1662 22.8966L21.1601 22.9007L21.1542 22.905C20.7353 23.2079 20.2197 23.3369 19.6057 23.3652L19.1764 23.385V23.8147V24.7466V25.2223L19.6513 25.1959C20.9545 25.1237 22.1487 24.7596 22.9174 23.5757L22.9378 23.5443L22.9527 23.5099L23.2599 22.8026L25.62 21.65L25.8725 21.5267V21.2457V14.9603V14.2761L25.2443 14.5471L19.4482 17.0475L19.1764 17.1648V17.4607V21.3333ZM19.0337 23.7918V23.3746L18.6177 23.3431L18.5932 23.3413C18.4749 23.3323 18.3591 23.3235 18.2452 23.3132L18.2359 23.3123L18.2265 23.3119C17.9193 23.2968 17.6417 23.3876 17.4368 23.5749C17.2358 23.7586 17.1333 24.0098 17.1292 24.2597C17.1251 24.5102 17.2197 24.7654 17.4162 24.9573C17.6122 25.1486 17.8814 25.2506 18.1857 25.2555C18.3395 25.2661 18.4894 25.2583 18.6238 25.2463L19.0337 25.2096V24.7981V24.5122V23.7918Z" stroke="#6D41A1" stroke-width="0.9"/>
</svg>
