<svg width="40" height="40" viewBox="0 0 40 40" fill="none" xmlns="http://www.w3.org/2000/svg">
<circle cx="20" cy="20" r="19.4" stroke="#6D41A1" stroke-width="1.2"/>
<path d="M22.0655 19.5C22.79 19.5 23.378 20.088 23.378 20.8125V24.3743C23.378 25.2696 23.0223 26.1282 22.3893 26.7613C21.7562 27.3943 20.8976 27.75 20.0023 27.75C19.1069 27.75 18.2483 27.3943 17.6152 26.7613C16.9822 26.1282 16.6265 25.2696 16.6265 24.3743V20.8125C16.6265 20.088 17.2137 19.5 17.939 19.5H22.0655ZM22.0655 20.625H17.939C17.8893 20.625 17.8416 20.6448 17.8064 20.6799C17.7713 20.7151 17.7515 20.7628 17.7515 20.8125V24.3743C17.7515 24.9712 17.9886 25.5437 18.4107 25.9658C18.8328 26.3879 19.4053 26.625 20.0023 26.625C20.5992 26.625 21.1717 26.3879 21.5938 25.9658C22.0159 25.5437 22.253 24.9712 22.253 24.3743V20.8125C22.253 20.7628 22.2332 20.7151 22.1981 20.6799C22.1629 20.6448 22.1152 20.625 22.0655 20.625ZM13.8125 19.5H16.3482C16.0836 19.8196 15.9221 20.2118 15.8847 20.625H13.8125C13.7628 20.625 13.7151 20.6448 13.6799 20.6799C13.6448 20.7151 13.625 20.7628 13.625 20.8125V23.2492C13.625 23.5327 13.6891 23.8124 13.8127 24.0675C13.9363 24.3225 14.116 24.5462 14.3385 24.7218C14.561 24.8975 14.8203 25.0204 15.0971 25.0814C15.3738 25.1424 15.6608 25.1398 15.9365 25.074C16.0002 25.452 16.1165 25.8127 16.2762 26.148C15.8317 26.2669 15.3658 26.282 14.9145 26.1921C14.4632 26.1022 14.0386 25.9097 13.6736 25.6295C13.3085 25.3493 13.0128 24.9889 12.8093 24.5762C12.6059 24.1634 12.5 23.7094 12.5 23.2492V20.8125C12.5 20.088 13.088 19.5 13.8125 19.5ZM23.6562 19.5H26.1875C26.912 19.5 27.5 20.088 27.5 20.8125V23.25C27.5001 23.7099 27.3945 24.1636 27.1913 24.5762C26.9881 24.9887 26.6928 25.349 26.3282 25.6293C25.9636 25.9095 25.5394 26.1022 25.0884 26.1924C24.6375 26.2826 24.1719 26.2679 23.7275 26.1495C23.888 25.8135 24.0042 25.4528 24.0687 25.0748C24.3441 25.1398 24.6305 25.1417 24.9067 25.0804C25.1829 25.019 25.4416 24.896 25.6634 24.7204C25.8853 24.5449 26.0645 24.3214 26.1878 24.0668C26.311 23.8121 26.375 23.5329 26.375 23.25V20.8125C26.375 20.7628 26.3552 20.7151 26.3201 20.6799C26.2849 20.6448 26.2372 20.625 26.1875 20.625H24.1198C24.0824 20.2118 23.9209 19.8196 23.6562 19.5ZM20 14.25C20.5967 14.25 21.169 14.4871 21.591 14.909C22.0129 15.331 22.25 15.9033 22.25 16.5C22.25 17.0967 22.0129 17.669 21.591 18.091C21.169 18.5129 20.5967 18.75 20 18.75C19.4033 18.75 18.831 18.5129 18.409 18.091C17.9871 17.669 17.75 17.0967 17.75 16.5C17.75 15.9033 17.9871 15.331 18.409 14.909C18.831 14.4871 19.4033 14.25 20 14.25ZM24.875 15C25.3723 15 25.8492 15.1975 26.2008 15.5492C26.5525 15.9008 26.75 16.3777 26.75 16.875C26.75 17.3723 26.5525 17.8492 26.2008 18.2008C25.8492 18.5525 25.3723 18.75 24.875 18.75C24.3777 18.75 23.9008 18.5525 23.5492 18.2008C23.1975 17.8492 23 17.3723 23 16.875C23 16.3777 23.1975 15.9008 23.5492 15.5492C23.9008 15.1975 24.3777 15 24.875 15ZM15.125 15C15.6223 15 16.0992 15.1975 16.4508 15.5492C16.8025 15.9008 17 16.3777 17 16.875C17 17.3723 16.8025 17.8492 16.4508 18.2008C16.0992 18.5525 15.6223 18.75 15.125 18.75C14.6277 18.75 14.1508 18.5525 13.7992 18.2008C13.4475 17.8492 13.25 17.3723 13.25 16.875C13.25 16.3777 13.4475 15.9008 13.7992 15.5492C14.1508 15.1975 14.6277 15 15.125 15ZM20 15.375C19.7016 15.375 19.4155 15.4935 19.2045 15.7045C18.9935 15.9155 18.875 16.2016 18.875 16.5C18.875 16.7984 18.9935 17.0845 19.2045 17.2955C19.4155 17.5065 19.7016 17.625 20 17.625C20.2984 17.625 20.5845 17.5065 20.7955 17.2955C21.0065 17.0845 21.125 16.7984 21.125 16.5C21.125 16.2016 21.0065 15.9155 20.7955 15.7045C20.5845 15.4935 20.2984 15.375 20 15.375ZM24.875 16.125C24.6761 16.125 24.4853 16.204 24.3447 16.3447C24.204 16.4853 24.125 16.6761 24.125 16.875C24.125 17.0739 24.204 17.2647 24.3447 17.4053C24.4853 17.546 24.6761 17.625 24.875 17.625C25.0739 17.625 25.2647 17.546 25.4053 17.4053C25.546 17.2647 25.625 17.0739 25.625 16.875C25.625 16.6761 25.546 16.4853 25.4053 16.3447C25.2647 16.204 25.0739 16.125 24.875 16.125ZM15.125 16.125C14.9261 16.125 14.7353 16.204 14.5947 16.3447C14.454 16.4853 14.375 16.6761 14.375 16.875C14.375 17.0739 14.454 17.2647 14.5947 17.4053C14.7353 17.546 14.9261 17.625 15.125 17.625C15.3239 17.625 15.5147 17.546 15.6553 17.4053C15.796 17.2647 15.875 17.0739 15.875 16.875C15.875 16.6761 15.796 16.4853 15.6553 16.3447C15.5147 16.204 15.3239 16.125 15.125 16.125Z" fill="#6D41A1"/>
</svg>
