<svg width="16" height="16" viewBox="0 0 16 16" fill="none" xmlns="http://www.w3.org/2000/svg">
<path d="M8.5 6.6C8.5 6.44087 8.57902 6.28826 8.71967 6.17574C8.86032 6.06321 9.05109 6 9.25 6H12.75C12.9489 6 13.1397 6.06321 13.2803 6.17574C13.421 6.28826 13.5 6.44087 13.5 6.6C13.5 6.75913 13.421 6.91174 13.2803 7.02426C13.1397 7.13679 12.9489 7.2 12.75 7.2H9.25C9.05109 7.2 8.86032 7.13679 8.71967 7.02426C8.57902 6.91174 8.5 6.75913 8.5 6.6ZM9.25 10.4C9.05109 10.4 8.86032 10.4632 8.71967 10.5757C8.57902 10.6883 8.5 10.8409 8.5 11C8.5 11.1591 8.57902 11.3117 8.71967 11.4243C8.86032 11.5368 9.05109 11.6 9.25 11.6H12.75C12.9489 11.6 13.1397 11.5368 13.2803 11.4243C13.421 11.3117 13.5 11.1591 13.5 11C13.5 10.8409 13.421 10.6883 13.2803 10.5757C13.1397 10.4632 12.9489 10.4 12.75 10.4H9.25ZM6.78 6.224C6.85369 6.16907 6.91279 6.10283 6.95378 6.02923C6.99477 5.95563 7.01682 5.87618 7.01859 5.79562C7.02037 5.71506 7.00184 5.63503 6.96412 5.56032C6.9264 5.48561 6.87026 5.41774 6.79904 5.36077C6.72782 5.30379 6.64299 5.25888 6.5496 5.2287C6.45621 5.19852 6.35618 5.18371 6.25548 5.18513C6.15478 5.18655 6.05546 5.20418 5.96346 5.23698C5.87146 5.26977 5.78866 5.31705 5.72 5.376L4.25 6.552L3.78 6.176C3.63783 6.07002 3.44978 6.01232 3.25548 6.01506C3.06118 6.0178 2.87579 6.08077 2.73838 6.1907C2.60097 6.30063 2.52225 6.44894 2.51883 6.60438C2.5154 6.75982 2.58752 6.91026 2.72 7.024L3.72 7.824C3.86063 7.93636 4.05125 7.99947 4.25 7.99947C4.44875 7.99947 4.63937 7.93636 4.78 7.824L6.78 6.224ZM6.78 9.776C6.92045 9.8885 6.99934 10.041 6.99934 10.2C6.99934 10.359 6.92045 10.5115 6.78 10.624L4.78 12.224C4.63937 12.3364 4.44875 12.3995 4.25 12.3995C4.05125 12.3995 3.86063 12.3364 3.72 12.224L2.72 11.424C2.64631 11.3691 2.58721 11.3028 2.54622 11.2292C2.50523 11.1556 2.48319 11.0762 2.48141 10.9956C2.47963 10.9151 2.49816 10.835 2.53588 10.7603C2.5736 10.6856 2.62974 10.6177 2.70096 10.5608C2.77218 10.5038 2.85701 10.4589 2.9504 10.4287C3.04379 10.3985 3.14382 10.3837 3.24452 10.3851C3.34523 10.3865 3.44454 10.4042 3.53654 10.437C3.62854 10.4698 3.71134 10.5171 3.78 10.576L4.25 10.952L5.72 9.776C5.86063 9.66364 6.05125 9.60053 6.25 9.60053C6.44875 9.60053 6.63937 9.66364 6.78 9.776ZM11.994 1.6672C11.9521 1.21402 11.6975 0.790288 11.2813 0.481055C10.865 0.171822 10.318 -2.66382e-05 9.75 3.09713e-09H6.25C5.69656 1.33796e-05 5.16255 0.163206 4.75004 0.458377C4.33754 0.753549 4.07549 1.15999 4.014 1.6H2.25C1.65326 1.6 1.08097 1.78964 0.65901 2.12721C0.237053 2.46477 0 2.92261 0 3.4V14.2C0 14.6774 0.237053 15.1352 0.65901 15.4728C1.08097 15.8104 1.65326 16 2.25 16H13.75C14.0455 16 14.3381 15.9534 14.611 15.863C14.884 15.7725 15.1321 15.6399 15.341 15.4728C15.5499 15.3056 15.7157 15.1072 15.8287 14.8888C15.9418 14.6704 16 14.4364 16 14.2V3.4C16 3.16362 15.9418 2.92956 15.8287 2.71117C15.7157 2.49278 15.5499 2.29435 15.341 2.12721C15.1321 1.96006 14.884 1.82748 14.611 1.73702C14.3381 1.64656 14.0455 1.6 13.75 1.6H11.986L11.994 1.6672ZM11.994 1.6768L12 1.8C12 1.7584 11.998 1.7176 11.995 1.6768H11.994ZM6.25 3.6H9.75C10.53 3.6 11.217 3.2824 11.621 2.8H13.75C13.9489 2.8 14.1397 2.86321 14.2803 2.97574C14.421 3.08826 14.5 3.24087 14.5 3.4V14.2C14.5 14.3591 14.421 14.5117 14.2803 14.6243C14.1397 14.7368 13.9489 14.8 13.75 14.8H2.25C2.05109 14.8 1.86032 14.7368 1.71967 14.6243C1.57902 14.5117 1.5 14.3591 1.5 14.2V3.4C1.5 3.24087 1.57902 3.08826 1.71967 2.97574C1.86032 2.86321 2.05109 2.8 2.25 2.8H4.379C4.783 3.2824 5.47 3.6 6.25 3.6ZM6.25 1.2H9.75C9.94891 1.2 10.1397 1.26321 10.2803 1.37574C10.421 1.48826 10.5 1.64087 10.5 1.8C10.5 1.95913 10.421 2.11174 10.2803 2.22426C10.1397 2.33679 9.94891 2.4 9.75 2.4H6.25C6.05109 2.4 5.86032 2.33679 5.71967 2.22426C5.57902 2.11174 5.5 1.95913 5.5 1.8C5.5 1.64087 5.57902 1.48826 5.71967 1.37574C5.86032 1.26321 6.05109 1.2 6.25 1.2Z" fill="#828282"/>
</svg>
