<svg width="306" height="236" viewBox="0 0 306 236" fill="none" xmlns="http://www.w3.org/2000/svg">
<g filter="url(#filter0_dd_59_10083)">
<rect x="193" y="14" width="96.1033" height="48.7769" rx="3.73331" fill="white"/>
</g>
<ellipse cx="246.307" cy="32.5089" rx="2.00215" ry="2.0011" fill="#6D41A1"/>
<ellipse cx="246.307" cy="44.7697" rx="2.00215" ry="2.0011" fill="#E6C4EF"/>
<path fill-rule="evenodd" clip-rule="evenodd" d="M217.401 56.0224C227.146 56.0224 235.045 48.127 235.045 38.3876C235.045 28.6483 227.146 20.7529 217.401 20.7529C207.657 20.7529 199.757 28.6483 199.757 38.3876C199.757 48.127 207.657 56.0224 217.401 56.0224ZM217.401 50.1447C223.897 50.1447 229.164 44.8811 229.164 38.3882C229.164 31.8953 223.897 26.6317 217.401 26.6317C210.905 26.6317 205.639 31.8953 205.639 38.3882C205.639 44.8811 210.905 50.1447 217.401 50.1447Z" fill="#6D41A1"/>
<path fill-rule="evenodd" clip-rule="evenodd" d="M199.757 38.3886H205.639C205.639 31.8957 210.905 26.6322 217.401 26.6322C217.401 26.6322 217.401 26.6322 217.401 26.6322V20.7539H217.348C207.628 20.7826 199.757 28.6669 199.757 38.3885C199.757 38.3886 199.757 38.3886 199.757 38.3886Z" fill="#E6C4EF"/>
<rect x="251.688" y="30.1338" width="30.0323" height="4.75262" rx="2.37631" fill="#F2F2F2"/>
<rect x="251.688" y="42.3916" width="30.0323" height="4.75262" rx="2.37631" fill="#F2F2F2"/>
<path opacity="0.4" d="M262.592 172.744C267.788 167.549 267.788 159.125 262.592 153.93C257.396 148.734 248.971 148.734 243.775 153.93C238.579 159.125 238.579 167.549 243.775 172.744C248.971 177.939 257.396 177.939 262.592 172.744Z" fill="#E5E5FF"/>
<path opacity="0.4" d="M48.5971 84.8285C56.5235 76.9032 56.5235 64.0538 48.5971 56.1285C40.6707 48.2032 27.8196 48.2032 19.8932 56.1285C11.9668 64.0538 11.9668 76.9032 19.8932 84.8285C27.8196 92.7538 40.6707 92.7538 48.5971 84.8285Z" fill="#FFCB85"/>
<path d="M41.0468 139.348C40.3695 139.345 39.6889 139.316 39.0196 139.264L39.0502 138.863C39.7098 138.913 40.3824 138.94 41.0484 138.945L41.0468 139.348ZM43.0757 139.288L43.0499 138.887C43.7128 138.843 44.3821 138.776 45.0401 138.687L45.0949 139.087C44.4272 139.177 43.7483 139.245 43.0757 139.288ZM37.0036 139.038C36.3359 138.938 35.665 138.814 35.0086 138.668L35.0973 138.274C35.744 138.419 36.4052 138.542 37.0633 138.64L37.0036 139.038ZM47.0932 138.737L47.0093 138.342C47.6593 138.205 48.3124 138.042 48.9495 137.858L49.0608 138.245C48.4157 138.434 47.7528 138.598 47.0932 138.737ZM33.0458 138.153C32.3991 137.96 31.7524 137.739 31.1218 137.498L31.2653 137.121C31.8862 137.358 32.5249 137.576 33.1619 137.766L33.0458 138.153ZM50.9913 137.616L50.8526 137.237C51.4751 137.008 52.096 136.753 52.7008 136.481L52.8669 136.849C52.2541 137.124 51.6219 137.384 50.9913 137.616ZM29.2509 136.707C28.6397 136.421 28.0317 136.11 27.443 135.783L27.6397 135.431C28.2204 135.755 28.8203 136.062 29.4219 136.342L29.2509 136.707ZM54.6829 135.947L54.491 135.592C55.0732 135.276 55.6538 134.934 56.2135 134.578L56.4312 134.918C55.8635 135.28 55.2748 135.626 54.6829 135.947ZM25.7044 134.73C25.1415 134.36 24.5835 133.965 24.0481 133.557L24.2932 133.236C24.8222 133.64 25.3722 134.028 25.927 134.393L25.7044 134.73ZM58.1004 133.765L57.8601 133.441C58.3923 133.045 58.9181 132.624 59.4213 132.191L59.6842 132.496C59.1746 132.936 58.6407 133.362 58.1004 133.765ZM22.4788 132.269C21.974 131.824 21.4789 131.353 21.0064 130.872L21.2934 130.59C21.7595 131.064 22.2482 131.527 22.7449 131.967L22.4788 132.269ZM61.1744 131.119L60.8906 130.834C61.3615 130.366 61.8227 129.874 62.2582 129.374L62.5614 129.639C62.1195 130.145 61.6518 130.643 61.1744 131.119ZM19.6371 129.376C19.2 128.863 18.7759 128.328 18.3775 127.784L18.7017 127.546C19.0952 128.079 19.5113 128.608 19.9435 129.115L19.6371 129.376ZM63.8403 128.062L63.5178 127.82C63.9177 127.289 64.3032 126.738 64.6645 126.18L65.0032 126.399C64.6387 126.964 64.2468 127.523 63.8403 128.062ZM17.2357 126.109C16.876 125.54 16.5341 124.949 16.2164 124.356L16.5728 124.166C16.8857 124.751 17.2228 125.333 17.5776 125.894L17.2357 126.109ZM66.0466 124.654L65.6934 124.461C66.0144 123.879 66.3176 123.277 66.595 122.672L66.9611 122.84C66.6788 123.453 66.3708 124.064 66.0466 124.654ZM15.3261 122.534C15.052 121.918 14.7971 121.286 14.5697 120.654L14.9487 120.516C15.1745 121.141 15.4245 121.763 15.6955 122.369L15.3261 122.534ZM67.7401 120.965L67.3627 120.823C67.5949 120.2 67.8094 119.562 67.9965 118.926L68.3836 119.041C68.1932 119.686 67.9771 120.334 67.7401 120.965ZM13.9488 118.722C13.7666 118.073 13.6053 117.409 13.4698 116.749L13.8649 116.669C13.9988 117.319 14.1569 117.973 14.3375 118.612L13.9488 118.722ZM68.8851 117.075L68.4916 116.99C68.6319 116.342 68.7513 115.679 68.8464 115.021L69.2448 115.077C69.1496 115.745 69.0287 116.417 68.8851 117.075ZM13.1344 114.748C13.0473 114.081 12.9827 113.402 12.9424 112.729L13.3456 112.705C13.3843 113.37 13.4488 114.039 13.5343 114.697L13.1344 114.748ZM69.4609 113.06L69.0593 113.031C69.1061 112.37 69.1303 111.697 69.1303 111.031H69.5335C69.5319 111.709 69.5077 112.391 69.4609 113.06ZM13.2972 110.704L12.894 110.699C12.9021 110.025 12.9344 109.343 12.9892 108.672L13.3908 108.706C13.3376 109.367 13.3053 110.04 13.2972 110.704ZM69.0964 109.691C69.0642 109.027 69.0093 108.356 68.9303 107.698L69.3303 107.65C69.4093 108.317 69.4657 108.996 69.498 109.672L69.0964 109.691ZM13.6279 106.721L13.2295 106.66C13.3327 105.994 13.4617 105.323 13.6117 104.667L14.0053 104.757C13.8553 105.403 13.7295 106.065 13.6279 106.721ZM68.6239 105.721C68.4981 105.07 68.3465 104.413 68.1755 103.772L68.5642 103.667C68.7384 104.318 68.8916 104.983 69.019 105.644L68.6239 105.721ZM14.523 102.825L14.1375 102.707C14.3359 102.062 14.5601 101.416 14.8036 100.788L15.1794 100.935C14.9391 101.553 14.7181 102.19 14.523 102.825ZM67.5868 101.861C67.3691 101.235 67.1256 100.608 66.8627 99.9981L67.2336 99.8385C67.4998 100.456 67.7465 101.091 67.9675 101.727L67.5868 101.861ZM15.9712 99.0935L15.6068 98.9209C15.8954 98.3114 16.2099 97.705 16.5422 97.1181L16.8938 97.3164C16.5664 97.8953 16.2567 98.4936 15.9712 99.0935ZM66.0063 98.1937C65.6999 97.6051 65.3693 97.0197 65.0225 96.4537L65.366 96.2424C65.7176 96.8165 66.0547 97.4099 66.3643 98.0082L66.0063 98.1937ZM17.9405 95.6103L17.605 95.3878C17.9775 94.8266 18.3759 94.2719 18.7888 93.7381L19.1081 93.9848C18.7001 94.5105 18.3082 95.0572 17.9405 95.6103ZM63.9161 94.7879C63.5291 94.2477 63.1178 93.7155 62.6936 93.2044L63.0033 92.9463C63.4339 93.464 63.8516 94.0042 64.2435 94.5525L63.9161 94.7879ZM20.3854 92.4448L20.0855 92.1755C20.5338 91.6724 21.0064 91.1806 21.4902 90.7113L21.7708 91C21.295 91.4644 20.829 91.9498 20.3854 92.4448ZM61.3615 91.7127C60.9018 91.2338 60.418 90.7645 59.9261 90.3195L60.1971 90.0211C60.697 90.4727 61.1873 90.9484 61.6534 91.4354L61.3615 91.7127ZM23.2562 89.6599L22.9965 89.3519C23.511 88.9181 24.0497 88.4989 24.5948 88.1022L24.8319 88.4279C24.2932 88.8198 23.7626 89.2342 23.2562 89.6599ZM58.394 89.031C57.8698 88.6214 57.3247 88.2264 56.7747 87.8555L57.0005 87.5217C57.5602 87.8974 58.1117 88.2989 58.6439 88.7133L58.394 89.031ZM26.4898 87.3136L26.2769 86.9718C26.8495 86.6154 27.4414 86.2768 28.0365 85.9639L28.2252 86.3203C27.6381 86.6283 27.0543 86.9621 26.4898 87.3136ZM55.0748 86.7992C54.4975 86.4687 53.9024 86.1542 53.3024 85.8672L53.4766 85.5043C54.0846 85.7962 54.6894 86.1155 55.2732 86.4509L55.0748 86.7992ZM30.0251 85.4511L29.8638 85.0818C30.4799 84.8125 31.1137 84.561 31.7491 84.3368L31.883 84.7174C31.2588 84.9383 30.6331 85.1867 30.0251 85.4511ZM51.467 85.0641C50.8493 84.819 50.2139 84.5949 49.5785 84.3965L49.6994 84.0111C50.3429 84.2127 50.988 84.4417 51.6154 84.6884L51.467 85.0641ZM33.7925 84.1175L33.6861 83.7289C34.3344 83.5499 34.9989 83.3935 35.6617 83.2612L35.7408 83.6563C35.086 83.7869 34.4312 83.9418 33.7925 84.1175ZM47.6512 83.866C47.0045 83.7128 46.3448 83.5822 45.6884 83.4773L45.7529 83.079C46.4174 83.1855 47.0883 83.3193 47.7431 83.4741L47.6512 83.866ZM37.7132 83.337L37.6632 82.9371C38.3309 82.8533 39.0099 82.7936 39.684 82.7581L39.705 83.1613C39.0405 83.1951 38.3712 83.2548 37.7132 83.337ZM43.7031 83.2306C43.0435 83.1726 42.3709 83.1371 41.7049 83.1258L41.7113 82.7227C42.3855 82.7339 43.0677 82.771 43.737 82.8291L43.7031 83.2306Z" fill="#9192FF"/>
<path d="M216.328 186.508L216.321 186.105C216.989 186.094 217.663 186.066 218.326 186.025L218.352 186.426C217.682 186.47 217.002 186.497 216.328 186.508ZM214.302 186.497C213.631 186.478 212.95 186.442 212.281 186.392L212.312 185.991C212.975 186.041 213.649 186.076 214.315 186.095L214.302 186.497ZM220.368 186.25L220.322 185.85C220.985 185.776 221.653 185.686 222.309 185.583L222.372 185.981C221.711 186.084 221.035 186.176 220.368 186.25ZM210.267 186.192C209.601 186.11 208.928 186.012 208.264 185.899L208.331 185.502C208.989 185.615 209.657 185.713 210.315 185.794L210.267 186.192ZM224.366 185.615L224.283 185.22C224.937 185.084 225.595 184.931 226.237 184.765L226.337 185.155C225.688 185.323 225.025 185.478 224.366 185.615ZM206.277 185.508C205.62 185.363 204.959 185.202 204.311 185.026L204.416 184.638C205.057 184.812 205.714 184.971 206.364 185.115L206.277 185.508ZM228.285 184.604L228.165 184.218C228.803 184.022 229.443 183.807 230.067 183.581L230.204 183.96C229.573 184.189 228.928 184.405 228.285 184.604ZM202.369 184.452C201.73 184.246 201.085 184.022 200.453 183.785L200.595 183.407C201.221 183.643 201.859 183.865 202.493 184.068L202.369 184.452ZM232.088 183.228L231.933 182.856C232.544 182.601 233.16 182.328 233.762 182.043L233.934 182.408C233.326 182.696 232.704 182.972 232.088 183.228ZM198.569 183.027C197.95 182.761 197.331 182.475 196.726 182.18L196.903 181.817C197.502 182.109 198.116 182.391 198.729 182.656L198.569 183.027ZM235.739 181.503L235.55 181.146C236.137 180.835 236.725 180.505 237.295 180.164L237.502 180.511C236.924 180.855 236.333 181.187 235.739 181.503ZM194.924 181.248C194.336 180.926 193.745 180.584 193.17 180.232L193.379 179.889C193.95 180.237 194.534 180.576 195.118 180.895L194.924 181.248ZM239.216 179.439L238.994 179.102C239.55 178.734 240.105 178.35 240.64 177.96L240.877 178.286C240.337 178.679 239.779 179.068 239.216 179.439ZM191.467 179.136C190.912 178.76 190.357 178.363 189.817 177.96L190.059 177.638C190.594 178.037 191.144 178.429 191.694 178.802L191.467 179.136ZM242.485 177.055L242.234 176.741C242.751 176.325 243.268 175.889 243.768 175.449L244.034 175.751C243.529 176.196 243.008 176.635 242.485 177.055ZM188.223 176.709C187.704 176.281 187.188 175.835 186.691 175.385L186.962 175.086C187.456 175.533 187.965 175.975 188.48 176.397L188.223 176.709ZM245.519 174.377L245.238 174.088C245.716 173.625 246.19 173.143 246.645 172.658L246.938 172.934C246.479 173.424 246.001 173.909 245.519 174.377ZM185.223 173.99C184.746 173.514 184.275 173.024 183.822 172.529L184.119 172.256C184.567 172.747 185.033 173.234 185.507 173.704L185.223 173.99ZM248.29 171.424L247.983 171.163C248.417 170.655 248.843 170.133 249.251 169.607L249.569 169.854C249.157 170.384 248.727 170.913 248.29 171.424ZM182.49 171.003C182.059 170.486 181.637 169.954 181.232 169.418L181.553 169.175C181.953 169.705 182.372 170.233 182.799 170.745L182.49 171.003ZM250.773 168.225L250.444 167.993C250.828 167.448 251.204 166.885 251.561 166.324L251.901 166.54C251.54 167.107 251.161 167.673 250.773 168.225ZM180.051 167.777C179.672 167.224 179.301 166.653 178.948 166.082L179.292 165.871C179.642 166.437 180.009 167.001 180.385 167.549L180.051 167.777ZM252.948 164.805L252.598 164.605C252.928 164.027 253.249 163.432 253.552 162.837L253.912 163.021C253.604 163.623 253.28 164.223 252.948 164.805ZM177.926 164.337C177.6 163.75 177.284 163.147 176.987 162.547L177.348 162.368C177.643 162.963 177.955 163.56 178.277 164.142L177.926 164.337ZM254.789 161.194L254.422 161.028C254.697 160.419 254.96 159.796 255.205 159.178L255.58 159.327C255.333 159.951 255.067 160.578 254.789 161.194ZM176.134 160.717C175.864 160.102 175.608 159.474 175.369 158.848L175.747 158.704C175.984 159.324 176.239 159.946 176.505 160.556L176.134 160.717ZM256.283 157.422L255.901 157.292C256.115 156.663 256.318 156.019 256.504 155.379L256.891 155.492C256.704 156.137 256.499 156.787 256.283 157.422ZM174.69 156.939C174.481 156.298 174.282 155.647 174.105 155L174.494 154.892C174.671 155.532 174.866 156.177 175.074 156.811L174.69 156.939ZM257.408 153.534L257.017 153.441C257.171 152.796 257.312 152.135 257.436 151.48L257.833 151.554C257.707 152.215 257.565 152.881 257.408 153.534ZM173.611 153.038C173.463 152.385 173.329 151.717 173.211 151.053L173.608 150.982C173.724 151.64 173.858 152.301 174.005 152.947L173.611 153.038ZM258.162 149.558L257.763 149.501C257.855 148.845 257.934 148.174 257.997 147.51L258.399 147.547C258.334 148.218 258.255 148.893 258.162 149.558ZM172.905 149.053C172.819 148.389 172.749 147.711 172.694 147.039L173.095 147.007C173.15 147.673 173.219 148.344 173.305 149.002L172.905 149.053ZM258.537 145.526L258.134 145.507C258.165 144.844 258.181 144.17 258.181 143.503H258.584C258.584 144.178 258.57 144.859 258.537 145.526ZM172.578 145.018C172.56 144.519 172.552 144.009 172.552 143.504C172.552 143.333 172.553 143.164 172.555 142.995L172.958 143C172.957 143.167 172.955 143.337 172.955 143.504C172.955 144.004 172.963 144.509 172.981 145.006L172.578 145.018ZM258.17 142.513C258.155 141.847 258.123 141.172 258.078 140.51L258.479 140.482C258.526 141.152 258.557 141.832 258.573 142.504L258.17 142.513ZM173.026 140.993L172.623 140.971C172.661 140.298 172.716 139.62 172.787 138.954L173.189 138.996C173.119 139.655 173.065 140.327 173.026 140.993ZM257.892 138.513C257.815 137.854 257.721 137.186 257.613 136.528L258.012 136.462C258.121 137.127 258.216 137.801 258.294 138.467L257.892 138.513ZM173.445 137.007L173.047 136.946C173.148 136.282 173.268 135.611 173.4 134.953L173.795 135.033C173.665 135.683 173.547 136.348 173.445 137.007ZM257.241 134.556C257.102 133.906 256.946 133.25 256.775 132.605L257.165 132.502C257.336 133.153 257.494 133.816 257.634 134.471L257.241 134.556ZM174.239 133.076L173.848 132.977C174.013 132.326 174.194 131.67 174.389 131.026L174.774 131.142C174.582 131.781 174.402 132.431 174.239 133.076ZM256.218 130.679C256.018 130.044 255.801 129.406 255.57 128.781L255.949 128.643C256.181 129.273 256.4 129.917 256.604 130.559L256.218 130.679ZM175.402 129.233L175.021 129.098C175.247 128.462 175.49 127.825 175.745 127.203L176.118 127.356C175.868 127.974 175.626 128.604 175.402 129.233ZM254.834 126.922C254.576 126.313 254.299 125.698 254.012 125.098L254.375 124.924C254.665 125.531 254.946 126.15 255.205 126.766L254.834 126.922ZM176.926 125.516L176.56 125.345C176.843 124.737 177.147 124.126 177.459 123.528L177.816 123.715C177.508 124.308 177.208 124.913 176.926 125.516ZM253.102 123.313C252.788 122.73 252.454 122.144 252.11 121.573L252.456 121.365C252.802 121.943 253.139 122.533 253.457 123.121L253.102 123.313ZM178.793 121.96L178.445 121.756C178.785 121.177 179.145 120.596 179.513 120.032L179.85 120.253C179.487 120.812 179.13 121.386 178.793 121.96ZM251.038 119.882C250.669 119.329 250.282 118.777 249.886 118.242L250.211 118.003C250.609 118.543 251.001 119.101 251.373 119.659L251.038 119.882ZM180.987 118.598L180.659 118.363C181.053 117.818 181.464 117.276 181.883 116.749L182.199 117C181.785 117.521 181.377 118.06 180.987 118.598ZM248.659 116.657C248.24 116.141 247.803 115.626 247.359 115.131L247.661 114.862C248.109 115.363 248.549 115.881 248.974 116.402L248.659 116.657ZM183.485 115.458L183.182 115.192C183.625 114.686 184.085 114.185 184.551 113.701L184.841 113.98C184.38 114.46 183.924 114.957 183.485 115.458ZM245.988 113.667C245.521 113.191 245.037 112.72 244.55 112.269L244.824 111.974C245.316 112.43 245.804 112.904 246.275 113.385L245.988 113.667ZM186.265 112.567L185.988 112.275C186.477 111.812 186.981 111.356 187.489 110.917L187.752 111.222C187.249 111.658 186.749 112.109 186.265 112.567ZM243.048 110.938C242.54 110.509 242.014 110.087 241.485 109.681L241.731 109.361C242.266 109.771 242.797 110.2 243.308 110.632L243.048 110.938ZM189.301 109.95L189.052 109.632C189.581 109.218 190.126 108.811 190.673 108.421L190.907 108.75C190.365 109.136 189.825 109.54 189.301 109.95ZM239.865 108.495C239.316 108.115 238.753 107.742 238.191 107.389L238.405 107.047C238.974 107.404 239.542 107.779 240.095 108.165L239.865 108.495ZM192.568 107.628L192.35 107.289C192.915 106.926 193.497 106.572 194.078 106.236L194.279 106.584C193.702 106.918 193.128 107.27 192.568 107.628ZM236.465 106.362C235.884 106.035 235.288 105.717 234.692 105.417L234.873 105.057C235.475 105.361 236.076 105.681 236.662 106.01L236.465 106.362ZM196.036 105.625L195.85 105.267C196.445 104.959 197.056 104.662 197.668 104.382L197.835 104.748C197.231 105.025 196.624 105.32 196.036 105.625ZM232.876 104.557C232.267 104.287 231.643 104.027 231.022 103.785L231.168 103.409C231.796 103.654 232.426 103.916 233.041 104.19L232.876 104.557ZM199.672 103.958L199.522 103.583C200.147 103.332 200.785 103.093 201.419 102.872L201.551 103.253C200.924 103.472 200.292 103.709 199.672 103.958ZM229.132 103.1C228.499 102.888 227.856 102.689 227.216 102.508L227.325 102.119C227.972 102.303 228.622 102.503 229.261 102.718L229.132 103.1ZM203.461 102.64L203.346 102.253C203.99 102.063 204.648 101.885 205.301 101.726L205.398 102.118C204.749 102.276 204.098 102.451 203.461 102.64ZM225.272 102.005C224.624 101.853 223.964 101.716 223.308 101.597L223.38 101.2C224.042 101.321 224.709 101.46 225.362 101.613L225.272 102.005ZM207.356 101.685L207.278 101.29C207.938 101.161 208.609 101.047 209.273 100.95L209.331 101.348C208.673 101.445 208.009 101.558 207.356 101.685ZM221.329 101.282C220.669 101.194 219.998 101.118 219.335 101.06L219.371 100.658C220.04 100.716 220.718 100.792 221.384 100.882L221.329 101.282ZM211.323 101.105L211.283 100.703C211.951 100.637 212.629 100.586 213.302 100.552L213.323 100.955C212.657 100.989 211.984 101.039 211.323 101.105ZM217.334 100.931C216.749 100.907 216.153 100.895 215.568 100.895C215.487 100.895 215.408 100.895 215.329 100.895L215.326 100.492C215.407 100.492 215.489 100.492 215.568 100.492C216.16 100.492 216.76 100.505 217.35 100.528L217.334 100.931Z" fill="#9192FF"/>
<path d="M225.396 67.5731V190.157C225.396 192.709 223.327 194.777 220.779 194.777H42.6145C40.0631 194.777 37.9939 192.71 37.9939 190.157V67.5731C37.9939 65.0204 40.0631 62.9531 42.6145 62.9531H220.779C223.327 62.9515 225.396 65.0204 225.396 67.5731Z" fill="white"/>
<path d="M220.779 194.977H42.6145C39.955 194.977 37.7922 192.814 37.7922 190.155V67.5726C37.7922 64.9134 39.955 62.751 42.6145 62.751H220.779C223.435 62.751 225.598 64.9134 225.598 67.5726V190.155C225.596 192.814 223.435 194.977 220.779 194.977ZM42.6145 63.1541C40.1775 63.1541 38.1954 65.136 38.1954 67.5726V190.155C38.1954 192.592 40.1775 194.574 42.6145 194.574H220.779C223.213 194.574 225.195 192.592 225.195 190.155V67.5726C225.195 65.136 223.214 63.1541 220.779 63.1541H42.6145Z" fill="#C0C0C0"/>
<path d="M225.396 67.5731V74.8458H37.9939V67.5731C37.9939 65.0204 40.0631 62.9531 42.6145 62.9531H220.779C223.327 62.9515 225.396 65.0204 225.396 67.5731Z" fill="white"/>
<path d="M225.596 75.0468H37.7922V67.5726C37.7922 64.9134 39.955 62.751 42.6145 62.751H220.779C223.435 62.751 225.598 64.9134 225.598 67.5726V75.0468H225.596ZM38.1954 74.6437H225.195V67.5726C225.195 65.136 223.214 63.1541 220.779 63.1541H42.6145C40.1775 63.1541 38.1954 65.136 38.1954 67.5726V74.6437Z" fill="#C0C0C0"/>
<path d="M48.3996 71.0491C49.5869 71.0491 50.5494 70.0867 50.5494 68.8995C50.5494 67.7124 49.5869 66.75 48.3996 66.75C47.2123 66.75 46.2498 67.7124 46.2498 68.8995C46.2498 70.0867 47.2123 71.0491 48.3996 71.0491Z" fill="#FFA6A6"/>
<path d="M56.5974 66.75C55.412 66.75 54.4475 67.7143 54.4475 68.8995C54.4475 70.0848 55.412 71.0491 56.5974 71.0491C57.7828 71.0491 58.7472 70.0848 58.7472 68.8995C58.7472 67.7143 57.7828 66.75 56.5974 66.75Z" fill="#FFA6A6"/>
<path d="M64.7951 71.0491C63.6097 71.0491 62.6453 70.0848 62.6453 68.8995C62.6453 67.7143 63.6097 66.75 64.7951 66.75C65.9805 66.75 66.9449 67.7143 66.9449 68.8995C66.9466 70.0848 65.9821 71.0491 64.7951 71.0491ZM64.7951 67.1531C63.8323 67.1531 63.0485 67.9368 63.0485 68.8995C63.0485 69.8623 63.8323 70.646 64.7951 70.646C65.7579 70.646 66.5418 69.8623 66.5418 68.8995C66.5434 67.9368 65.7596 67.1531 64.7951 67.1531Z" fill="#FFA6A6"/>
<path d="M117.708 71.291H77.7396C76.4187 71.291 75.3462 70.217 75.3462 68.8979C75.3462 67.5788 76.4203 66.5049 77.7396 66.5049H117.706C119.025 66.5049 120.099 67.5788 120.099 68.8979C120.099 70.217 119.027 71.291 117.708 71.291ZM77.7396 66.908C76.6413 66.908 75.7494 67.8014 75.7494 68.8979C75.7494 69.9961 76.6429 70.8878 77.7396 70.8878H117.706C118.804 70.8878 119.696 69.9945 119.696 68.8979C119.696 67.7998 118.803 66.908 117.706 66.908H77.7396Z" fill="#C0C0C0"/>
<path d="M168.531 131.888C168.531 151.191 152.884 166.841 133.579 166.841C114.274 166.841 98.6218 151.191 98.6218 131.888C98.6218 113.779 112.398 98.8871 130.042 97.1133L131.208 108.582C119.386 109.772 110.156 119.754 110.156 131.888C110.156 144.826 120.643 155.311 133.579 155.311C146.514 155.311 156.997 144.824 156.997 131.888C156.997 129.631 156.677 127.449 156.081 125.385L167.164 122.184C168.055 125.266 168.531 128.523 168.531 131.888Z" fill="#6D41A1"/>
<path d="M133.577 160.108C149.165 160.108 161.801 147.473 161.801 131.888C161.801 116.302 149.165 103.668 133.577 103.668C117.99 103.668 105.354 116.302 105.354 131.888C105.354 147.473 117.99 160.108 133.577 160.108Z" fill="white"/>
<path opacity="0.5" d="M133.577 160.108C149.165 160.108 161.801 147.473 161.801 131.888C161.801 116.302 149.165 103.668 133.577 103.668C117.99 103.668 105.354 116.302 105.354 131.888C105.354 147.473 117.99 160.108 133.577 160.108Z" fill="#EEDFFF"/>
<path d="M133.577 151.882C144.618 151.882 153.568 142.93 153.568 131.888C153.568 120.845 144.618 111.894 133.577 111.894C122.537 111.894 113.587 120.845 113.587 131.888C113.587 142.93 122.537 151.882 133.577 151.882Z" fill="white"/>
<path d="M135.481 141.833C137.521 141.833 139.307 140.601 139.709 138.675L137.859 137.748C137.595 138.896 136.886 139.727 135.481 139.727H130.302C131.179 138.675 131.887 137.264 131.887 135.516C131.887 135.148 131.855 134.79 131.802 134.463H135.481V132.358H131.063C130.196 130.694 129.139 129.831 129.139 128.147C129.139 127.283 129.444 126.447 130.001 125.784C130.557 125.121 131.33 124.675 132.183 124.522C133.037 124.369 133.917 124.519 134.671 124.947C135.424 125.375 136.002 126.053 136.305 126.862L138.261 126.041C137.415 123.883 135.312 122.356 132.838 122.356C129.625 122.356 127.025 124.946 127.025 128.147C127.025 130.021 127.86 131.2 128.6 132.358H127.025V134.463H129.636C129.72 134.79 129.773 135.137 129.773 135.516C129.773 138.359 127.025 139.727 127.025 139.727V141.833H135.481Z" fill="#6D41A1"/>
<path d="M189.586 109.104L184.77 95.8018C179.329 97.7723 175.44 102.983 175.44 109.104C175.44 116.915 181.774 123.248 189.586 123.248C197.399 123.248 203.732 116.915 203.732 109.104C203.732 106.753 203.155 104.539 202.14 102.587L189.586 109.104Z" fill="#F39893"/>
<path d="M204.022 97.548C201.664 93.0167 196.929 89.9189 191.468 89.9189C189.777 89.9189 188.156 90.2173 186.653 90.7607L191.468 104.063L204.022 97.548Z" fill="#9DD49A"/>
<path d="M209.611 154.429H176.145V186.277H209.611V154.429Z" fill="#B3D2FF"/>
<path d="M200.135 162.895H181.387V164.239H200.135V162.895Z" fill="#ECF4FF"/>
<path d="M200.135 166.926H181.387V168.271H200.135V166.926Z" fill="#ECF4FF"/>
<path d="M81.8682 93.5557H52.7671V142.739H81.8682V93.5557Z" fill="#FFD3D3"/>
<path d="M76.2862 100.68H57.2021V118.149H76.2862V100.68Z" fill="white"/>
<path d="M57.3456 100.534L57.0732 100.831L76.1622 118.297L76.4346 117.999L57.3456 100.534Z" fill="#FFD3D3"/>
<path d="M76.1412 100.53L57.0608 118.002L57.333 118.299L76.4134 100.827L76.1412 100.53Z" fill="#FFD3D3"/>
<path d="M66.7549 113.643H0.193604V157.493H66.7549V113.643Z" fill="white"/>
<path d="M66.9467 157.686H0V113.451H66.9467V157.686ZM0.385456 157.302H66.5613V113.835H0.385456V157.302Z" fill="#6D41A1"/>
<path d="M7.20605 146.903L11.5074 138.84L20.3777 147.172L26.2901 129.971L37.3119 142.065L44.5695 139.109L57.7395 121.908" fill="white"/>
<path d="M20.4663 147.534L11.5605 139.168L7.38338 146.999L7.02856 146.81L11.4524 138.513L20.2873 146.812L26.211 129.585L37.3651 141.827L44.442 138.944L57.5797 121.786L57.9007 122.031L44.6952 139.276L37.257 142.306L37.1619 142.201L26.3707 130.359L20.4663 147.534Z" fill="#6D41A1"/>
<path d="M11.5408 139.916C12.1535 139.916 12.6502 139.419 12.6502 138.807C12.6502 138.194 12.1535 137.697 11.5408 137.697C10.9281 137.697 10.4314 138.194 10.4314 138.807C10.4314 139.419 10.9281 139.916 11.5408 139.916Z" fill="#6D41A1"/>
<path d="M20.3096 148.08C20.9223 148.08 21.419 147.584 21.419 146.971C21.419 146.358 20.9223 145.861 20.3096 145.861C19.6969 145.861 19.2002 146.358 19.2002 146.971C19.2002 147.584 19.6969 148.08 20.3096 148.08Z" fill="#6D41A1"/>
<path d="M26.3574 131.148C26.9701 131.148 27.4668 130.651 27.4668 130.038C27.4668 129.425 26.9701 128.929 26.3574 128.929C25.7447 128.929 25.248 129.425 25.248 130.038C25.248 130.651 25.7447 131.148 26.3574 131.148Z" fill="#6D41A1"/>
<path d="M47.5853 120.632H19.3616V121.035H47.5853V120.632Z" fill="#6D41A1"/>
<path d="M101.959 169.548H73.9092V171.436H101.959V169.548Z" fill="#9192FF"/>
<path d="M101.957 169.548H78.2686L87.2405 147.677H110.927L101.957 169.548Z" fill="white"/>
<path d="M102.093 169.75H77.9685L87.1049 147.478H111.229L102.093 169.75ZM78.5701 169.347H101.822L110.627 147.881H87.3759L78.5701 169.347Z" fill="#9192FF"/>
<path d="M99.912 167.711H81.2957L88.3467 150.522H106.963L99.912 167.711Z" fill="#EBEBFF"/>
<path d="M92.5273 172.039H92.124V235.732H92.5273V172.039Z" fill="#1B1B43"/>
<path d="M114.948 171.437H69.7014V175.034H114.948V171.437Z" fill="#D1D1FF"/>
<path d="M33.188 198.794H32.7847V235.733H33.188V198.794Z" fill="#1B1B43"/>
<path d="M44.0515 200.506H21.9209C22.3902 198.26 24.3723 196.65 26.6673 196.65H39.3067C41.6001 196.65 43.5822 198.26 44.0515 200.506Z" fill="#D1D1FF"/>
<path d="M38.7309 235.625H27.2415C27.2415 234.229 28.3736 233.097 29.7703 233.097H36.2005C37.5988 233.095 38.7309 234.229 38.7309 235.625Z" fill="#D1D1FF"/>
<path d="M50.0592 143.989C50.6252 144.804 51.4363 145.955 51.5266 146.961C51.6572 148.425 49.3143 147.398 49.2869 147.526L50.0592 143.989Z" fill="#D28572"/>
<path d="M46.4821 145.711H39.0762V156.564H46.4821V145.711Z" fill="#FFBC96"/>
<path d="M46.4819 147.571V155.32C44.1482 153.854 42.1306 151.677 40.3872 149.163L46.4819 147.571Z" fill="#1B1B43"/>
<path d="M50.6448 144.647C50.4142 148.396 48.9707 152.638 45.0339 151.591C41.9422 150.769 38.5376 148.166 38.5376 144.41C38.5376 140.655 41.1374 137.608 44.3452 137.608C46.3499 137.608 48.8739 138.581 50.061 140.459C50.7754 141.588 50.7464 143.012 50.6448 144.647Z" fill="#FFBC96"/>
<path d="M44.0904 143.56C45.1388 140.78 47.5386 140.505 47.5386 140.505C47.5386 140.505 53.0962 146.001 52.7511 140.323C52.4769 135.811 48.0676 136.237 48.0676 136.237C45.9129 133.433 42.4567 134.529 41.1971 136.156C39.9375 137.783 40.3843 136.848 37.4167 137.904C34.4492 138.961 36.0346 143.474 35.5056 143.798C31.5623 143.798 32.2929 147.701 32.2929 147.701L41.6293 150.745L43.8776 144.608L44.0904 143.56Z" fill="#1B1B43"/>
<path d="M44.7106 146.487C45.4802 146.042 45.6364 144.872 45.0595 143.872C44.4826 142.872 43.3911 142.422 42.6215 142.867C41.8519 143.311 41.6957 144.482 42.2726 145.482C42.8495 146.482 43.941 146.932 44.7106 146.487Z" fill="#FFBC96"/>
<path d="M43.8709 145.079C43.7403 144.826 43.6291 144.579 43.4533 144.406C43.3662 144.319 43.2663 144.248 43.1518 144.187C43.0373 144.126 42.9099 144.074 42.7793 144.013L42.7986 143.908C42.947 143.9 43.097 143.918 43.2437 143.966C43.3904 144.015 43.5339 144.1 43.6452 144.216C43.7581 144.332 43.8387 144.471 43.8903 144.614C43.9419 144.758 43.9693 144.905 43.9742 145.053L43.8709 145.079Z" fill="#1B1B43"/>
<path d="M40.3823 138.366C42.1128 138.284 43.4437 136.698 43.3549 134.822C43.2661 132.947 41.7912 131.493 40.0607 131.575C38.3301 131.657 36.9992 133.244 37.0881 135.119C37.1769 136.995 38.6517 138.448 40.3823 138.366Z" fill="#1B1B43"/>
<path opacity="0.2" d="M47.4256 148.181C48.205 148.181 48.8368 147.55 48.8368 146.77C48.8368 145.991 48.205 145.359 47.4256 145.359C46.6462 145.359 46.0144 145.991 46.0144 146.77C46.0144 147.55 46.6462 148.181 47.4256 148.181Z" fill="#FE5B52"/>
<path d="M52.9689 183.255L29.248 180.231L33.7203 156.658C34.0348 155.01 35.1315 153.611 36.6604 152.917C37.9345 152.337 39.3892 152.3 40.6956 152.812L48.7789 156.404C50.3352 157.094 51.4077 158.556 51.6013 160.246L52.0577 167.946L52.5786 176.674L52.9689 183.255Z" fill="#FFA121"/>
<path d="M74.6736 166.322L80.9522 164.478C81.4054 164.345 81.8908 164.418 82.2844 164.678C84.0036 165.818 88.5774 169.046 87.4227 170.365C86.8453 171.025 81.5957 169.48 81.5957 169.48L73.9946 171.6L74.6736 166.322Z" fill="#FFBC96"/>
<path d="M52.5786 176.675C50.603 174.16 49.4289 170.838 49.0386 166.726L52.0593 167.946L52.5786 176.675Z" fill="#1B1B43"/>
<path d="M48.0626 156.11L49.0077 156.518C50.9527 157.357 52.6977 158.602 54.1218 160.171L61.9067 168.743L74.6752 166.324L76.3557 173.178L60.3133 178.191C59.0473 178.417 57.7522 177.98 56.8813 177.032L45.3096 164.442L48.0626 156.11Z" fill="#FFA121"/>
<path d="M61.7586 168.878C61.7199 168.836 57.9234 164.701 54.6333 161.015C51.382 157.369 46.4243 155.597 46.3743 155.579L46.5081 155.198C46.5581 155.216 51.611 157.02 54.9349 160.745C58.2218 164.43 62.0183 168.563 62.0554 168.605L61.7586 168.878Z" fill="#1B1B43"/>
<path d="M46.2569 165.772L45.9673 166.053L56.7323 177.163L57.0219 176.882L46.2569 165.772Z" fill="#1B1B43"/>
<path d="M52.1093 218.91L46.9919 228.877L59.9184 235.512L56.4784 227.647L59.2862 221.414L52.1093 218.91Z" fill="#D1D1FF"/>
<path d="M56.4267 227.451L52.7537 228.532L52.8676 228.919L56.5406 227.838L56.4267 227.451Z" fill="#1B1B43"/>
<path d="M60.1587 225.461L48.4482 221.093L56.467 196.143C57.8459 192.449 62.0924 190.622 65.9518 192.062C69.8112 193.502 71.8223 197.664 70.4434 201.358L60.1587 225.461Z" fill="#26289C"/>
<path d="M71.5159 223.773L72.6593 235.632H87.1889L80.5378 230.206L78.975 223.37L71.5159 223.773Z" fill="#D1D1FF"/>
<path d="M80.4392 230.018L76.9956 231.916L77.1903 232.269L80.6339 230.371L80.4392 230.018Z" fill="#1B1B43"/>
<path d="M81.999 225.184L69.2983 227.199L60.6022 201.629L59.0168 196.964L37.4184 197.136C32.0768 197.257 27.8255 192.682 28.3497 187.361L29.248 180.233L50.6174 182.923L64.6616 184.466C70.5079 185.474 72.3029 189.014 73.519 193.561L81.999 225.184Z" fill="#3335CF"/>
<path d="M60.6022 201.629L59.0168 196.964L61.9392 196.864C62.2102 198.622 61.5118 200.584 60.6022 201.629Z" fill="#1B1B43"/>
<path d="M253.357 235.429H8.61719V235.832H253.357V235.429Z" fill="#1B1B43"/>
<defs>
<filter id="filter0_dd_59_10083" x="176.2" y="0.933428" width="129.703" height="82.3771" filterUnits="userSpaceOnUse" color-interpolation-filters="sRGB">
<feFlood flood-opacity="0" result="BackgroundImageFix"/>
<feColorMatrix in="SourceAlpha" type="matrix" values="0 0 0 0 0 0 0 0 0 0 0 0 0 0 0 0 0 0 127 0" result="hardAlpha"/>
<feMorphology radius="1.86665" operator="dilate" in="SourceAlpha" result="effect1_dropShadow_59_10083"/>
<feOffset dy="3.73331"/>
<feGaussianBlur stdDeviation="7.46661"/>
<feColorMatrix type="matrix" values="0 0 0 0 0.039009 0 0 0 0 0.13338 0 0 0 0 0.232469 0 0 0 0.08 0"/>
<feBlend mode="normal" in2="BackgroundImageFix" result="effect1_dropShadow_59_10083"/>
<feColorMatrix in="SourceAlpha" type="matrix" values="0 0 0 0 0 0 0 0 0 0 0 0 0 0 0 0 0 0 127 0" result="hardAlpha"/>
<feOffset/>
<feGaussianBlur stdDeviation="1.86665"/>
<feColorMatrix type="matrix" values="0 0 0 0 0.0392157 0 0 0 0 0.133333 0 0 0 0 0.231373 0 0 0 0.04 0"/>
<feBlend mode="normal" in2="effect1_dropShadow_59_10083" result="effect2_dropShadow_59_10083"/>
<feBlend mode="normal" in="SourceGraphic" in2="effect2_dropShadow_59_10083" result="shape"/>
</filter>
</defs>
</svg>
